<svg width="30" height="33" viewBox="0 0 30 33" fill="none" xmlns="http://www.w3.org/2000/svg">
<path d="M14.6919 2.06583C16.8996 2.0659 18.9697 2.58301 20.8638 3.6293C22.7044 4.64616 24.2443 6.0083 25.4614 7.7045L26.8325 9.61661L24.7593 10.7299L22.2974 12.0522L20.7427 12.8861L19.6753 11.4828C19.1008 10.7277 18.3732 10.1217 17.4634 9.66251L17.4526 9.65762L17.4419 9.65176C16.5645 9.19659 15.6565 8.97508 14.6919 8.97501C13.7781 8.97501 12.9514 9.15757 12.188 9.51114C11.4004 9.88093 10.7112 10.3854 10.1108 11.0365C9.57723 11.6152 9.1423 12.278 8.80615 13.0356C8.94053 13.1399 9.07192 13.2458 9.1958 13.3539C9.67524 13.7723 10.6753 14.7237 10.6753 16.1322C10.6753 17.5408 9.67524 18.4922 9.1958 18.9106C9.07121 19.0193 8.93841 19.125 8.80322 19.2299C9.14885 19.9936 9.5905 20.6612 10.1274 21.2436C10.7354 21.8913 11.4249 22.3936 12.2046 22.7621L12.4966 22.8852C13.1833 23.1532 13.9104 23.2895 14.6919 23.2895C15.7123 23.2894 16.6244 23.0622 17.4614 22.6195C18.3707 22.1335 19.105 21.5158 19.689 20.765L20.7651 19.3803L22.3062 20.2182L24.769 21.557L26.8257 22.6742L25.4614 24.5766C24.2443 26.2728 22.7044 27.6349 20.8638 28.6518L20.854 28.6566C18.9615 29.6889 16.895 30.1986 14.6919 30.1986C12.847 30.1986 11.086 29.8327 9.43311 29.0922L9.42139 29.0863C7.80663 28.35 6.3788 27.3386 5.15088 26.059L5.14404 26.0512L5.13623 26.0434C3.92048 24.75 2.97067 23.2549 2.28369 21.5756L2.27783 21.5629C1.60876 19.8958 2.76346 18.6262 3.19775 18.2035C3.46848 17.94 3.78572 17.6874 4.10303 17.4565C4.05648 17.0207 4.03076 16.5794 4.03076 16.1322C4.03076 15.6852 4.05785 15.244 4.10498 14.808C3.78725 14.5768 3.46884 14.3248 3.19775 14.0609C2.76346 13.6382 1.60875 12.3687 2.27783 10.7016L2.28369 10.6889C2.97139 9.00785 3.92293 7.51494 5.14307 6.22989H5.14404C6.37495 4.93421 7.80829 3.91684 9.43311 3.18887V3.18985C11.0854 2.43847 12.846 2.06583 14.6919 2.06583Z" stroke="#646FC6" stroke-width="4.13223"/>
</svg>