<svg width="975" height="1269" viewBox="0 0 975 1269" fill="none" xmlns="http://www.w3.org/2000/svg">
<ellipse opacity="0.0169492" cx="564.673" cy="634.32" rx="80" ry="660" transform="rotate(140 564.673 634.32)" stroke="url(#paint0_linear_1069_1809)" stroke-opacity="0.1" stroke-width="4"/>
<ellipse opacity="0.0338983" cx="564.673" cy="634.32" rx="80" ry="650" transform="rotate(150 564.673 634.32)" stroke="url(#paint1_linear_1069_1809)" stroke-opacity="0.1" stroke-width="4"/>
<ellipse opacity="0.0508475" cx="564.673" cy="634.32" rx="80" ry="640" transform="rotate(160 564.673 634.32)" stroke="url(#paint2_linear_1069_1809)" stroke-opacity="0.1" stroke-width="4"/>
<ellipse opacity="0.0677966" cx="564.672" cy="634.321" rx="80" ry="630" transform="rotate(170 564.672 634.321)" stroke="url(#paint3_linear_1069_1809)" stroke-opacity="0.1" stroke-width="4"/>
<ellipse opacity="0.0847458" cx="564.673" cy="634.321" rx="80" ry="620" transform="rotate(-180 564.673 634.321)" stroke="url(#paint4_linear_1069_1809)" stroke-opacity="0.1" stroke-width="4"/>
<ellipse opacity="0.101695" cx="564.673" cy="634.32" rx="80" ry="610" transform="rotate(-170 564.673 634.32)" stroke="url(#paint5_linear_1069_1809)" stroke-opacity="0.1" stroke-width="4"/>
<ellipse opacity="0.118644" cx="564.672" cy="634.32" rx="80" ry="600" transform="rotate(-160 564.672 634.32)" stroke="url(#paint6_linear_1069_1809)" stroke-opacity="0.1" stroke-width="4"/>
<ellipse opacity="0.135593" cx="564.673" cy="634.32" rx="80" ry="590" transform="rotate(-150 564.673 634.32)" stroke="url(#paint7_linear_1069_1809)" stroke-opacity="0.1" stroke-width="4"/>
<ellipse opacity="0.152542" cx="564.672" cy="634.32" rx="80" ry="580" transform="rotate(-140 564.672 634.32)" stroke="url(#paint8_linear_1069_1809)" stroke-opacity="0.1" stroke-width="4"/>
<ellipse opacity="0.169492" cx="564.672" cy="634.32" rx="80" ry="570" transform="rotate(-130 564.672 634.32)" stroke="url(#paint9_linear_1069_1809)" stroke-opacity="0.1" stroke-width="4"/>
<ellipse opacity="0.186441" cx="564.672" cy="634.32" rx="80" ry="560" transform="rotate(-120 564.672 634.32)" stroke="url(#paint10_linear_1069_1809)" stroke-opacity="0.1" stroke-width="4"/>
<ellipse opacity="0.20339" cx="564.673" cy="634.32" rx="80" ry="550" transform="rotate(-110 564.673 634.32)" stroke="url(#paint11_linear_1069_1809)" stroke-opacity="0.1" stroke-width="4"/>
<ellipse opacity="0.220339" cx="564.672" cy="634.321" rx="80" ry="540" transform="rotate(-100 564.672 634.321)" stroke="url(#paint12_linear_1069_1809)" stroke-opacity="0.1" stroke-width="4"/>
<ellipse opacity="0.237288" cx="564.672" cy="634.321" rx="80" ry="530" transform="rotate(-90 564.672 634.321)" stroke="url(#paint13_linear_1069_1809)" stroke-opacity="0.1" stroke-width="4"/>
<ellipse opacity="0.254237" cx="564.673" cy="634.32" rx="80" ry="520" transform="rotate(-80 564.673 634.32)" stroke="url(#paint14_linear_1069_1809)" stroke-opacity="0.1" stroke-width="4"/>
<ellipse opacity="0.271186" cx="564.672" cy="634.32" rx="80" ry="510" transform="rotate(-70 564.672 634.32)" stroke="url(#paint15_linear_1069_1809)" stroke-opacity="0.1" stroke-width="4"/>
<ellipse opacity="0.288136" cx="564.672" cy="634.32" rx="80" ry="500" transform="rotate(-60 564.672 634.32)" stroke="url(#paint16_linear_1069_1809)" stroke-opacity="0.1" stroke-width="4"/>
<ellipse opacity="0.305085" cx="564.672" cy="634.319" rx="80" ry="490" transform="rotate(-50 564.672 634.319)" stroke="url(#paint17_linear_1069_1809)" stroke-opacity="0.1" stroke-width="4"/>
<ellipse opacity="0.322034" cx="564.672" cy="634.32" rx="80" ry="480" transform="rotate(-40 564.672 634.32)" stroke="url(#paint18_linear_1069_1809)" stroke-opacity="0.1" stroke-width="4"/>
<ellipse opacity="0.338983" cx="564.673" cy="634.32" rx="80" ry="470" transform="rotate(-30 564.673 634.32)" stroke="url(#paint19_linear_1069_1809)" stroke-opacity="0.1" stroke-width="4"/>
<ellipse opacity="0.355932" cx="564.673" cy="634.32" rx="80" ry="460" transform="rotate(-20 564.673 634.32)" stroke="url(#paint20_linear_1069_1809)" stroke-opacity="0.1" stroke-width="4"/>
<ellipse opacity="0.372881" cx="564.673" cy="634.321" rx="80" ry="450" transform="rotate(-10 564.673 634.321)" stroke="url(#paint21_linear_1069_1809)" stroke-opacity="0.1" stroke-width="4"/>
<ellipse opacity="0.38983" cx="564.672" cy="634.321" rx="80" ry="440" stroke="url(#paint22_linear_1069_1809)" stroke-opacity="0.1" stroke-width="4"/>
<ellipse opacity="0.40678" cx="564.674" cy="634.32" rx="80" ry="430" transform="rotate(10 564.674 634.32)" stroke="url(#paint23_linear_1069_1809)" stroke-opacity="0.1" stroke-width="4"/>
<ellipse opacity="0.423729" cx="564.672" cy="634.32" rx="80" ry="420" transform="rotate(20 564.672 634.32)" stroke="url(#paint24_linear_1069_1809)" stroke-opacity="0.1" stroke-width="4"/>
<ellipse opacity="0.440678" cx="564.673" cy="634.321" rx="80" ry="410" transform="rotate(30 564.673 634.321)" stroke="url(#paint25_linear_1069_1809)" stroke-opacity="0.1" stroke-width="4"/>
<ellipse opacity="0.457627" cx="564.674" cy="634.32" rx="80" ry="400" transform="rotate(40 564.674 634.32)" stroke="url(#paint26_linear_1069_1809)" stroke-opacity="0.1" stroke-width="4"/>
<ellipse opacity="0.474576" cx="564.673" cy="634.321" rx="80" ry="390" transform="rotate(50 564.673 634.321)" stroke="url(#paint27_linear_1069_1809)" stroke-opacity="0.1" stroke-width="4"/>
<ellipse opacity="0.491525" cx="564.674" cy="634.32" rx="80" ry="380" transform="rotate(60 564.674 634.32)" stroke="url(#paint28_linear_1069_1809)" stroke-opacity="0.1" stroke-width="4"/>
<ellipse opacity="0.508475" cx="564.673" cy="634.321" rx="80" ry="370" transform="rotate(70 564.673 634.321)" stroke="url(#paint29_linear_1069_1809)" stroke-opacity="0.1" stroke-width="4"/>
<ellipse opacity="0.525424" cx="564.674" cy="634.32" rx="80" ry="360" transform="rotate(80 564.674 634.32)" stroke="url(#paint30_linear_1069_1809)" stroke-opacity="0.1" stroke-width="4"/>
<ellipse opacity="0.542373" cx="564.673" cy="634.321" rx="80" ry="350" transform="rotate(90 564.673 634.321)" stroke="url(#paint31_linear_1069_1809)" stroke-opacity="0.1" stroke-width="4"/>
<ellipse opacity="0.559322" cx="564.674" cy="634.321" rx="80" ry="340" transform="rotate(100 564.674 634.321)" stroke="url(#paint32_linear_1069_1809)" stroke-opacity="0.1" stroke-width="4"/>
<ellipse opacity="0.576271" cx="564.673" cy="634.321" rx="80" ry="330" transform="rotate(110 564.673 634.321)" stroke="url(#paint33_linear_1069_1809)" stroke-opacity="0.1" stroke-width="4"/>
<ellipse opacity="0.59322" cx="564.674" cy="634.32" rx="80" ry="320" transform="rotate(120 564.674 634.32)" stroke="url(#paint34_linear_1069_1809)" stroke-opacity="0.1" stroke-width="4"/>
<ellipse opacity="0.610169" cx="564.673" cy="634.321" rx="80" ry="310" transform="rotate(130 564.673 634.321)" stroke="url(#paint35_linear_1069_1809)" stroke-opacity="0.1" stroke-width="4"/>
<ellipse opacity="0.627119" cx="564.673" cy="634.321" rx="80" ry="300" transform="rotate(140 564.673 634.321)" stroke="url(#paint36_linear_1069_1809)" stroke-opacity="0.1" stroke-width="4"/>
<ellipse opacity="0.644068" cx="564.674" cy="634.32" rx="80" ry="290" transform="rotate(150 564.674 634.32)" stroke="url(#paint37_linear_1069_1809)" stroke-opacity="0.1" stroke-width="4"/>
<ellipse opacity="0.661017" cx="564.674" cy="634.32" rx="80" ry="280" transform="rotate(160 564.674 634.32)" stroke="url(#paint38_linear_1069_1809)" stroke-opacity="0.1" stroke-width="4"/>
<ellipse opacity="0.677966" cx="564.673" cy="634.321" rx="80" ry="270" transform="rotate(170 564.673 634.321)" stroke="url(#paint39_linear_1069_1809)" stroke-opacity="0.1" stroke-width="4"/>
<ellipse opacity="0.694915" cx="564.672" cy="634.32" rx="80" ry="260" transform="rotate(-180 564.672 634.32)" stroke="url(#paint40_linear_1069_1809)" stroke-opacity="0.1" stroke-width="4"/>
<ellipse opacity="0.711864" cx="564.673" cy="634.321" rx="80" ry="250" transform="rotate(-170 564.673 634.321)" stroke="url(#paint41_linear_1069_1809)" stroke-opacity="0.1" stroke-width="4"/>
<ellipse opacity="0.728814" cx="564.672" cy="634.32" rx="80" ry="240" transform="rotate(-160 564.672 634.32)" stroke="url(#paint42_linear_1069_1809)" stroke-opacity="0.1" stroke-width="4"/>
<ellipse opacity="0.745763" cx="564.673" cy="634.32" rx="80" ry="230" transform="rotate(-150 564.673 634.32)" stroke="url(#paint43_linear_1069_1809)" stroke-opacity="0.1" stroke-width="4"/>
<ellipse opacity="0.762712" cx="564.672" cy="634.32" rx="80" ry="220" transform="rotate(-140 564.672 634.32)" stroke="url(#paint44_linear_1069_1809)" stroke-opacity="0.1" stroke-width="4"/>
<ellipse opacity="0.779661" cx="564.672" cy="634.321" rx="80" ry="210" transform="rotate(-130 564.672 634.321)" stroke="url(#paint45_linear_1069_1809)" stroke-opacity="0.1" stroke-width="4"/>
<ellipse opacity="0.79661" cx="564.673" cy="634.32" rx="80" ry="200" transform="rotate(-120 564.673 634.32)" stroke="url(#paint46_linear_1069_1809)" stroke-opacity="0.1" stroke-width="4"/>
<ellipse opacity="0.813559" cx="564.673" cy="634.32" rx="80" ry="190" transform="rotate(-110 564.673 634.32)" stroke="url(#paint47_linear_1069_1809)" stroke-opacity="0.1" stroke-width="4"/>
<ellipse opacity="0.830508" cx="564.673" cy="634.32" rx="80" ry="180" transform="rotate(-100 564.673 634.32)" stroke="url(#paint48_linear_1069_1809)" stroke-opacity="0.1" stroke-width="4"/>
<ellipse opacity="0.847458" cx="564.673" cy="634.321" rx="80" ry="170" transform="rotate(-90 564.673 634.321)" stroke="url(#paint49_linear_1069_1809)" stroke-opacity="0.1" stroke-width="4"/>
<ellipse opacity="0.864407" cx="564.673" cy="634.32" rx="80" ry="160" transform="rotate(-80 564.673 634.32)" stroke="url(#paint50_linear_1069_1809)" stroke-opacity="0.1" stroke-width="4"/>
<ellipse opacity="0.881356" cx="564.673" cy="634.32" rx="80" ry="150" transform="rotate(-70 564.673 634.32)" stroke="url(#paint51_linear_1069_1809)" stroke-opacity="0.1" stroke-width="4"/>
<ellipse opacity="0.898305" cx="564.672" cy="634.32" rx="80" ry="140" transform="rotate(-60 564.672 634.32)" stroke="url(#paint52_linear_1069_1809)" stroke-opacity="0.1" stroke-width="4"/>
<ellipse opacity="0.915254" cx="564.673" cy="634.321" rx="80" ry="130" transform="rotate(-50 564.673 634.321)" stroke="url(#paint53_linear_1069_1809)" stroke-opacity="0.1" stroke-width="4"/>
<ellipse opacity="0.932203" cx="564.673" cy="634.32" rx="80" ry="120" transform="rotate(-40 564.673 634.32)" stroke="url(#paint54_linear_1069_1809)" stroke-opacity="0.1" stroke-width="4"/>
<ellipse opacity="0.949153" cx="564.673" cy="634.32" rx="80" ry="110" transform="rotate(-30 564.673 634.32)" stroke="url(#paint55_linear_1069_1809)" stroke-opacity="0.1" stroke-width="4"/>
<ellipse opacity="0.966102" cx="564.673" cy="634.32" rx="80" ry="100" transform="rotate(-20 564.673 634.32)" stroke="url(#paint56_linear_1069_1809)" stroke-opacity="0.1" stroke-width="4"/>
<ellipse opacity="0.983051" cx="564.673" cy="634.32" rx="80" ry="90" transform="rotate(-10 564.673 634.32)" stroke="url(#paint57_linear_1069_1809)" stroke-opacity="0.1" stroke-width="4"/>
<circle cx="564.673" cy="634.32" r="80" stroke="url(#paint58_linear_1069_1809)" stroke-opacity="0.1" stroke-width="4"/>
<defs>
<linearGradient id="paint0_linear_1069_1809" x1="564.673" y1="-25.6795" x2="564.673" y2="1343.82" gradientUnits="userSpaceOnUse">
<stop stop-color="#FF1CF7"/>
<stop offset="1" stop-color="#00F0FF"/>
</linearGradient>
<linearGradient id="paint1_linear_1069_1809" x1="564.673" y1="-15.6797" x2="564.673" y2="1333.07" gradientUnits="userSpaceOnUse">
<stop stop-color="#FF1CF7"/>
<stop offset="1" stop-color="#00F0FF"/>
</linearGradient>
<linearGradient id="paint2_linear_1069_1809" x1="564.673" y1="-5.67987" x2="564.673" y2="1322.32" gradientUnits="userSpaceOnUse">
<stop stop-color="#FF1CF7"/>
<stop offset="1" stop-color="#00F0FF"/>
</linearGradient>
<linearGradient id="paint3_linear_1069_1809" x1="564.673" y1="4.32086" x2="564.673" y2="1311.57" gradientUnits="userSpaceOnUse">
<stop stop-color="#FF1CF7"/>
<stop offset="1" stop-color="#00F0FF"/>
</linearGradient>
<linearGradient id="paint4_linear_1069_1809" x1="564.673" y1="14.3208" x2="564.673" y2="1300.82" gradientUnits="userSpaceOnUse">
<stop stop-color="#FF1CF7"/>
<stop offset="1" stop-color="#00F0FF"/>
</linearGradient>
<linearGradient id="paint5_linear_1069_1809" x1="564.673" y1="24.3202" x2="564.673" y2="1290.07" gradientUnits="userSpaceOnUse">
<stop stop-color="#FF1CF7"/>
<stop offset="1" stop-color="#00F0FF"/>
</linearGradient>
<linearGradient id="paint6_linear_1069_1809" x1="564.672" y1="34.3201" x2="564.673" y2="1279.32" gradientUnits="userSpaceOnUse">
<stop stop-color="#FF1CF7"/>
<stop offset="1" stop-color="#00F0FF"/>
</linearGradient>
<linearGradient id="paint7_linear_1069_1809" x1="564.673" y1="44.3197" x2="564.673" y2="1268.57" gradientUnits="userSpaceOnUse">
<stop stop-color="#FF1CF7"/>
<stop offset="1" stop-color="#00F0FF"/>
</linearGradient>
<linearGradient id="paint8_linear_1069_1809" x1="564.672" y1="54.3203" x2="564.673" y2="1257.82" gradientUnits="userSpaceOnUse">
<stop stop-color="#FF1CF7"/>
<stop offset="1" stop-color="#00F0FF"/>
</linearGradient>
<linearGradient id="paint9_linear_1069_1809" x1="564.672" y1="64.3199" x2="564.672" y2="1247.07" gradientUnits="userSpaceOnUse">
<stop stop-color="#FF1CF7"/>
<stop offset="1" stop-color="#00F0FF"/>
</linearGradient>
<linearGradient id="paint10_linear_1069_1809" x1="564.672" y1="74.3198" x2="564.672" y2="1236.32" gradientUnits="userSpaceOnUse">
<stop stop-color="#FF1CF7"/>
<stop offset="1" stop-color="#00F0FF"/>
</linearGradient>
<linearGradient id="paint11_linear_1069_1809" x1="564.673" y1="84.3202" x2="564.673" y2="1225.57" gradientUnits="userSpaceOnUse">
<stop stop-color="#FF1CF7"/>
<stop offset="1" stop-color="#00F0FF"/>
</linearGradient>
<linearGradient id="paint12_linear_1069_1809" x1="564.672" y1="94.3206" x2="564.673" y2="1214.82" gradientUnits="userSpaceOnUse">
<stop stop-color="#FF1CF7"/>
<stop offset="1" stop-color="#00F0FF"/>
</linearGradient>
<linearGradient id="paint13_linear_1069_1809" x1="564.672" y1="104.321" x2="564.673" y2="1204.07" gradientUnits="userSpaceOnUse">
<stop stop-color="#FF1CF7"/>
<stop offset="1" stop-color="#00F0FF"/>
</linearGradient>
<linearGradient id="paint14_linear_1069_1809" x1="564.673" y1="114.32" x2="564.673" y2="1193.32" gradientUnits="userSpaceOnUse">
<stop stop-color="#FF1CF7"/>
<stop offset="1" stop-color="#00F0FF"/>
</linearGradient>
<linearGradient id="paint15_linear_1069_1809" x1="564.672" y1="124.32" x2="564.672" y2="1182.57" gradientUnits="userSpaceOnUse">
<stop stop-color="#FF1CF7"/>
<stop offset="1" stop-color="#00F0FF"/>
</linearGradient>
<linearGradient id="paint16_linear_1069_1809" x1="564.672" y1="134.32" x2="564.672" y2="1171.82" gradientUnits="userSpaceOnUse">
<stop stop-color="#FF1CF7"/>
<stop offset="1" stop-color="#00F0FF"/>
</linearGradient>
<linearGradient id="paint17_linear_1069_1809" x1="564.672" y1="144.319" x2="564.672" y2="1161.07" gradientUnits="userSpaceOnUse">
<stop stop-color="#FF1CF7"/>
<stop offset="1" stop-color="#00F0FF"/>
</linearGradient>
<linearGradient id="paint18_linear_1069_1809" x1="564.672" y1="154.32" x2="564.672" y2="1150.32" gradientUnits="userSpaceOnUse">
<stop stop-color="#FF1CF7"/>
<stop offset="1" stop-color="#00F0FF"/>
</linearGradient>
<linearGradient id="paint19_linear_1069_1809" x1="564.673" y1="164.32" x2="564.673" y2="1139.57" gradientUnits="userSpaceOnUse">
<stop stop-color="#FF1CF7"/>
<stop offset="1" stop-color="#00F0FF"/>
</linearGradient>
<linearGradient id="paint20_linear_1069_1809" x1="564.673" y1="174.32" x2="564.673" y2="1128.82" gradientUnits="userSpaceOnUse">
<stop stop-color="#FF1CF7"/>
<stop offset="1" stop-color="#00F0FF"/>
</linearGradient>
<linearGradient id="paint21_linear_1069_1809" x1="564.673" y1="184.321" x2="564.674" y2="1118.07" gradientUnits="userSpaceOnUse">
<stop stop-color="#FF1CF7"/>
<stop offset="1" stop-color="#00F0FF"/>
</linearGradient>
<linearGradient id="paint22_linear_1069_1809" x1="564.672" y1="194.321" x2="564.672" y2="1107.32" gradientUnits="userSpaceOnUse">
<stop stop-color="#FF1CF7"/>
<stop offset="1" stop-color="#00F0FF"/>
</linearGradient>
<linearGradient id="paint23_linear_1069_1809" x1="564.674" y1="204.32" x2="564.674" y2="1096.57" gradientUnits="userSpaceOnUse">
<stop stop-color="#FF1CF7"/>
<stop offset="1" stop-color="#00F0FF"/>
</linearGradient>
<linearGradient id="paint24_linear_1069_1809" x1="564.672" y1="214.32" x2="564.673" y2="1085.82" gradientUnits="userSpaceOnUse">
<stop stop-color="#FF1CF7"/>
<stop offset="1" stop-color="#00F0FF"/>
</linearGradient>
<linearGradient id="paint25_linear_1069_1809" x1="564.673" y1="224.321" x2="564.673" y2="1075.07" gradientUnits="userSpaceOnUse">
<stop stop-color="#FF1CF7"/>
<stop offset="1" stop-color="#00F0FF"/>
</linearGradient>
<linearGradient id="paint26_linear_1069_1809" x1="564.674" y1="234.32" x2="564.674" y2="1064.32" gradientUnits="userSpaceOnUse">
<stop stop-color="#FF1CF7"/>
<stop offset="1" stop-color="#00F0FF"/>
</linearGradient>
<linearGradient id="paint27_linear_1069_1809" x1="564.673" y1="244.321" x2="564.673" y2="1053.57" gradientUnits="userSpaceOnUse">
<stop stop-color="#FF1CF7"/>
<stop offset="1" stop-color="#00F0FF"/>
</linearGradient>
<linearGradient id="paint28_linear_1069_1809" x1="564.674" y1="254.32" x2="564.675" y2="1042.82" gradientUnits="userSpaceOnUse">
<stop stop-color="#FF1CF7"/>
<stop offset="1" stop-color="#00F0FF"/>
</linearGradient>
<linearGradient id="paint29_linear_1069_1809" x1="564.673" y1="264.321" x2="564.673" y2="1032.07" gradientUnits="userSpaceOnUse">
<stop stop-color="#FF1CF7"/>
<stop offset="1" stop-color="#00F0FF"/>
</linearGradient>
<linearGradient id="paint30_linear_1069_1809" x1="564.674" y1="274.32" x2="564.674" y2="1021.32" gradientUnits="userSpaceOnUse">
<stop stop-color="#FF1CF7"/>
<stop offset="1" stop-color="#00F0FF"/>
</linearGradient>
<linearGradient id="paint31_linear_1069_1809" x1="564.673" y1="284.321" x2="564.673" y2="1010.57" gradientUnits="userSpaceOnUse">
<stop stop-color="#FF1CF7"/>
<stop offset="1" stop-color="#00F0FF"/>
</linearGradient>
<linearGradient id="paint32_linear_1069_1809" x1="564.674" y1="294.321" x2="564.674" y2="999.821" gradientUnits="userSpaceOnUse">
<stop stop-color="#FF1CF7"/>
<stop offset="1" stop-color="#00F0FF"/>
</linearGradient>
<linearGradient id="paint33_linear_1069_1809" x1="564.673" y1="304.321" x2="564.673" y2="989.071" gradientUnits="userSpaceOnUse">
<stop stop-color="#FF1CF7"/>
<stop offset="1" stop-color="#00F0FF"/>
</linearGradient>
<linearGradient id="paint34_linear_1069_1809" x1="564.674" y1="314.32" x2="564.674" y2="978.32" gradientUnits="userSpaceOnUse">
<stop stop-color="#FF1CF7"/>
<stop offset="1" stop-color="#00F0FF"/>
</linearGradient>
<linearGradient id="paint35_linear_1069_1809" x1="564.673" y1="324.321" x2="564.673" y2="967.571" gradientUnits="userSpaceOnUse">
<stop stop-color="#FF1CF7"/>
<stop offset="1" stop-color="#00F0FF"/>
</linearGradient>
<linearGradient id="paint36_linear_1069_1809" x1="564.673" y1="334.321" x2="564.673" y2="956.821" gradientUnits="userSpaceOnUse">
<stop stop-color="#FF1CF7"/>
<stop offset="1" stop-color="#00F0FF"/>
</linearGradient>
<linearGradient id="paint37_linear_1069_1809" x1="564.674" y1="344.32" x2="564.674" y2="946.07" gradientUnits="userSpaceOnUse">
<stop stop-color="#FF1CF7"/>
<stop offset="1" stop-color="#00F0FF"/>
</linearGradient>
<linearGradient id="paint38_linear_1069_1809" x1="564.674" y1="354.32" x2="564.674" y2="935.32" gradientUnits="userSpaceOnUse">
<stop stop-color="#FF1CF7"/>
<stop offset="1" stop-color="#00F0FF"/>
</linearGradient>
<linearGradient id="paint39_linear_1069_1809" x1="564.673" y1="364.321" x2="564.673" y2="924.571" gradientUnits="userSpaceOnUse">
<stop stop-color="#FF1CF7"/>
<stop offset="1" stop-color="#00F0FF"/>
</linearGradient>
<linearGradient id="paint40_linear_1069_1809" x1="564.672" y1="374.32" x2="564.672" y2="913.82" gradientUnits="userSpaceOnUse">
<stop stop-color="#FF1CF7"/>
<stop offset="1" stop-color="#00F0FF"/>
</linearGradient>
<linearGradient id="paint41_linear_1069_1809" x1="564.673" y1="384.321" x2="564.673" y2="903.071" gradientUnits="userSpaceOnUse">
<stop stop-color="#FF1CF7"/>
<stop offset="1" stop-color="#00F0FF"/>
</linearGradient>
<linearGradient id="paint42_linear_1069_1809" x1="564.672" y1="394.32" x2="564.672" y2="892.32" gradientUnits="userSpaceOnUse">
<stop stop-color="#FF1CF7"/>
<stop offset="1" stop-color="#00F0FF"/>
</linearGradient>
<linearGradient id="paint43_linear_1069_1809" x1="564.673" y1="404.32" x2="564.673" y2="881.57" gradientUnits="userSpaceOnUse">
<stop stop-color="#FF1CF7"/>
<stop offset="1" stop-color="#00F0FF"/>
</linearGradient>
<linearGradient id="paint44_linear_1069_1809" x1="564.672" y1="414.32" x2="564.672" y2="870.82" gradientUnits="userSpaceOnUse">
<stop stop-color="#FF1CF7"/>
<stop offset="1" stop-color="#00F0FF"/>
</linearGradient>
<linearGradient id="paint45_linear_1069_1809" x1="564.672" y1="424.321" x2="564.672" y2="860.071" gradientUnits="userSpaceOnUse">
<stop stop-color="#FF1CF7"/>
<stop offset="1" stop-color="#00F0FF"/>
</linearGradient>
<linearGradient id="paint46_linear_1069_1809" x1="564.673" y1="434.32" x2="564.673" y2="849.32" gradientUnits="userSpaceOnUse">
<stop stop-color="#FF1CF7"/>
<stop offset="1" stop-color="#00F0FF"/>
</linearGradient>
<linearGradient id="paint47_linear_1069_1809" x1="564.673" y1="444.32" x2="564.673" y2="838.57" gradientUnits="userSpaceOnUse">
<stop stop-color="#FF1CF7"/>
<stop offset="1" stop-color="#00F0FF"/>
</linearGradient>
<linearGradient id="paint48_linear_1069_1809" x1="564.673" y1="454.32" x2="564.673" y2="827.82" gradientUnits="userSpaceOnUse">
<stop stop-color="#FF1CF7"/>
<stop offset="1" stop-color="#00F0FF"/>
</linearGradient>
<linearGradient id="paint49_linear_1069_1809" x1="564.673" y1="464.321" x2="564.673" y2="817.071" gradientUnits="userSpaceOnUse">
<stop stop-color="#FF1CF7"/>
<stop offset="1" stop-color="#00F0FF"/>
</linearGradient>
<linearGradient id="paint50_linear_1069_1809" x1="564.673" y1="474.32" x2="564.673" y2="806.32" gradientUnits="userSpaceOnUse">
<stop stop-color="#FF1CF7"/>
<stop offset="1" stop-color="#00F0FF"/>
</linearGradient>
<linearGradient id="paint51_linear_1069_1809" x1="564.673" y1="484.32" x2="564.673" y2="795.57" gradientUnits="userSpaceOnUse">
<stop stop-color="#FF1CF7"/>
<stop offset="1" stop-color="#00F0FF"/>
</linearGradient>
<linearGradient id="paint52_linear_1069_1809" x1="564.672" y1="494.32" x2="564.672" y2="784.82" gradientUnits="userSpaceOnUse">
<stop stop-color="#FF1CF7"/>
<stop offset="1" stop-color="#00F0FF"/>
</linearGradient>
<linearGradient id="paint53_linear_1069_1809" x1="564.673" y1="504.321" x2="564.673" y2="774.071" gradientUnits="userSpaceOnUse">
<stop stop-color="#FF1CF7"/>
<stop offset="1" stop-color="#00F0FF"/>
</linearGradient>
<linearGradient id="paint54_linear_1069_1809" x1="564.673" y1="514.32" x2="564.673" y2="763.32" gradientUnits="userSpaceOnUse">
<stop stop-color="#FF1CF7"/>
<stop offset="1" stop-color="#00F0FF"/>
</linearGradient>
<linearGradient id="paint55_linear_1069_1809" x1="564.673" y1="524.32" x2="564.673" y2="752.57" gradientUnits="userSpaceOnUse">
<stop stop-color="#FF1CF7"/>
<stop offset="1" stop-color="#00F0FF"/>
</linearGradient>
<linearGradient id="paint56_linear_1069_1809" x1="564.673" y1="534.32" x2="564.673" y2="741.82" gradientUnits="userSpaceOnUse">
<stop stop-color="#FF1CF7"/>
<stop offset="1" stop-color="#00F0FF"/>
</linearGradient>
<linearGradient id="paint57_linear_1069_1809" x1="564.673" y1="544.32" x2="564.673" y2="731.07" gradientUnits="userSpaceOnUse">
<stop stop-color="#FF1CF7"/>
<stop offset="1" stop-color="#00F0FF"/>
</linearGradient>
<linearGradient id="paint58_linear_1069_1809" x1="564.673" y1="554.32" x2="564.673" y2="720.32" gradientUnits="userSpaceOnUse">
<stop stop-color="#FF1CF7"/>
<stop offset="1" stop-color="#00F0FF"/>
</linearGradient>
</defs>
</svg>
