<svg width="591" height="328" viewBox="0 0 591 328" fill="none" xmlns="http://www.w3.org/2000/svg">
<path d="M6.91113 59.1247L23.7432 52.2545L40.0142 59.1247L60.2127 48.2469H80.4111L98.3653 59.1247L112.392 48.2469L121.369 29.9262L145.495 52.2545L178.037 39.0866L196.552 48.2469L234.705 39.0866L247.61 52.2545L263.32 48.2469H278.468L290.251 59.1247H312.133L327.281 68.8575L352.529 39.0866L371.606 59.1247L394.049 48.2469L415.93 52.2545L445.106 39.0866L470.915 43.0942L510.19 29.9262L546.659 20.1934L586.495 1.30029" stroke="url(#paint0_linear_1069_2383)" stroke-width="2.6" stroke-linecap="round"/>
<path d="M6.91113 187.942L23.7432 181.071L40.0142 187.942L60.2127 177.064H80.4111L98.3653 187.942L112.392 177.064L121.369 158.743L145.495 181.071L178.037 167.903L196.552 177.064L234.705 167.903L247.61 181.071L263.32 177.064H278.468L290.251 187.942H312.133L327.281 197.674L352.529 167.903L371.606 187.942L394.049 177.064L415.93 181.071L445.106 167.903L470.915 171.911L510.19 158.743L546.659 149.01L586.495 130.117" stroke="url(#paint1_linear_1069_2383)" stroke-width="2.6" stroke-linecap="round"/>
<path d="M6.91113 316.186L23.7432 309.316L40.0142 316.186L60.2127 305.308H80.4111L98.3653 316.186L112.392 305.308L121.369 286.987L145.495 309.316L178.037 296.148L196.552 305.308L234.705 296.148L247.61 309.316L263.32 305.308H278.468L290.251 316.186H312.133L327.281 325.919L352.529 296.148L371.606 316.186L394.049 305.308L415.93 309.316L445.106 296.148L470.915 300.155L510.19 286.987L546.659 277.254L586.495 258.361" stroke="url(#paint2_linear_1069_2383)" stroke-width="2.6" stroke-linecap="round"/>
<path d="M1.30029 119.812L25.9873 113.514L42.8194 119.812L58.5293 113.514H74.8003L98.9262 119.812L116.319 106.071L139.884 113.514L151.667 106.071L172.987 113.514L192.064 106.071L215.629 113.514L236.388 106.071L252.098 113.514H260.514L271.735 100.346L281.835 113.514L296.422 106.071H312.132L333.453 113.514L357.018 100.346L378.338 113.514L391.804 106.071L414.808 119.812L432.201 113.514H463.621L482.136 106.071H504.579L519.167 100.346H562.369L589.3 79.1628" stroke="url(#paint3_linear_1069_2383)" stroke-width="2.6" stroke-linecap="round"/>
<path d="M1.30029 248.629L25.9873 242.331L42.8194 248.629L58.5293 242.331H74.8003L98.9262 248.629L116.319 234.888L139.884 242.331L151.667 234.888L172.987 242.331L192.064 234.888L215.629 242.331L236.388 234.888L252.098 242.331H260.514L271.735 229.163L281.835 242.331L296.422 234.888H312.132L333.453 242.331L357.018 229.163L378.338 242.331L391.804 234.888L414.808 248.629L432.201 242.331H463.621L482.136 234.888H504.579L519.167 229.163H562.369L589.3 207.98" stroke="url(#paint4_linear_1069_2383)" stroke-width="2.6" stroke-linecap="round"/>
<circle opacity="0.9" cx="71.3003" cy="48.7734" r="6" fill="#E79740"/>
<circle opacity="0.9" cx="55.3003" cy="307.773" r="6" fill="#7E4BD0"/>
<circle opacity="0.9" cx="70.3003" cy="176.773" r="6" fill="#E30278"/>
<circle opacity="0.9" cx="504.3" cy="235.773" r="6" fill="#3DC7C8"/>
<circle opacity="0.9" cx="518.3" cy="100.773" r="6" fill="#326DC9"/>
<defs>
<linearGradient id="paint0_linear_1069_2383" x1="0.810448" y1="68.7735" x2="613.31" y2="68.7735" gradientUnits="userSpaceOnUse">
<stop stop-color="#000510"/>
<stop offset="0.505208" stop-color="#E79740"/>
<stop offset="1" stop-color="#000510" stop-opacity="0.04"/>
</linearGradient>
<linearGradient id="paint1_linear_1069_2383" x1="-7.51955" y1="197.773" x2="610.86" y2="197.773" gradientUnits="userSpaceOnUse">
<stop stop-color="#000510"/>
<stop offset="0.5" stop-color="#E30278"/>
<stop offset="1" stop-color="#000510"/>
</linearGradient>
<linearGradient id="paint2_linear_1069_2383" x1="-8.49955" y1="325.919" x2="586.3" y2="325.437" gradientUnits="userSpaceOnUse">
<stop stop-color="#000510"/>
<stop offset="0.489583" stop-color="#7E4BD0"/>
<stop offset="1" stop-color="#000510"/>
</linearGradient>
<linearGradient id="paint3_linear_1069_2383" x1="-14.8697" y1="127.774" x2="634.384" y2="120.09" gradientUnits="userSpaceOnUse">
<stop stop-color="#000510"/>
<stop offset="0.494792" stop-color="#326DC9"/>
<stop offset="1" stop-color="#000510"/>
</linearGradient>
<linearGradient id="paint4_linear_1069_2383" x1="-12.9097" y1="253.773" x2="610.37" y2="253.773" gradientUnits="userSpaceOnUse">
<stop stop-color="#000510"/>
<stop offset="0.494792" stop-color="#3DC7C8"/>
<stop offset="1" stop-color="#000510"/>
</linearGradient>
</defs>
</svg>
