<svg width="777" height="719" viewBox="0 0 777 719" fill="none" xmlns="http://www.w3.org/2000/svg">
<path opacity="0.010101" d="M199.094 362.606C193.526 356.841 192.304 348.146 196.067 341.07L333.643 82.3265C337.405 75.25 345.297 71.4008 353.19 72.7926L641.782 123.679C649.675 125.071 655.774 131.387 656.89 139.324L697.674 429.517C698.789 437.453 694.667 445.206 687.464 448.719L424.077 577.181C416.873 580.695 408.227 579.17 402.659 573.405L199.094 362.606Z" stroke="url(#paint0_linear_1069_1708)" stroke-opacity="0.1" stroke-width="3"/>
<path opacity="0.020202" d="M195.8 358.997C190.334 353.135 189.264 344.421 193.149 337.411L334.935 81.6224C338.82 74.6127 346.778 70.9019 354.645 72.4311L641.729 128.234C649.596 129.764 655.585 136.185 656.561 144.14L692.203 434.417C693.18 442.372 688.923 450.051 681.659 453.439L416.603 577.036C409.339 580.423 400.72 578.748 395.254 572.886L195.8 358.997Z" stroke="url(#paint1_linear_1069_1708)" stroke-opacity="0.1" stroke-width="3"/>
<path opacity="0.030303" d="M192.587 355.392C187.225 349.436 186.307 340.704 190.314 333.763L336.248 80.9976C340.255 74.0567 348.276 70.4855 356.116 72.1517L641.607 132.835C649.446 134.501 655.321 141.026 656.159 148.997L686.668 439.267C687.506 447.238 683.116 454.842 675.794 458.101L409.158 576.815C401.836 580.075 393.248 578.249 387.885 572.293L192.587 355.392Z" stroke="url(#paint2_linear_1069_1708)" stroke-opacity="0.1" stroke-width="3"/>
<path opacity="0.040404" d="M189.456 351.794C184.198 345.746 183.433 336.999 187.561 330.129L337.582 80.4523C341.71 73.5825 349.792 70.1516 357.601 71.9545L641.416 137.478C649.225 139.281 654.986 145.908 655.684 153.892L681.071 444.065C681.769 452.049 677.247 459.575 669.87 462.707L401.745 576.519C394.367 579.651 385.812 577.676 380.554 571.627L189.456 351.794Z" stroke="url(#paint3_linear_1069_1708)" stroke-opacity="0.1" stroke-width="3"/>
<path opacity="0.050505" d="M186.406 348.203C181.254 342.064 180.642 333.305 184.889 326.508L338.933 79.9862C343.18 73.1894 351.321 69.9002 359.097 71.8391L641.156 142.164C648.932 144.103 654.576 150.829 655.135 158.824L675.413 448.81C675.972 456.805 671.319 464.251 663.888 467.253L394.362 576.149C386.931 579.151 378.412 577.027 373.26 570.887L186.406 348.203Z" stroke="url(#paint4_linear_1069_1708)" stroke-opacity="0.1" stroke-width="3"/>
<path opacity="0.0606061" d="M183.436 344.62C178.393 338.391 177.933 329.623 182.298 322.901L340.301 79.5985C344.666 72.8768 352.863 69.7302 360.604 71.8045L640.825 146.889C648.567 148.964 654.092 155.787 654.512 163.791L669.695 453.499C670.114 461.502 665.332 468.866 657.85 471.738L387.012 575.703C379.53 578.575 371.049 576.302 366.005 570.074L183.436 344.62Z" stroke="url(#paint5_linear_1069_1708)" stroke-opacity="0.1" stroke-width="3"/>
<path opacity="0.0707071" d="M180.548 341.046C175.613 334.73 175.307 325.956 179.789 319.311L341.684 79.2903C346.166 72.6459 354.417 69.6428 362.121 71.8519L640.423 151.654C648.127 153.863 653.533 160.782 653.813 168.792L663.917 458.133C664.196 466.143 659.287 473.422 651.755 476.163L379.698 575.184C372.166 577.925 363.726 575.505 358.792 569.189L180.548 341.046Z" stroke="url(#paint6_linear_1069_1708)" stroke-opacity="0.1" stroke-width="3"/>
<path opacity="0.0808081" d="M177.738 337.485C172.915 331.084 172.761 322.306 177.358 315.74L343.081 79.0629C347.678 72.4978 355.98 69.6392 363.644 71.9823L639.95 156.457C647.614 158.8 652.898 165.813 653.038 173.826L658.081 462.712C658.22 470.725 653.184 477.918 645.606 480.527L372.417 574.593C364.839 577.202 356.443 574.635 351.62 568.235L177.738 337.485Z" stroke="url(#paint7_linear_1069_1708)" stroke-opacity="0.1" stroke-width="3"/>
<path opacity="0.0909091" d="M175.009 333.936C170.298 327.452 170.298 318.672 175.009 312.188L344.492 78.9146C349.203 72.4306 357.553 69.7172 365.176 72.1938L639.405 161.296C647.028 163.773 652.188 170.876 652.188 178.891V467.233C652.188 475.248 647.028 482.351 639.405 484.828L365.176 573.93C357.553 576.407 349.203 573.693 344.492 567.209L175.009 333.936Z" stroke="url(#paint8_linear_1069_1708)" stroke-opacity="0.1" stroke-width="3"/>
<path opacity="0.10101" d="M172.358 330.401C167.761 323.835 167.915 315.057 172.738 308.656L345.913 78.8453C350.736 72.4445 359.132 69.8772 366.71 72.4866L638.788 166.17C646.366 168.78 651.402 175.972 651.262 183.985L646.24 471.695C646.1 479.709 640.816 486.721 633.152 489.064L357.971 573.195C350.306 575.539 342.004 572.68 337.407 566.115L172.358 330.401Z" stroke="url(#paint9_linear_1069_1708)" stroke-opacity="0.1" stroke-width="3"/>
<path opacity="0.111111" d="M169.787 326.882C165.305 320.237 165.612 311.463 170.546 305.147L347.343 78.8562C352.278 72.5407 360.718 70.1213 368.249 72.8624L638.098 171.079C645.629 173.82 650.539 181.1 650.259 189.109L640.237 476.1C639.958 484.11 634.552 491.029 626.848 493.238L350.805 572.392C343.101 574.601 334.85 571.599 330.368 564.954L169.787 326.882Z" stroke="url(#paint10_linear_1069_1708)" stroke-opacity="0.1" stroke-width="3"/>
<path opacity="0.121212" d="M167.294 323.379C162.929 316.657 163.388 307.889 168.432 301.661L348.782 78.9464C353.825 72.718 362.306 70.4463 369.788 73.3184L637.333 176.019C644.815 178.891 649.597 186.255 649.178 194.259L634.179 480.444C633.76 488.448 628.235 495.271 620.493 497.346L343.679 571.517C335.937 573.592 327.741 570.446 323.375 563.724L167.294 323.379Z" stroke="url(#paint11_linear_1069_1708)" stroke-opacity="0.1" stroke-width="3"/>
<path opacity="0.131313" d="M164.879 319.895C160.632 313.098 161.245 304.34 166.396 298.2L350.227 79.1178C355.379 72.9782 363.899 70.8549 371.33 73.8573L636.496 180.991C643.927 183.994 648.58 191.44 648.021 199.435L628.071 484.728C627.512 492.724 621.868 499.45 614.091 501.389L336.596 570.576C328.819 572.515 320.678 569.227 316.431 562.43L164.879 319.895Z" stroke="url(#paint12_linear_1069_1708)" stroke-opacity="0.1" stroke-width="3"/>
<path opacity="0.141414" d="M162.542 316.431C158.414 309.561 159.179 300.814 164.437 294.765L351.679 79.3685C356.937 73.32 365.492 71.3455 372.869 74.477L635.584 185.993C642.962 189.124 647.484 196.65 646.785 204.634L621.911 488.952C621.212 496.936 615.452 503.562 607.643 505.365L329.554 569.567C321.745 571.37 313.663 567.939 309.535 561.069L162.542 316.431Z" stroke="url(#paint13_linear_1069_1708)" stroke-opacity="0.1" stroke-width="3"/>
<path opacity="0.151515" d="M160.282 312.987C156.274 306.046 157.192 297.314 162.555 291.358L353.133 79.6983C358.496 73.7424 367.085 71.9166 374.406 75.1764L634.598 191.022C641.92 194.282 646.31 201.885 645.473 209.856L615.701 493.112C614.863 501.082 608.988 507.607 601.149 509.273L322.557 568.49C314.717 570.157 306.696 566.585 302.689 559.644L160.282 312.987Z" stroke="url(#paint14_linear_1069_1708)" stroke-opacity="0.1" stroke-width="3"/>
<path opacity="0.161616" d="M158.097 309.565C154.212 302.556 155.282 293.841 160.748 287.979L354.59 80.1082C360.056 74.2467 368.675 72.5713 375.939 75.9583L633.537 196.079C640.8 199.466 645.057 207.145 644.081 215.099L609.442 497.209C608.465 505.164 602.477 511.585 594.61 513.114L315.604 567.348C307.736 568.877 299.779 565.166 295.893 558.157L158.097 309.565Z" stroke="url(#paint15_linear_1069_1708)" stroke-opacity="0.1" stroke-width="3"/>
<path opacity="0.171717" d="M155.989 306.168C152.226 299.092 153.448 290.397 159.016 284.632L356.048 80.5979C361.615 74.8328 370.262 73.3081 377.466 76.8212L632.4 201.161C639.603 204.674 643.725 212.427 642.61 220.363L603.135 501.244C602.019 509.18 595.92 515.496 588.027 516.888L308.696 566.141C300.803 567.533 292.912 563.684 289.149 556.607L155.989 306.168Z" stroke="url(#paint16_linear_1069_1708)" stroke-opacity="0.1" stroke-width="3"/>
<path opacity="0.181818" d="M153.956 302.795C150.318 295.654 151.691 286.982 157.358 281.315L357.507 81.1666C363.174 75.4996 371.846 74.1257 378.987 77.7643L631.188 206.267C638.329 209.906 642.315 217.729 641.061 225.645L596.782 505.213C595.528 513.129 589.32 519.337 581.404 520.591L301.837 564.87C293.921 566.124 286.098 562.138 282.459 554.997L153.956 302.795Z" stroke="url(#paint17_linear_1069_1708)" stroke-opacity="0.1" stroke-width="3"/>
<path opacity="0.191919" d="M151.998 299.449C148.484 292.245 150.009 283.599 155.774 278.031L358.962 81.8147C364.728 76.2473 373.422 75.0251 380.499 78.7878L629.9 211.397C636.976 215.159 640.825 223.051 639.434 230.944L590.384 509.117C588.992 517.01 582.677 523.11 574.74 524.225L295.024 563.536C287.088 564.652 279.335 560.53 275.822 553.326L151.998 299.449Z" stroke="url(#paint18_linear_1069_1708)" stroke-opacity="0.1" stroke-width="3"/>
<path opacity="0.20202" d="M150.114 296.128C146.727 288.864 148.402 280.246 154.264 274.78L360.415 82.5401C366.277 77.0741 374.991 76.004 382.001 79.8895L628.537 216.546C635.546 220.432 639.257 228.389 637.728 236.257L583.943 512.955C582.414 520.822 575.992 526.81 568.037 527.787L288.261 562.139C280.307 563.116 272.627 558.859 269.24 551.595L150.114 296.128Z" stroke="url(#paint19_linear_1069_1708)" stroke-opacity="0.1" stroke-width="3"/>
<path opacity="0.212121" d="M148.304 292.838C145.044 285.517 146.869 276.928 152.826 271.566L361.863 83.3465C367.819 77.9837 376.551 77.0659 383.492 81.0731L627.095 221.717C634.036 225.725 637.608 233.746 635.941 241.585L577.458 516.728C575.792 524.567 569.267 530.442 561.296 531.28L281.548 560.683C273.577 561.52 265.974 557.13 262.714 549.808L148.304 292.838Z" stroke="url(#paint20_linear_1069_1708)" stroke-opacity="0.1" stroke-width="3"/>
<path opacity="0.222222" d="M146.566 289.577C143.434 282.199 145.409 273.644 151.458 268.386L363.305 84.2297C369.354 78.9717 378.1 78.2065 384.97 82.3341L625.578 226.906C632.448 231.034 635.879 239.116 634.076 246.925L570.932 520.432C569.129 528.241 562.503 534.002 554.519 534.7L274.885 559.165C266.901 559.863 259.375 555.341 256.244 547.963L146.566 289.577Z" stroke="url(#paint21_linear_1069_1708)" stroke-opacity="0.1" stroke-width="3"/>
<path opacity="0.232323" d="M144.9 286.348C141.898 278.917 144.022 270.397 150.162 265.246L364.741 85.1925C370.88 80.0408 379.639 79.4281 386.436 83.6752L623.985 232.112C630.782 236.36 634.071 244.5 632.132 252.277L564.367 524.07C562.428 531.846 555.702 537.49 547.707 538.049L268.276 557.589C260.281 558.148 252.835 553.495 249.833 546.064L144.9 286.348Z" stroke="url(#paint22_linear_1069_1708)" stroke-opacity="0.1" stroke-width="3"/>
<path opacity="0.242424" d="M143.306 283.151C140.434 275.669 142.707 267.188 148.935 262.144L366.167 86.233C372.396 81.1892 381.164 80.7295 387.885 85.0946L622.315 237.335C629.037 241.7 632.184 249.897 630.109 257.639L557.763 527.64C555.688 535.381 548.865 540.907 540.861 541.326L261.719 555.955C253.715 556.375 246.351 551.593 243.479 544.11L143.306 283.151Z" stroke="url(#paint23_linear_1069_1708)" stroke-opacity="0.1" stroke-width="3"/>
<path opacity="0.252525" d="M141.783 279.987C139.042 272.455 141.462 264.016 147.778 259.081L367.583 87.3503C373.899 82.4159 382.674 82.1094 389.318 86.5911L620.569 242.571C627.213 247.053 630.216 255.304 628.007 263.008L551.121 531.14C548.912 538.844 541.993 544.249 533.983 544.529L255.215 554.264C247.205 554.543 239.926 549.633 237.185 542.102L141.783 279.987Z" stroke="url(#paint24_linear_1069_1708)" stroke-opacity="0.1" stroke-width="3"/>
<path opacity="0.262626" d="M140.329 276.857C137.72 269.279 140.287 260.883 146.688 256.06L368.987 88.5446C375.388 83.7213 384.167 83.568 390.732 88.1649L618.743 247.82C625.308 252.417 628.167 260.719 625.823 268.383L544.442 534.57C542.099 542.235 535.086 547.519 527.073 547.659L248.765 552.516C240.752 552.656 233.56 547.62 230.951 540.042L140.329 276.857Z" stroke="url(#paint25_linear_1069_1708)" stroke-opacity="0.1" stroke-width="3"/>
<path opacity="0.272727" d="M138.945 273.765C136.468 266.142 139.182 257.792 145.666 253.081L370.38 89.8162C376.864 85.1056 385.644 85.1061 392.128 89.8169L616.842 253.081C623.326 257.792 626.039 266.142 623.562 273.765L537.729 537.932C535.253 545.554 528.149 550.715 520.135 550.715L242.373 550.715C234.358 550.715 227.255 545.554 224.779 537.932L138.945 273.765Z" stroke="url(#paint26_linear_1069_1708)" stroke-opacity="0.1" stroke-width="3"/>
<path opacity="0.282828" d="M137.629 270.709C135.286 263.044 138.145 254.743 144.71 250.146L371.758 91.1646C378.323 86.5679 387.102 86.7217 393.502 91.5449L614.864 258.352C621.264 263.176 623.831 271.572 621.222 279.15L530.983 541.223C528.374 548.801 521.182 553.837 513.168 553.698L236.036 548.86C228.023 548.72 221.011 543.437 218.667 535.773L137.629 270.709Z" stroke="url(#paint27_linear_1069_1708)" stroke-opacity="0.1" stroke-width="3"/>
<path opacity="0.292929" d="M136.381 267.692C134.172 259.988 137.175 251.737 143.82 247.256L373.12 92.5898C379.765 88.1083 388.539 88.4153 394.855 93.3495L612.808 263.633C619.124 268.568 621.544 277.008 618.803 284.539L524.205 544.445C521.464 551.976 514.185 556.886 506.175 556.606L229.757 546.953C221.747 546.673 214.828 541.268 212.619 533.564L136.381 267.692Z" stroke="url(#paint28_linear_1069_1708)" stroke-opacity="0.1" stroke-width="3"/>
<path opacity="0.30303" d="M135.2 264.713C133.125 256.971 136.272 248.775 142.994 244.41L374.465 94.0893C381.187 89.7243 389.955 90.1845 396.183 95.2282L610.674 268.92C616.903 273.963 619.175 282.444 616.303 289.927L517.394 547.593C514.522 555.076 507.159 559.858 499.155 559.438L223.535 544.993C215.531 544.574 208.707 539.049 206.633 531.308L135.2 264.713Z" stroke="url(#paint29_linear_1069_1708)" stroke-opacity="0.1" stroke-width="3"/>
<path opacity="0.313131" d="M134.084 261.776C132.145 253.999 135.434 245.859 142.231 241.612L375.792 95.6654C382.589 91.4184 391.348 92.0309 397.487 97.1823L608.464 274.214C614.604 279.366 616.728 287.885 613.726 295.316L510.555 550.672C507.553 558.103 500.107 562.756 492.112 562.197L217.371 542.986C209.376 542.426 202.65 536.783 200.711 529.006L134.084 261.776Z" stroke="url(#paint30_linear_1069_1708)" stroke-opacity="0.1" stroke-width="3"/>
<path opacity="0.323232" d="M133.034 258.879C131.231 251.07 134.662 242.988 141.532 238.86L377.101 97.3151C383.971 93.1875 392.718 93.9524 398.767 99.2104L606.178 279.511C612.226 284.769 614.202 293.324 611.07 300.701L503.688 553.677C500.557 561.055 493.031 565.577 485.046 564.878L211.269 540.927C203.285 540.228 196.659 534.468 194.856 526.659L133.034 258.879Z" stroke="url(#paint31_linear_1069_1708)" stroke-opacity="0.1" stroke-width="3"/>
<path opacity="0.333333" d="M132.048 256.026C130.381 248.186 133.953 240.165 140.894 236.158L378.388 99.0399C385.329 95.0327 394.061 95.9502 400.017 101.313L603.814 284.813C609.77 290.176 611.595 298.764 608.336 306.085L496.794 556.612C493.534 563.934 485.93 568.323 477.96 567.486L205.226 538.821C197.255 537.983 190.731 532.108 189.064 524.269L132.048 256.026Z" stroke="url(#paint32_linear_1069_1708)" stroke-opacity="0.1" stroke-width="3"/>
<path opacity="0.343434" d="M131.125 253.215C129.595 245.348 133.306 237.391 140.316 233.505L379.653 100.838C386.663 96.9521 395.378 98.022 401.239 103.488L601.373 290.116C607.234 295.582 608.91 304.2 605.523 311.464L489.874 559.473C486.487 566.737 478.808 570.993 470.853 570.016L199.244 536.668C191.289 535.691 184.868 529.703 183.339 521.835L131.125 253.215Z" stroke="url(#paint33_linear_1069_1708)" stroke-opacity="0.1" stroke-width="3"/>
<path opacity="0.353535" d="M130.265 250.451C128.873 242.558 132.722 234.666 139.798 230.904L380.895 102.71C387.972 98.947 396.667 100.169 402.432 105.736L598.854 295.42C604.62 300.988 606.145 309.634 602.631 316.837L482.929 562.262C479.416 569.466 471.664 573.587 463.727 572.472L193.325 534.47C185.388 533.354 179.072 527.255 177.681 519.362L130.265 250.451Z" stroke="url(#paint34_linear_1069_1708)" stroke-opacity="0.1" stroke-width="3"/>
<path opacity="0.363636" d="M129.465 247.731C128.211 239.815 132.197 231.992 139.339 228.353L382.112 104.653C389.254 101.015 397.926 102.388 403.594 108.056L596.26 300.722C601.927 306.389 603.301 315.061 599.662 322.202L475.962 564.977C472.323 572.118 464.5 576.105 456.584 574.851L187.468 532.227C179.551 530.973 173.342 524.764 172.089 516.848L129.465 247.731Z" stroke="url(#paint35_linear_1069_1708)" stroke-opacity="0.1" stroke-width="3"/>
<path opacity="0.373737" d="M128.727 245.059C127.611 237.122 131.733 229.37 138.937 225.856L383.305 106.67C390.509 103.157 399.155 104.681 404.723 110.447L593.589 306.023C599.157 311.789 600.379 320.484 596.616 327.56L468.974 567.62C465.211 574.696 457.32 578.546 449.427 577.154L181.673 529.942C173.78 528.55 167.681 522.234 166.566 514.297L128.727 245.059Z" stroke="url(#paint36_linear_1069_1708)" stroke-opacity="0.1" stroke-width="3"/>
<path opacity="0.383838" d="M128.049 242.433C127.072 234.478 131.329 226.799 138.592 223.412L384.47 108.757C391.734 105.37 400.353 107.045 405.819 112.907L590.843 311.32C596.309 317.182 597.379 325.897 593.493 332.906L461.966 570.188C458.08 577.198 450.123 580.908 442.255 579.379L175.943 527.613C168.076 526.084 162.088 519.662 161.111 511.707L128.049 242.433Z" stroke="url(#paint37_linear_1069_1708)" stroke-opacity="0.1" stroke-width="3"/>
<path opacity="0.393939" d="M127.428 239.857C126.59 231.886 130.98 224.283 138.302 221.023L385.606 110.915C392.928 107.656 401.516 109.481 406.879 115.437L588.019 316.613C593.382 322.569 594.3 331.301 590.293 338.242L454.938 572.683C450.931 579.624 442.91 583.195 435.07 581.529L170.277 525.245C162.437 523.578 156.562 517.053 155.724 509.082L127.428 239.857Z" stroke="url(#paint38_linear_1069_1708)" stroke-opacity="0.1" stroke-width="3"/>
<path opacity="0.40404" d="M126.866 237.329C126.167 229.345 130.689 221.819 138.067 218.688L386.714 113.143C394.091 110.011 402.646 111.986 407.904 118.035L585.12 321.897C590.378 327.946 591.143 336.693 587.015 343.563L447.893 575.102C443.765 581.972 435.683 585.403 427.873 583.6L164.676 522.835C156.866 521.032 151.106 514.406 150.408 506.422L126.866 237.329Z" stroke="url(#paint39_linear_1069_1708)" stroke-opacity="0.1" stroke-width="3"/>
<path opacity="0.414141" d="M126.36 234.853C125.801 226.858 130.453 219.412 137.884 216.41L387.791 115.441C395.222 112.439 403.742 114.563 408.893 120.703L582.146 327.177C587.297 333.316 587.91 342.075 583.663 348.872L440.832 577.449C436.585 584.246 428.444 587.535 420.667 585.596L159.141 520.39C151.364 518.451 145.721 511.725 145.162 503.73L126.36 234.853Z" stroke="url(#paint40_linear_1069_1708)" stroke-opacity="0.1" stroke-width="3"/>
<path opacity="0.424242" d="M125.91 232.429C125.49 224.425 130.272 217.061 137.755 214.189L388.836 117.808C396.319 114.936 404.8 117.208 409.843 123.437L579.096 332.446C584.14 338.675 584.6 347.443 580.235 354.165L433.756 579.721C429.391 586.443 421.194 589.59 413.453 587.515L153.672 517.907C145.93 515.832 140.405 509.009 139.985 501.005L125.91 232.429Z" stroke="url(#paint41_linear_1069_1708)" stroke-opacity="0.1" stroke-width="3"/>
<path opacity="0.434343" d="M125.514 230.056C125.234 222.046 130.144 214.767 137.675 212.026L389.848 120.242C397.379 117.501 405.819 119.921 410.754 126.237L575.972 337.705C580.906 344.021 581.212 352.796 576.731 359.44L426.667 581.919C422.185 588.563 413.935 591.566 406.23 589.357L148.268 515.387C140.564 513.178 135.159 506.259 134.879 498.249L125.514 230.056Z" stroke="url(#paint42_linear_1069_1708)" stroke-opacity="0.1" stroke-width="3"/>
<path opacity="0.444444" d="M125.172 227.737C125.032 219.723 130.068 212.531 137.646 209.922L390.827 122.744C398.405 120.134 406.801 122.702 411.624 129.103L572.772 342.953C577.596 349.354 577.749 358.133 573.152 364.698L419.565 584.042C414.968 590.607 406.667 593.466 399.002 591.122L142.933 512.834C135.268 510.491 129.984 503.478 129.845 495.465L125.172 227.737Z" stroke="url(#paint43_linear_1069_1708)" stroke-opacity="0.1" stroke-width="3"/>
<path opacity="0.454545" d="M124.882 225.472C124.882 217.457 130.043 210.354 137.665 207.877L391.77 125.313C399.392 122.836 407.742 125.55 412.453 132.034L569.499 348.188C574.21 354.672 574.21 363.453 569.499 369.937L412.454 586.091C407.743 592.575 399.392 595.288 391.77 592.812L137.665 510.248C130.042 507.771 124.881 500.668 124.881 492.654L124.882 225.472Z" stroke="url(#paint44_linear_1069_1708)" stroke-opacity="0.1" stroke-width="3"/>
<path opacity="0.464646" d="M124.643 223.261C124.783 215.248 130.067 208.236 137.732 205.892L392.677 127.948C400.342 125.604 408.643 128.463 413.24 135.029L566.152 353.409C570.749 359.975 570.596 368.753 565.773 375.154L405.332 588.066C400.509 594.466 392.113 597.033 384.535 594.424L132.465 507.629C124.887 505.02 119.851 497.828 119.991 489.815L124.643 223.261Z" stroke="url(#paint45_linear_1069_1708)" stroke-opacity="0.1" stroke-width="3"/>
<path opacity="0.474747" d="M124.455 221.106C124.735 213.096 130.141 206.177 137.845 203.968L393.547 130.646C401.251 128.437 409.501 131.441 413.983 138.085L562.732 358.614C567.214 365.259 566.907 374.034 561.973 380.349L398.203 589.965C393.269 596.28 384.829 598.701 377.298 595.959L127.333 504.98C119.802 502.238 114.892 494.96 115.172 486.95L124.455 221.106Z" stroke="url(#paint46_linear_1069_1708)" stroke-opacity="0.1" stroke-width="3"/>
<path opacity="0.484848" d="M124.317 219.007C124.736 211.003 130.261 204.18 138.003 202.105L394.378 133.41C402.119 131.335 410.316 134.482 414.681 141.203L559.239 363.803C563.604 370.524 563.144 379.293 558.1 385.521L391.067 591.79C386.024 598.018 377.543 600.291 370.06 597.419L122.27 502.301C114.788 499.429 110.006 492.065 110.425 484.062L124.317 219.007Z" stroke="url(#paint47_linear_1069_1708)" stroke-opacity="0.1" stroke-width="3"/>
<path opacity="0.494949" d="M124.226 216.965C124.785 208.97 130.429 202.244 138.205 200.305L395.169 136.236C402.946 134.297 411.086 137.586 415.334 144.383L555.672 368.972C559.919 375.769 559.307 384.528 554.155 390.668L383.926 593.539C378.774 599.679 370.255 601.803 362.823 598.801L117.276 499.594C109.845 496.591 105.192 489.145 105.752 481.15L124.226 216.965Z" stroke="url(#paint48_linear_1069_1708)" stroke-opacity="0.1" stroke-width="3"/>
<path opacity="0.50505" d="M124.182 214.982C124.88 206.998 130.641 200.371 138.45 198.568L395.921 139.126C403.73 137.324 411.812 140.754 415.94 147.624L552.034 374.125C556.162 380.995 555.397 389.741 550.139 395.79L376.78 595.216C371.522 601.265 362.967 603.24 355.59 600.109L112.353 496.861C104.975 493.73 100.453 486.204 101.152 478.22L124.182 214.982Z" stroke="url(#paint49_linear_1069_1708)" stroke-opacity="0.1" stroke-width="3"/>
<path opacity="0.515152" d="M124.184 213.057C125.022 205.086 130.897 198.561 138.736 196.895L396.63 142.078C404.469 140.412 412.491 143.983 416.498 150.923L548.325 379.256C552.332 386.197 551.415 394.928 546.052 400.884L369.632 596.819C364.269 602.775 355.681 604.6 348.36 601.34L107.498 494.102C100.176 490.843 95.7866 483.239 96.6242 475.268L124.184 213.057Z" stroke="url(#paint50_linear_1069_1708)" stroke-opacity="0.1" stroke-width="3"/>
<path opacity="0.525253" d="M124.23 211.191C125.207 203.236 131.195 196.815 139.063 195.285L397.297 145.089C405.164 143.56 413.122 147.271 417.007 154.28L544.545 384.365C548.43 391.375 547.36 400.089 541.895 405.95L362.483 598.347C357.017 604.208 348.398 605.883 341.135 602.496L102.714 491.319C95.4501 487.932 91.1936 480.252 92.1703 472.297L124.23 211.191Z" stroke="url(#paint51_linear_1069_1708)" stroke-opacity="0.1" stroke-width="3"/>
<path opacity="0.535354" d="M124.321 209.385C125.436 201.449 131.535 195.133 139.428 193.741L397.92 148.162C405.813 146.77 413.704 150.619 417.467 157.695L540.694 389.452C544.456 396.528 543.235 405.223 537.668 410.988L355.333 599.8C349.766 605.565 341.12 607.089 333.916 603.576L98.0001 488.513C90.7967 484.999 86.6748 477.247 87.7902 469.31L124.321 209.385Z" stroke="url(#paint52_linear_1069_1708)" stroke-opacity="0.1" stroke-width="3"/>
<path opacity="0.545455" d="M124.453 207.64C125.707 199.724 131.916 193.515 139.832 192.262L398.499 151.292C406.415 150.039 414.238 154.025 417.877 161.166L536.773 394.513C540.412 401.654 539.038 410.326 533.371 415.993L348.185 601.179C342.518 606.846 333.846 608.22 326.705 604.582L93.3573 485.685C86.2164 482.046 82.2303 474.223 83.484 466.307L124.453 207.64Z" stroke="url(#paint53_linear_1069_1708)" stroke-opacity="0.1" stroke-width="3"/>
<path opacity="0.555556" d="M124.627 205.956C126.019 198.063 132.335 191.963 140.271 190.848L399.033 154.482C406.969 153.366 414.722 157.488 418.235 164.692L532.783 399.55C536.297 406.753 534.772 415.4 529.007 420.967L341.04 602.485C335.275 608.052 326.58 609.274 319.503 605.512L88.7859 482.837C81.7094 479.074 77.8607 471.183 79.2524 463.29L124.627 205.956Z" stroke="url(#paint54_linear_1069_1708)" stroke-opacity="0.1" stroke-width="3"/>
<path opacity="0.565657" d="M124.841 204.334C126.37 196.466 132.792 190.478 140.747 189.502L399.519 157.728C407.474 156.752 415.154 161.008 418.541 168.272L528.725 404.561C532.112 411.825 530.436 420.443 524.575 425.909L333.899 603.718C328.037 609.184 319.322 610.254 312.312 606.368L84.285 479.97C77.2752 476.085 73.5648 468.127 75.094 460.26L124.841 204.334Z" stroke="url(#paint55_linear_1069_1708)" stroke-opacity="0.1" stroke-width="3"/>
<path opacity="0.575758" d="M125.094 202.773C126.76 194.934 133.285 189.059 141.256 188.221L399.959 161.03C407.93 160.192 415.534 164.582 418.794 171.904L524.598 409.543C527.858 416.865 526.032 425.453 520.076 430.816L326.763 604.876C320.807 610.239 312.075 611.157 305.134 607.15L79.8557 477.085C72.9148 473.078 69.3437 465.057 71.0101 457.217L125.094 202.773Z" stroke="url(#paint56_linear_1069_1708)" stroke-opacity="0.1" stroke-width="3"/>
<path opacity="0.585859" d="M125.384 201.277C127.187 193.468 133.814 187.707 141.798 187.009L400.35 164.388C408.335 163.69 415.861 168.212 418.992 175.589L520.403 414.497C523.535 421.875 521.56 430.43 515.511 435.688L319.633 605.962C313.584 611.22 304.837 611.986 297.967 607.858L75.4978 474.184C68.628 470.056 65.1974 461.974 67.0003 454.165L125.384 201.277Z" stroke="url(#paint57_linear_1069_1708)" stroke-opacity="0.1" stroke-width="3"/>
<path opacity="0.59596" d="M125.711 199.843C127.65 192.067 134.376 186.423 142.371 185.864L400.693 167.8C408.688 167.241 416.134 171.893 419.136 179.324L516.142 419.421C519.144 426.852 517.02 435.372 510.881 440.524L312.511 606.975C306.371 612.127 297.613 612.74 290.816 608.493L71.2112 471.268C64.4146 467.021 61.1255 458.88 63.0644 451.103L125.711 199.843Z" stroke="url(#paint58_linear_1069_1708)" stroke-opacity="0.1" stroke-width="3"/>
<path opacity="0.606061" d="M126.073 198.474C128.148 190.732 134.971 185.207 142.975 184.787L400.986 171.266C408.989 170.846 416.353 175.628 419.225 183.111L511.815 424.315C514.688 431.797 512.415 440.278 506.186 445.322L305.399 607.916C299.17 612.96 290.402 613.42 283.68 609.055L66.9976 468.339C60.2759 463.974 57.1296 455.777 59.2039 448.035L126.073 198.474Z" stroke="url(#paint59_linear_1069_1708)" stroke-opacity="0.1" stroke-width="3"/>
<path opacity="0.616162" d="M126.469 197.169C128.678 189.464 135.597 184.059 143.607 183.779L401.228 174.782C409.237 174.503 416.516 179.413 419.257 186.944L507.423 429.176C510.164 436.707 507.743 445.147 501.428 450.081L298.297 608.785C291.981 613.719 283.206 614.026 276.562 609.544L62.8545 465.396C56.2101 460.915 53.2073 452.664 55.4164 444.96L126.469 197.169Z" stroke="url(#paint60_linear_1069_1708)" stroke-opacity="0.1" stroke-width="3"/>
<path opacity="0.626263" d="M126.898 195.929C129.241 188.265 136.253 182.981 144.267 182.841L401.418 178.352C409.431 178.212 416.623 183.248 419.232 190.826L502.965 434.004C505.574 441.582 503.007 449.979 496.607 454.802L291.206 609.582C284.805 614.406 276.026 614.559 269.461 609.962L58.7836 462.443C52.2185 457.846 49.3594 449.545 51.7025 441.881L126.898 195.929Z" stroke="url(#paint61_linear_1069_1708)" stroke-opacity="0.1" stroke-width="3"/>
<path opacity="0.636364" d="M127.359 194.755C129.835 187.132 136.939 181.972 144.953 181.972L401.555 181.971C409.57 181.971 416.672 187.132 419.149 194.755L498.444 438.797C500.92 446.42 498.207 454.77 491.723 459.481L284.128 610.308C277.644 615.019 268.864 615.019 262.38 610.308L54.7848 459.481C48.3009 454.77 45.587 446.42 48.0636 438.797L127.359 194.755Z" stroke="url(#paint62_linear_1069_1708)" stroke-opacity="0.1" stroke-width="3"/>
<path opacity="0.646465" d="M127.849 193.646C130.458 186.068 137.651 181.032 145.664 181.172L401.64 185.64C409.653 185.78 416.664 191.064 419.008 198.728L493.859 443.555C496.202 451.22 493.344 459.521 486.778 464.118L277.064 610.962C270.499 615.559 261.72 615.406 255.319 610.582L50.858 456.509C44.4574 451.686 41.8898 443.29 44.4989 435.712L127.849 193.646Z" stroke="url(#paint63_linear_1069_1708)" stroke-opacity="0.1" stroke-width="3"/>
<path opacity="0.656566" d="M128.369 192.603C131.11 185.072 138.389 180.162 146.399 180.442L401.67 189.356C409.679 189.636 416.598 195.041 418.807 202.745L489.212 448.277C491.421 455.981 488.418 464.232 481.774 468.714L270.016 611.546C263.372 616.028 254.597 615.721 248.281 610.787L47.0019 453.531C40.6863 448.597 38.2665 440.157 41.0075 432.626L128.369 192.603Z" stroke="url(#paint64_linear_1069_1708)" stroke-opacity="0.1" stroke-width="3"/>
<path opacity="0.666667" d="M128.917 191.626C131.789 184.144 139.152 179.362 147.156 179.782L401.645 193.118C409.649 193.538 416.473 199.063 418.547 206.805L484.504 452.961C486.578 460.702 483.431 468.899 476.71 473.264L262.985 612.059C256.263 616.424 247.495 615.964 241.266 610.921L43.219 450.546C36.9905 445.502 34.7183 437.021 37.5904 429.539L128.917 191.626Z" stroke="url(#paint65_linear_1069_1708)" stroke-opacity="0.1" stroke-width="3"/>
<path opacity="0.676768" d="M129.491 190.717C132.493 183.286 139.939 178.634 147.934 179.193L401.565 196.928C409.56 197.487 416.287 203.131 418.226 210.907L479.734 457.606C481.673 465.382 478.384 473.523 471.587 477.77L255.97 612.502C249.174 616.749 240.415 616.137 234.275 610.985L39.5075 447.556C33.3681 442.405 31.244 433.885 34.2463 426.454L129.491 190.717Z" stroke="url(#paint66_linear_1069_1708)" stroke-opacity="0.1" stroke-width="3"/>
<path opacity="0.686869" d="M130.09 189.875C133.222 182.498 140.748 177.976 148.732 178.674L401.429 200.782C409.413 201.48 416.04 207.241 417.843 215.05L474.904 462.212C476.707 470.021 473.277 478.103 466.407 482.231L248.976 612.877C242.106 617.004 233.359 616.239 227.31 610.981L35.8679 444.563C29.8194 439.305 27.8443 430.75 30.9758 423.373L130.09 189.875Z" stroke="url(#paint67_linear_1069_1708)" stroke-opacity="0.1" stroke-width="3"/>
<path opacity="0.69697" d="M130.714 189.1C133.974 181.779 141.578 177.389 149.548 178.226L401.237 204.68C409.208 205.518 415.733 211.393 417.399 219.232L470.016 466.777C471.682 474.616 468.112 482.637 461.171 486.644L242.001 613.182C235.061 617.189 226.328 616.272 220.372 610.909L32.3006 441.569C26.3446 436.206 24.5194 427.618 27.7791 420.296L130.714 189.1Z" stroke="url(#paint68_linear_1069_1708)" stroke-opacity="0.1" stroke-width="3"/>
<path opacity="0.707071" d="M131.36 188.394C134.748 181.131 142.427 176.874 150.382 177.851L400.987 208.621C408.942 209.598 415.363 215.586 416.893 223.453L465.069 471.302C466.598 479.169 462.888 487.126 455.879 491.012L235.048 613.421C228.038 617.306 219.324 616.236 213.462 610.77L28.8041 438.574C22.9426 433.108 21.2675 424.489 24.6546 417.226L131.36 188.394Z" stroke="url(#paint69_linear_1069_1708)" stroke-opacity="0.1" stroke-width="3"/>
<path opacity="0.717172" d="M132.028 187.755C135.542 180.552 143.294 176.43 151.231 177.545L400.679 212.602C408.615 213.718 414.931 219.817 416.323 227.71L460.065 475.783C461.456 483.676 457.608 491.567 450.532 495.33L228.117 613.59C221.041 617.352 212.346 616.13 206.581 610.563L25.379 435.578C19.6138 430.011 18.0893 421.364 21.6027 414.161L132.028 187.755Z" stroke="url(#paint70_linear_1069_1708)" stroke-opacity="0.1" stroke-width="3"/>
<path opacity="0.727273" d="M132.717 187.185C136.355 180.044 144.178 176.058 152.094 177.312L400.312 216.625C408.227 217.879 414.436 224.087 415.69 232.003L455.003 480.221C456.257 488.137 452.272 495.96 445.131 499.598L221.209 613.692C214.068 617.33 205.397 615.957 199.73 610.289L22.0251 432.585C16.3581 426.918 14.9846 418.246 18.6232 411.105L132.717 187.185Z" stroke="url(#paint71_linear_1069_1708)" stroke-opacity="0.1" stroke-width="3"/>
<path opacity="0.737374" d="M133.425 186.683C137.187 179.607 145.079 175.758 152.972 177.149L399.886 220.687C407.779 222.079 413.879 228.395 414.994 236.332L449.888 484.615C451.004 492.551 446.881 500.304 439.678 503.817L214.328 613.728C207.125 617.241 198.478 615.717 192.91 609.951L18.7435 429.596C13.176 423.831 11.9538 415.135 15.7165 408.059L133.425 186.683Z" stroke="url(#paint72_linear_1069_1708)" stroke-opacity="0.1" stroke-width="3"/>
<path opacity="0.747475" d="M134.149 186.251C138.035 179.241 145.992 175.53 153.86 177.06L399.4 224.788C407.267 226.317 413.256 232.738 414.232 240.693L444.717 488.965C445.693 496.92 441.436 504.599 434.173 507.986L207.472 613.698C200.208 617.085 191.589 615.41 186.123 609.549L15.5312 426.611C10.0652 420.749 8.9954 412.034 12.881 405.025L134.149 186.251Z" stroke="url(#paint73_linear_1069_1708)" stroke-opacity="0.1" stroke-width="3"/>
<path opacity="0.757576" d="M134.891 185.886C138.898 178.945 146.919 175.373 154.759 177.04L398.853 228.924C406.693 230.59 412.568 237.115 413.406 245.086L439.491 493.267C440.329 501.238 435.939 508.842 428.617 512.102L200.643 613.602C193.321 616.862 184.733 615.037 179.37 609.081L12.3897 423.629C7.02687 417.673 6.10928 408.941 10.1166 402.001L134.891 185.886Z" stroke="url(#paint74_linear_1069_1708)" stroke-opacity="0.1" stroke-width="3"/>
<path opacity="0.767677" d="M135.648 185.59C139.776 178.72 147.858 175.29 155.667 177.093L398.246 233.096C406.056 234.899 411.816 241.526 412.515 249.51L434.214 497.524C434.912 505.508 430.39 513.034 423.012 516.165L193.843 613.442C186.465 616.574 177.91 614.598 172.652 608.55L9.31901 420.656C4.06097 414.607 3.29588 405.861 7.42373 398.991L135.648 185.59Z" stroke="url(#paint75_linear_1069_1708)" stroke-opacity="0.1" stroke-width="3"/>
<path opacity="0.777778" d="M136.419 185.365C140.666 178.568 148.806 175.279 156.583 177.218L397.578 237.304C405.354 239.243 410.998 245.969 411.557 253.964L428.883 501.732C429.442 509.727 424.789 517.173 417.358 520.175L187.071 613.217C179.64 616.22 171.12 614.096 165.969 607.956L6.31808 417.691C1.16651 411.552 0.554113 402.793 4.8012 395.996L136.419 185.365Z" stroke="url(#paint76_linear_1069_1708)" stroke-opacity="0.1" stroke-width="3"/>
<path opacity="0.787879" d="M137.202 185.208C141.567 178.487 149.764 175.34 157.506 177.415L396.848 241.546C404.59 243.62 410.115 250.444 410.534 258.448L423.502 505.893C423.922 513.896 419.14 521.26 411.657 524.132L180.33 612.93C172.848 615.803 164.367 613.53 159.323 607.302L3.38729 414.737C-1.65638 408.508 -2.11639 399.74 2.24836 393.019L137.202 185.208Z" stroke="url(#paint77_linear_1069_1708)" stroke-opacity="0.1" stroke-width="3"/>
<path opacity="0.79798" d="M137.997 185.12C142.479 178.475 150.729 175.472 158.434 177.682L396.055 245.818C403.759 248.027 409.164 254.946 409.444 262.956L418.072 510.003C418.351 518.012 413.441 525.292 405.91 528.033L173.621 612.579C166.089 615.32 157.649 612.9 152.715 606.585L0.525424 411.79C-4.40882 405.475 -4.71579 396.7 -0.234305 390.056L137.997 185.12Z" stroke="url(#paint78_linear_1069_1708)" stroke-opacity="0.1" stroke-width="3"/>
<path opacity="0.808081" d="M138.802 185.102C143.399 178.537 151.701 175.678 159.366 178.022L395.2 250.123C402.864 252.466 408.147 259.478 408.287 267.492L412.592 514.064C412.732 522.077 407.695 529.27 400.118 531.879L166.944 612.167C159.366 614.776 150.969 612.209 146.146 605.809L-2.26714 408.857C-7.09044 402.456 -7.2443 393.678 -2.64744 387.113L138.802 185.102Z" stroke="url(#paint79_linear_1069_1708)" stroke-opacity="0.1" stroke-width="3"/>
<path opacity="0.818182" d="M139.616 185.152C144.327 178.668 152.678 175.955 160.3 178.432L394.281 254.456C401.903 256.933 407.063 264.036 407.063 272.051L407.064 518.072C407.064 526.087 401.903 533.19 394.28 535.667L160.3 611.692C152.677 614.169 144.327 611.455 139.616 604.971L-4.99139 405.936C-9.70224 399.452 -9.70297 390.672 -4.99214 384.188L139.616 185.152Z" stroke="url(#paint80_linear_1069_1708)" stroke-opacity="0.1" stroke-width="3"/>
<path opacity="0.828283" d="M140.438 185.273C145.261 178.872 153.658 176.305 161.236 178.914L393.298 258.819C400.876 261.428 405.912 268.621 405.772 276.634L401.489 522.031C401.349 530.044 396.065 537.056 388.4 539.4L153.691 611.158C146.026 613.501 137.724 610.642 133.127 604.077L-7.64826 403.029C-12.245 396.464 -12.0918 387.685 -7.26852 381.284L140.438 185.273Z" stroke="url(#paint81_linear_1069_1708)" stroke-opacity="0.1" stroke-width="3"/>
<path opacity="0.838384" d="M141.267 185.462C146.201 179.146 154.641 176.726 162.172 179.467L392.253 263.21C399.784 265.951 404.694 273.23 404.414 281.239L395.869 525.936C395.589 533.946 390.183 540.865 382.479 543.074L147.118 610.563C139.414 612.772 131.163 609.769 126.682 603.124L-10.2351 400.138C-14.7168 393.494 -14.4101 384.719 -9.47594 378.403L141.267 185.462Z" stroke="url(#paint82_linear_1069_1708)" stroke-opacity="0.1" stroke-width="3"/>
<path opacity="0.848485" d="M142.1 185.721C147.143 179.493 155.624 177.22 163.107 180.092L391.141 267.626C398.624 270.499 403.406 277.862 402.987 285.866L390.203 529.79C389.783 537.793 384.257 544.617 376.516 546.691L140.581 609.91C132.839 611.984 124.642 608.838 120.277 602.116L-12.7559 397.264C-17.121 390.542 -16.6612 381.774 -11.6175 375.545L142.1 185.721Z" stroke="url(#paint83_linear_1069_1708)" stroke-opacity="0.1" stroke-width="3"/>
<path opacity="0.858586" d="M142.937 186.049C148.089 179.909 156.608 177.785 164.039 180.787L389.967 272.067C397.398 275.07 402.05 282.516 401.491 290.511L384.494 533.588C383.934 541.583 378.29 548.31 370.514 550.248L134.082 609.198C126.306 611.136 118.165 607.847 113.917 601.051L-15.2089 394.406C-19.4559 387.609 -18.8433 378.85 -13.6916 372.711L142.937 186.049Z" stroke="url(#paint84_linear_1069_1708)" stroke-opacity="0.1" stroke-width="3"/>
<path opacity="0.868687" d="M143.777 186.446C149.035 180.397 157.59 178.422 164.967 181.553L388.726 276.533C396.104 279.664 400.626 287.19 399.927 295.174L378.741 537.332C378.042 545.317 372.282 551.943 364.473 553.746L127.621 608.427C119.811 610.23 111.729 606.8 107.601 599.93L-17.596 391.567C-21.7236 384.697 -20.9584 375.951 -15.7003 369.902L143.777 186.446Z" stroke="url(#paint85_linear_1069_1708)" stroke-opacity="0.1" stroke-width="3"/>
<path opacity="0.878788" d="M144.618 186.912C149.981 180.956 158.569 179.131 165.891 182.39L387.421 281.022C394.743 284.282 399.133 291.886 398.296 299.857L372.947 541.023C372.11 548.994 366.234 555.518 358.395 557.185L121.2 607.602C113.36 609.268 105.339 605.697 101.332 598.756L-19.916 388.75C-23.9233 381.809 -23.0053 373.077 -17.6426 367.121L144.618 186.912Z" stroke="url(#paint86_linear_1069_1708)" stroke-opacity="0.1" stroke-width="3"/>
<path opacity="0.888889" d="M145.459 187.447C150.925 181.585 159.544 179.91 166.808 183.297L386.05 285.532C393.314 288.919 397.571 296.598 396.594 304.553L367.113 544.657C366.136 552.612 360.148 559.033 352.281 560.562L114.818 606.721C106.95 608.25 98.9935 604.539 95.108 597.529L-22.1714 385.953C-26.057 378.943 -24.9868 370.228 -19.5208 364.367L145.459 187.447Z" stroke="url(#paint87_linear_1069_1708)" stroke-opacity="0.1" stroke-width="3"/>
<path opacity="0.89899" d="M146.299 188.05C151.867 182.285 160.514 180.761 167.717 184.274L384.613 290.061C391.817 293.575 395.939 301.327 394.824 309.264L361.238 548.235C360.123 556.171 354.024 562.487 346.132 563.879L108.477 605.784C100.585 607.175 92.6938 603.326 88.9311 596.25L-24.362 383.177C-28.1246 376.101 -26.9025 367.406 -21.3351 361.641L146.299 188.05Z" stroke="url(#paint88_linear_1069_1708)" stroke-opacity="0.1" stroke-width="3"/>
<path opacity="0.909091" d="M147.138 188.724C152.805 183.056 161.477 181.683 168.618 185.322L383.112 294.611C390.253 298.25 394.239 306.073 392.985 313.989L355.326 551.756C354.072 559.672 347.864 565.881 339.949 567.134L102.18 604.793C94.2641 606.047 86.4416 602.061 82.8031 594.92L-26.4872 380.426C-30.1257 373.285 -28.752 364.613 -23.0849 358.946L147.138 188.724Z" stroke="url(#paint89_linear_1069_1708)" stroke-opacity="0.1" stroke-width="3"/>
<path opacity="0.919192" d="M147.973 189.463C153.738 183.896 162.432 182.674 169.509 186.437L381.543 299.177C388.62 302.939 392.469 310.831 391.077 318.724L349.377 555.219C347.985 563.112 341.669 569.211 333.733 570.327L95.9252 603.749C87.9886 604.864 80.236 600.742 76.7226 593.538L-28.549 377.698C-32.0622 370.495 -30.5375 361.848 -24.7723 356.281L147.973 189.463Z" stroke="url(#paint90_linear_1069_1708)" stroke-opacity="0.1" stroke-width="3"/>
<path opacity="0.929293" d="M148.803 190.272C154.664 184.806 163.379 183.736 170.388 187.622L379.909 303.761C386.918 307.646 390.629 315.604 389.1 323.471L343.391 558.626C341.862 566.493 335.44 572.481 327.485 573.458L89.7143 602.652C81.7594 603.629 74.08 599.372 70.6928 592.109L-30.5474 374.997C-33.9345 367.734 -32.259 359.115 -26.3975 353.649L148.803 190.272Z" stroke="url(#paint91_linear_1069_1708)" stroke-opacity="0.1" stroke-width="3"/>
<path opacity="0.939394" d="M149.627 191.149C155.583 185.786 164.315 184.868 171.256 188.875L378.208 308.359C385.149 312.367 388.72 320.388 387.054 328.227L337.37 561.974C335.704 569.813 329.179 575.688 321.208 576.526L83.5482 601.505C75.5775 602.343 67.9735 597.953 64.7136 590.631L-32.483 372.322C-35.7429 365.001 -33.9172 356.412 -27.9611 351.05L149.627 191.149Z" stroke="url(#paint92_linear_1069_1708)" stroke-opacity="0.1" stroke-width="3"/>
<path opacity="0.949495" d="M150.443 192.094C156.492 186.836 165.239 186.071 172.109 190.198L376.44 312.973C383.31 317.101 386.741 325.183 384.938 332.992L331.315 565.264C329.512 573.073 322.885 578.833 314.901 579.532L77.4273 600.308C69.4432 601.006 61.917 596.484 58.7854 589.107L-34.3568 369.676C-37.4884 362.298 -35.5131 353.743 -29.4644 348.485L150.443 192.094Z" stroke="url(#paint93_linear_1069_1708)" stroke-opacity="0.1" stroke-width="3"/>
<path opacity="0.959596" d="M151.252 193.105C157.392 187.953 166.15 187.34 172.947 191.588L374.607 317.598C381.404 321.845 384.692 329.986 382.754 337.762L325.227 568.492C323.288 576.268 316.562 581.912 308.567 582.471L71.353 599.059C63.3578 599.618 55.9117 594.965 52.9094 587.534L-36.1688 367.056C-39.171 359.625 -37.0477 351.106 -30.9082 345.954L151.252 193.105Z" stroke="url(#paint94_linear_1069_1708)" stroke-opacity="0.1" stroke-width="3"/>
<path opacity="0.969697" d="M152.051 194.184C158.28 189.14 167.048 188.68 173.769 193.045L372.706 322.236C379.428 326.601 382.574 334.799 380.5 342.54L319.107 571.662C317.033 579.404 310.209 584.929 302.205 585.348L65.3253 597.763C57.3216 598.182 49.9579 593.4 47.0857 585.918L-37.9204 364.469C-40.7926 356.986 -38.521 348.505 -32.2924 343.461L152.051 194.184Z" stroke="url(#paint95_linear_1069_1708)" stroke-opacity="0.1" stroke-width="3"/>
<path opacity="0.979798" d="M152.839 195.328C159.155 190.393 167.93 190.087 174.574 194.569L370.739 326.883C377.383 331.365 380.386 339.616 378.177 347.32L312.957 574.771C310.747 582.475 303.828 587.88 295.819 588.16L59.3456 596.418C51.3358 596.698 44.0566 591.788 41.3155 584.256L-39.6118 361.909C-42.3529 354.378 -39.9334 345.938 -33.618 341.004L152.839 195.328Z" stroke="url(#paint96_linear_1069_1708)" stroke-opacity="0.1" stroke-width="3"/>
<path opacity="0.989899" d="M153.616 196.539C160.017 191.716 168.796 191.563 175.361 196.16L368.705 331.541C375.27 336.138 378.129 344.439 375.786 352.104L306.777 577.82C304.434 585.484 297.422 590.768 289.408 590.908L53.4148 595.028C45.4014 595.167 38.209 590.131 35.5996 582.553L-41.2435 359.383C-43.8528 351.805 -41.2864 343.409 -34.8857 338.585L153.616 196.539Z" stroke="url(#paint97_linear_1069_1708)" stroke-opacity="0.1" stroke-width="3"/>
<path d="M154.38 197.817C160.864 193.106 169.644 193.106 176.128 197.817L366.604 336.206C373.088 340.916 375.802 349.267 373.325 356.889L300.569 580.807C298.093 588.43 290.989 593.591 282.975 593.591H47.5332C39.5187 593.591 32.4153 588.43 29.9385 580.808L-42.8174 356.889C-45.2939 349.267 -42.5805 340.916 -36.0967 336.206L154.38 197.817Z" stroke="url(#paint98_linear_1069_1708)" stroke-opacity="0.1" stroke-width="3"/>
<defs>
<linearGradient id="paint0_linear_1069_1708" x1="482.066" y1="473.303" x2="436.706" y2="150.554" gradientUnits="userSpaceOnUse">
<stop stop-color="#FF1CF7"/>
<stop offset="1" stop-color="#00F0FF"/>
</linearGradient>
<linearGradient id="paint1_linear_1069_1708" x1="476.264" y1="474.387" x2="436.617" y2="151.486" gradientUnits="userSpaceOnUse">
<stop stop-color="#FF1CF7"/>
<stop offset="1" stop-color="#00F0FF"/>
</linearGradient>
<linearGradient id="paint2_linear_1069_1708" x1="470.467" y1="475.422" x2="436.523" y2="152.469" gradientUnits="userSpaceOnUse">
<stop stop-color="#FF1CF7"/>
<stop offset="1" stop-color="#00F0FF"/>
</linearGradient>
<linearGradient id="paint3_linear_1069_1708" x1="464.674" y1="476.409" x2="436.423" y2="153.505" gradientUnits="userSpaceOnUse">
<stop stop-color="#FF1CF7"/>
<stop offset="1" stop-color="#00F0FF"/>
</linearGradient>
<linearGradient id="paint4_linear_1069_1708" x1="458.887" y1="477.346" x2="436.317" y2="154.592" gradientUnits="userSpaceOnUse">
<stop stop-color="#FF1CF7"/>
<stop offset="1" stop-color="#00F0FF"/>
</linearGradient>
<linearGradient id="paint5_linear_1069_1708" x1="453.106" y1="478.233" x2="436.204" y2="155.728" gradientUnits="userSpaceOnUse">
<stop stop-color="#FF1CF7"/>
<stop offset="1" stop-color="#00F0FF"/>
</linearGradient>
<linearGradient id="paint6_linear_1069_1708" x1="447.333" y1="479.071" x2="436.083" y2="156.915" gradientUnits="userSpaceOnUse">
<stop stop-color="#FF1CF7"/>
<stop offset="1" stop-color="#00F0FF"/>
</linearGradient>
<linearGradient id="paint7_linear_1069_1708" x1="441.568" y1="479.862" x2="435.953" y2="158.153" gradientUnits="userSpaceOnUse">
<stop stop-color="#FF1CF7"/>
<stop offset="1" stop-color="#00F0FF"/>
</linearGradient>
<linearGradient id="paint8_linear_1069_1708" x1="435.813" y1="480.604" x2="435.813" y2="159.441" gradientUnits="userSpaceOnUse">
<stop stop-color="#FF1CF7"/>
<stop offset="1" stop-color="#00F0FF"/>
</linearGradient>
<linearGradient id="paint9_linear_1069_1708" x1="430.067" y1="481.298" x2="435.662" y2="160.778" gradientUnits="userSpaceOnUse">
<stop stop-color="#FF1CF7"/>
<stop offset="1" stop-color="#00F0FF"/>
</linearGradient>
<linearGradient id="paint10_linear_1069_1708" x1="424.333" y1="481.945" x2="435.5" y2="162.166" gradientUnits="userSpaceOnUse">
<stop stop-color="#FF1CF7"/>
<stop offset="1" stop-color="#00F0FF"/>
</linearGradient>
<linearGradient id="paint11_linear_1069_1708" x1="418.609" y1="482.543" x2="435.324" y2="163.601" gradientUnits="userSpaceOnUse">
<stop stop-color="#FF1CF7"/>
<stop offset="1" stop-color="#00F0FF"/>
</linearGradient>
<linearGradient id="paint12_linear_1069_1708" x1="412.899" y1="483.095" x2="435.136" y2="165.087" gradientUnits="userSpaceOnUse">
<stop stop-color="#FF1CF7"/>
<stop offset="1" stop-color="#00F0FF"/>
</linearGradient>
<linearGradient id="paint13_linear_1069_1708" x1="407.202" y1="483.6" x2="434.934" y2="166.621" gradientUnits="userSpaceOnUse">
<stop stop-color="#FF1CF7"/>
<stop offset="1" stop-color="#00F0FF"/>
</linearGradient>
<linearGradient id="paint14_linear_1069_1708" x1="401.519" y1="484.058" x2="434.717" y2="168.203" gradientUnits="userSpaceOnUse">
<stop stop-color="#FF1CF7"/>
<stop offset="1" stop-color="#00F0FF"/>
</linearGradient>
<linearGradient id="paint15_linear_1069_1708" x1="395.851" y1="484.47" x2="434.483" y2="169.833" gradientUnits="userSpaceOnUse">
<stop stop-color="#FF1CF7"/>
<stop offset="1" stop-color="#00F0FF"/>
</linearGradient>
<linearGradient id="paint16_linear_1069_1708" x1="390.198" y1="484.837" x2="434.233" y2="171.511" gradientUnits="userSpaceOnUse">
<stop stop-color="#FF1CF7"/>
<stop offset="1" stop-color="#00F0FF"/>
</linearGradient>
<linearGradient id="paint17_linear_1069_1708" x1="384.562" y1="485.158" x2="433.966" y2="173.235" gradientUnits="userSpaceOnUse">
<stop stop-color="#FF1CF7"/>
<stop offset="1" stop-color="#00F0FF"/>
</linearGradient>
<linearGradient id="paint18_linear_1069_1708" x1="378.944" y1="485.434" x2="433.68" y2="175.007" gradientUnits="userSpaceOnUse">
<stop stop-color="#FF1CF7"/>
<stop offset="1" stop-color="#00F0FF"/>
</linearGradient>
<linearGradient id="paint19_linear_1069_1708" x1="373.343" y1="485.663" x2="433.376" y2="176.823" gradientUnits="userSpaceOnUse">
<stop stop-color="#FF1CF7"/>
<stop offset="1" stop-color="#00F0FF"/>
</linearGradient>
<linearGradient id="paint20_linear_1069_1708" x1="367.762" y1="485.851" x2="433.051" y2="178.687" gradientUnits="userSpaceOnUse">
<stop stop-color="#FF1CF7"/>
<stop offset="1" stop-color="#00F0FF"/>
</linearGradient>
<linearGradient id="paint21_linear_1069_1708" x1="362.199" y1="485.993" x2="432.706" y2="180.595" gradientUnits="userSpaceOnUse">
<stop stop-color="#FF1CF7"/>
<stop offset="1" stop-color="#00F0FF"/>
</linearGradient>
<linearGradient id="paint22_linear_1069_1708" x1="356.657" y1="486.093" x2="432.339" y2="182.549" gradientUnits="userSpaceOnUse">
<stop stop-color="#FF1CF7"/>
<stop offset="1" stop-color="#00F0FF"/>
</linearGradient>
<linearGradient id="paint23_linear_1069_1708" x1="351.137" y1="486.15" x2="431.951" y2="184.548" gradientUnits="userSpaceOnUse">
<stop stop-color="#FF1CF7"/>
<stop offset="1" stop-color="#00F0FF"/>
</linearGradient>
<linearGradient id="paint24_linear_1069_1708" x1="345.638" y1="486.164" x2="431.539" y2="186.589" gradientUnits="userSpaceOnUse">
<stop stop-color="#FF1CF7"/>
<stop offset="1" stop-color="#00F0FF"/>
</linearGradient>
<linearGradient id="paint25_linear_1069_1708" x1="340.16" y1="486.135" x2="431.103" y2="188.674" gradientUnits="userSpaceOnUse">
<stop stop-color="#FF1CF7"/>
<stop offset="1" stop-color="#00F0FF"/>
</linearGradient>
<linearGradient id="paint26_linear_1069_1708" x1="334.707" y1="486.066" x2="430.644" y2="190.803" gradientUnits="userSpaceOnUse">
<stop stop-color="#FF1CF7"/>
<stop offset="1" stop-color="#00F0FF"/>
</linearGradient>
<linearGradient id="paint27_linear_1069_1708" x1="329.278" y1="485.956" x2="430.159" y2="192.974" gradientUnits="userSpaceOnUse">
<stop stop-color="#FF1CF7"/>
<stop offset="1" stop-color="#00F0FF"/>
</linearGradient>
<linearGradient id="paint28_linear_1069_1708" x1="323.873" y1="485.805" x2="429.649" y2="195.188" gradientUnits="userSpaceOnUse">
<stop stop-color="#FF1CF7"/>
<stop offset="1" stop-color="#00F0FF"/>
</linearGradient>
<linearGradient id="paint29_linear_1069_1708" x1="318.493" y1="485.613" x2="429.112" y2="197.442" gradientUnits="userSpaceOnUse">
<stop stop-color="#FF1CF7"/>
<stop offset="1" stop-color="#00F0FF"/>
</linearGradient>
<linearGradient id="paint30_linear_1069_1708" x1="313.139" y1="485.383" x2="428.547" y2="199.737" gradientUnits="userSpaceOnUse">
<stop stop-color="#FF1CF7"/>
<stop offset="1" stop-color="#00F0FF"/>
</linearGradient>
<linearGradient id="paint31_linear_1069_1708" x1="307.812" y1="485.113" x2="427.955" y2="202.072" gradientUnits="userSpaceOnUse">
<stop stop-color="#FF1CF7"/>
<stop offset="1" stop-color="#00F0FF"/>
</linearGradient>
<linearGradient id="paint32_linear_1069_1708" x1="302.512" y1="484.805" x2="427.335" y2="204.448" gradientUnits="userSpaceOnUse">
<stop stop-color="#FF1CF7"/>
<stop offset="1" stop-color="#00F0FF"/>
</linearGradient>
<linearGradient id="paint33_linear_1069_1708" x1="297.239" y1="484.459" x2="426.685" y2="206.861" gradientUnits="userSpaceOnUse">
<stop stop-color="#FF1CF7"/>
<stop offset="1" stop-color="#00F0FF"/>
</linearGradient>
<linearGradient id="paint34_linear_1069_1708" x1="291.995" y1="484.076" x2="426.005" y2="209.315" gradientUnits="userSpaceOnUse">
<stop stop-color="#FF1CF7"/>
<stop offset="1" stop-color="#00F0FF"/>
</linearGradient>
<linearGradient id="paint35_linear_1069_1708" x1="286.78" y1="483.656" x2="425.295" y2="211.805" gradientUnits="userSpaceOnUse">
<stop stop-color="#FF1CF7"/>
<stop offset="1" stop-color="#00F0FF"/>
</linearGradient>
<linearGradient id="paint36_linear_1069_1708" x1="281.595" y1="483.2" x2="424.554" y2="214.334" gradientUnits="userSpaceOnUse">
<stop stop-color="#FF1CF7"/>
<stop offset="1" stop-color="#00F0FF"/>
</linearGradient>
<linearGradient id="paint37_linear_1069_1708" x1="276.441" y1="482.708" x2="423.782" y2="216.898" gradientUnits="userSpaceOnUse">
<stop stop-color="#FF1CF7"/>
<stop offset="1" stop-color="#00F0FF"/>
</linearGradient>
<linearGradient id="paint38_linear_1069_1708" x1="271.316" y1="482.182" x2="422.976" y2="219.499" gradientUnits="userSpaceOnUse">
<stop stop-color="#FF1CF7"/>
<stop offset="1" stop-color="#00F0FF"/>
</linearGradient>
<linearGradient id="paint39_linear_1069_1708" x1="266.223" y1="481.621" x2="422.139" y2="222.134" gradientUnits="userSpaceOnUse">
<stop stop-color="#FF1CF7"/>
<stop offset="1" stop-color="#00F0FF"/>
</linearGradient>
<linearGradient id="paint40_linear_1069_1708" x1="261.162" y1="481.027" x2="421.267" y2="224.805" gradientUnits="userSpaceOnUse">
<stop stop-color="#FF1CF7"/>
<stop offset="1" stop-color="#00F0FF"/>
</linearGradient>
<linearGradient id="paint41_linear_1069_1708" x1="256.134" y1="480.4" x2="420.363" y2="227.51" gradientUnits="userSpaceOnUse">
<stop stop-color="#FF1CF7"/>
<stop offset="1" stop-color="#00F0FF"/>
</linearGradient>
<linearGradient id="paint42_linear_1069_1708" x1="251.138" y1="479.74" x2="419.423" y2="230.248" gradientUnits="userSpaceOnUse">
<stop stop-color="#FF1CF7"/>
<stop offset="1" stop-color="#00F0FF"/>
</linearGradient>
<linearGradient id="paint43_linear_1069_1708" x1="246.176" y1="479.048" x2="418.448" y2="233.018" gradientUnits="userSpaceOnUse">
<stop stop-color="#FF1CF7"/>
<stop offset="1" stop-color="#00F0FF"/>
</linearGradient>
<linearGradient id="paint44_linear_1069_1708" x1="241.248" y1="478.327" x2="417.438" y2="235.822" gradientUnits="userSpaceOnUse">
<stop stop-color="#FF1CF7"/>
<stop offset="1" stop-color="#00F0FF"/>
</linearGradient>
<linearGradient id="paint45_linear_1069_1708" x1="236.355" y1="477.574" x2="416.392" y2="238.656" gradientUnits="userSpaceOnUse">
<stop stop-color="#FF1CF7"/>
<stop offset="1" stop-color="#00F0FF"/>
</linearGradient>
<linearGradient id="paint46_linear_1069_1708" x1="231.496" y1="476.791" x2="415.31" y2="241.52" gradientUnits="userSpaceOnUse">
<stop stop-color="#FF1CF7"/>
<stop offset="1" stop-color="#00F0FF"/>
</linearGradient>
<linearGradient id="paint47_linear_1069_1708" x1="226.673" y1="475.979" x2="414.19" y2="244.415" gradientUnits="userSpaceOnUse">
<stop stop-color="#FF1CF7"/>
<stop offset="1" stop-color="#00F0FF"/>
</linearGradient>
<linearGradient id="paint48_linear_1069_1708" x1="221.885" y1="475.139" x2="413.033" y2="247.338" gradientUnits="userSpaceOnUse">
<stop stop-color="#FF1CF7"/>
<stop offset="1" stop-color="#00F0FF"/>
</linearGradient>
<linearGradient id="paint49_linear_1069_1708" x1="217.134" y1="474.272" x2="411.838" y2="250.29" gradientUnits="userSpaceOnUse">
<stop stop-color="#FF1CF7"/>
<stop offset="1" stop-color="#00F0FF"/>
</linearGradient>
<linearGradient id="paint50_linear_1069_1708" x1="212.42" y1="473.378" x2="410.605" y2="253.27" gradientUnits="userSpaceOnUse">
<stop stop-color="#FF1CF7"/>
<stop offset="1" stop-color="#00F0FF"/>
</linearGradient>
<linearGradient id="paint51_linear_1069_1708" x1="207.742" y1="472.457" x2="409.333" y2="256.277" gradientUnits="userSpaceOnUse">
<stop stop-color="#FF1CF7"/>
<stop offset="1" stop-color="#00F0FF"/>
</linearGradient>
<linearGradient id="paint52_linear_1069_1708" x1="203.102" y1="471.511" x2="408.022" y2="259.31" gradientUnits="userSpaceOnUse">
<stop stop-color="#FF1CF7"/>
<stop offset="1" stop-color="#00F0FF"/>
</linearGradient>
<linearGradient id="paint53_linear_1069_1708" x1="198.5" y1="470.54" x2="406.672" y2="262.368" gradientUnits="userSpaceOnUse">
<stop stop-color="#FF1CF7"/>
<stop offset="1" stop-color="#00F0FF"/>
</linearGradient>
<linearGradient id="paint54_linear_1069_1708" x1="193.936" y1="469.545" x2="405.282" y2="265.451" gradientUnits="userSpaceOnUse">
<stop stop-color="#FF1CF7"/>
<stop offset="1" stop-color="#00F0FF"/>
</linearGradient>
<linearGradient id="paint55_linear_1069_1708" x1="189.411" y1="468.527" x2="403.851" y2="268.558" gradientUnits="userSpaceOnUse">
<stop stop-color="#FF1CF7"/>
<stop offset="1" stop-color="#00F0FF"/>
</linearGradient>
<linearGradient id="paint56_linear_1069_1708" x1="184.925" y1="467.486" x2="402.38" y2="271.688" gradientUnits="userSpaceOnUse">
<stop stop-color="#FF1CF7"/>
<stop offset="1" stop-color="#00F0FF"/>
</linearGradient>
<linearGradient id="paint57_linear_1069_1708" x1="180.478" y1="466.424" x2="400.868" y2="274.841" gradientUnits="userSpaceOnUse">
<stop stop-color="#FF1CF7"/>
<stop offset="1" stop-color="#00F0FF"/>
</linearGradient>
<linearGradient id="paint58_linear_1069_1708" x1="176.07" y1="465.34" x2="399.315" y2="278.015" gradientUnits="userSpaceOnUse">
<stop stop-color="#FF1CF7"/>
<stop offset="1" stop-color="#00F0FF"/>
</linearGradient>
<linearGradient id="paint59_linear_1069_1708" x1="171.702" y1="464.236" x2="397.721" y2="281.21" gradientUnits="userSpaceOnUse">
<stop stop-color="#FF1CF7"/>
<stop offset="1" stop-color="#00F0FF"/>
</linearGradient>
<linearGradient id="paint60_linear_1069_1708" x1="167.375" y1="463.112" x2="396.084" y2="284.425" gradientUnits="userSpaceOnUse">
<stop stop-color="#FF1CF7"/>
<stop offset="1" stop-color="#00F0FF"/>
</linearGradient>
<linearGradient id="paint61_linear_1069_1708" x1="163.087" y1="461.97" x2="394.405" y2="287.66" gradientUnits="userSpaceOnUse">
<stop stop-color="#FF1CF7"/>
<stop offset="1" stop-color="#00F0FF"/>
</linearGradient>
<linearGradient id="paint62_linear_1069_1708" x1="158.841" y1="460.81" x2="392.685" y2="290.913" gradientUnits="userSpaceOnUse">
<stop stop-color="#FF1CF7"/>
<stop offset="1" stop-color="#00F0FF"/>
</linearGradient>
<linearGradient id="paint63_linear_1069_1708" x1="154.635" y1="459.633" x2="390.921" y2="294.183" gradientUnits="userSpaceOnUse">
<stop stop-color="#FF1CF7"/>
<stop offset="1" stop-color="#00F0FF"/>
</linearGradient>
<linearGradient id="paint64_linear_1069_1708" x1="150.47" y1="458.439" x2="389.115" y2="297.471" gradientUnits="userSpaceOnUse">
<stop stop-color="#FF1CF7"/>
<stop offset="1" stop-color="#00F0FF"/>
</linearGradient>
<linearGradient id="paint65_linear_1069_1708" x1="146.347" y1="457.228" x2="387.266" y2="300.773" gradientUnits="userSpaceOnUse">
<stop stop-color="#FF1CF7"/>
<stop offset="1" stop-color="#00F0FF"/>
</linearGradient>
<linearGradient id="paint66_linear_1069_1708" x1="142.265" y1="456.003" x2="385.373" y2="304.092" gradientUnits="userSpaceOnUse">
<stop stop-color="#FF1CF7"/>
<stop offset="1" stop-color="#00F0FF"/>
</linearGradient>
<linearGradient id="paint67_linear_1069_1708" x1="138.224" y1="454.764" x2="383.437" y2="307.425" gradientUnits="userSpaceOnUse">
<stop stop-color="#FF1CF7"/>
<stop offset="1" stop-color="#00F0FF"/>
</linearGradient>
<linearGradient id="paint68_linear_1069_1708" x1="134.226" y1="453.511" x2="381.458" y2="310.771" gradientUnits="userSpaceOnUse">
<stop stop-color="#FF1CF7"/>
<stop offset="1" stop-color="#00F0FF"/>
</linearGradient>
<linearGradient id="paint69_linear_1069_1708" x1="130.27" y1="452.246" x2="379.435" y2="314.132" gradientUnits="userSpaceOnUse">
<stop stop-color="#FF1CF7"/>
<stop offset="1" stop-color="#00F0FF"/>
</linearGradient>
<linearGradient id="paint70_linear_1069_1708" x1="126.355" y1="450.968" x2="377.368" y2="317.503" gradientUnits="userSpaceOnUse">
<stop stop-color="#FF1CF7"/>
<stop offset="1" stop-color="#00F0FF"/>
</linearGradient>
<linearGradient id="paint71_linear_1069_1708" x1="122.483" y1="449.68" x2="375.257" y2="320.886" gradientUnits="userSpaceOnUse">
<stop stop-color="#FF1CF7"/>
<stop offset="1" stop-color="#00F0FF"/>
</linearGradient>
<linearGradient id="paint72_linear_1069_1708" x1="118.654" y1="448.381" x2="373.102" y2="324.279" gradientUnits="userSpaceOnUse">
<stop stop-color="#FF1CF7"/>
<stop offset="1" stop-color="#00F0FF"/>
</linearGradient>
<linearGradient id="paint73_linear_1069_1708" x1="114.866" y1="447.074" x2="370.903" y2="327.682" gradientUnits="userSpaceOnUse">
<stop stop-color="#FF1CF7"/>
<stop offset="1" stop-color="#00F0FF"/>
</linearGradient>
<linearGradient id="paint74_linear_1069_1708" x1="111.122" y1="445.756" x2="368.659" y2="331.093" gradientUnits="userSpaceOnUse">
<stop stop-color="#FF1CF7"/>
<stop offset="1" stop-color="#00F0FF"/>
</linearGradient>
<linearGradient id="paint75_linear_1069_1708" x1="107.42" y1="444.431" x2="366.372" y2="334.513" gradientUnits="userSpaceOnUse">
<stop stop-color="#FF1CF7"/>
<stop offset="1" stop-color="#00F0FF"/>
</linearGradient>
<linearGradient id="paint76_linear_1069_1708" x1="103.76" y1="443.1" x2="364.04" y2="337.94" gradientUnits="userSpaceOnUse">
<stop stop-color="#FF1CF7"/>
<stop offset="1" stop-color="#00F0FF"/>
</linearGradient>
<linearGradient id="paint77_linear_1069_1708" x1="100.144" y1="441.762" x2="361.663" y2="341.374" gradientUnits="userSpaceOnUse">
<stop stop-color="#FF1CF7"/>
<stop offset="1" stop-color="#00F0FF"/>
</linearGradient>
<linearGradient id="paint78_linear_1069_1708" x1="96.5695" y1="440.417" x2="359.243" y2="344.812" gradientUnits="userSpaceOnUse">
<stop stop-color="#FF1CF7"/>
<stop offset="1" stop-color="#00F0FF"/>
</linearGradient>
<linearGradient id="paint79_linear_1069_1708" x1="93.0383" y1="439.068" x2="356.778" y2="348.256" gradientUnits="userSpaceOnUse">
<stop stop-color="#FF1CF7"/>
<stop offset="1" stop-color="#00F0FF"/>
</linearGradient>
<linearGradient id="paint80_linear_1069_1708" x1="89.5494" y1="437.715" x2="354.268" y2="351.703" gradientUnits="userSpaceOnUse">
<stop stop-color="#FF1CF7"/>
<stop offset="1" stop-color="#00F0FF"/>
</linearGradient>
<linearGradient id="paint81_linear_1069_1708" x1="86.1032" y1="436.359" x2="351.714" y2="355.153" gradientUnits="userSpaceOnUse">
<stop stop-color="#FF1CF7"/>
<stop offset="1" stop-color="#00F0FF"/>
</linearGradient>
<linearGradient id="paint82_linear_1069_1708" x1="82.7006" y1="434.999" x2="349.116" y2="358.606" gradientUnits="userSpaceOnUse">
<stop stop-color="#FF1CF7"/>
<stop offset="1" stop-color="#00F0FF"/>
</linearGradient>
<linearGradient id="paint83_linear_1069_1708" x1="79.3395" y1="433.639" x2="346.473" y2="362.06" gradientUnits="userSpaceOnUse">
<stop stop-color="#FF1CF7"/>
<stop offset="1" stop-color="#00F0FF"/>
</linearGradient>
<linearGradient id="paint84_linear_1069_1708" x1="76.0217" y1="432.276" x2="343.787" y2="365.515" gradientUnits="userSpaceOnUse">
<stop stop-color="#FF1CF7"/>
<stop offset="1" stop-color="#00F0FF"/>
</linearGradient>
<linearGradient id="paint85_linear_1069_1708" x1="72.7457" y1="430.914" x2="341.056" y2="368.97" gradientUnits="userSpaceOnUse">
<stop stop-color="#FF1CF7"/>
<stop offset="1" stop-color="#00F0FF"/>
</linearGradient>
<linearGradient id="paint86_linear_1069_1708" x1="69.5128" y1="429.553" x2="338.281" y2="372.425" gradientUnits="userSpaceOnUse">
<stop stop-color="#FF1CF7"/>
<stop offset="1" stop-color="#00F0FF"/>
</linearGradient>
<linearGradient id="paint87_linear_1069_1708" x1="66.3216" y1="428.193" x2="335.462" y2="375.877" gradientUnits="userSpaceOnUse">
<stop stop-color="#FF1CF7"/>
<stop offset="1" stop-color="#00F0FF"/>
</linearGradient>
<linearGradient id="paint88_linear_1069_1708" x1="63.1724" y1="426.834" x2="332.6" y2="379.327" gradientUnits="userSpaceOnUse">
<stop stop-color="#FF1CF7"/>
<stop offset="1" stop-color="#00F0FF"/>
</linearGradient>
<linearGradient id="paint89_linear_1069_1708" x1="60.066" y1="425.48" x2="329.694" y2="382.775" gradientUnits="userSpaceOnUse">
<stop stop-color="#FF1CF7"/>
<stop offset="1" stop-color="#00F0FF"/>
</linearGradient>
<linearGradient id="paint90_linear_1069_1708" x1="57.0011" y1="424.127" x2="326.744" y2="386.217" gradientUnits="userSpaceOnUse">
<stop stop-color="#FF1CF7"/>
<stop offset="1" stop-color="#00F0FF"/>
</linearGradient>
<linearGradient id="paint91_linear_1069_1708" x1="53.9779" y1="422.78" x2="323.751" y2="389.656" gradientUnits="userSpaceOnUse">
<stop stop-color="#FF1CF7"/>
<stop offset="1" stop-color="#00F0FF"/>
</linearGradient>
<linearGradient id="paint92_linear_1069_1708" x1="50.9964" y1="421.437" x2="320.715" y2="393.088" gradientUnits="userSpaceOnUse">
<stop stop-color="#FF1CF7"/>
<stop offset="1" stop-color="#00F0FF"/>
</linearGradient>
<linearGradient id="paint93_linear_1069_1708" x1="48.056" y1="420.101" x2="317.636" y2="396.516" gradientUnits="userSpaceOnUse">
<stop stop-color="#FF1CF7"/>
<stop offset="1" stop-color="#00F0FF"/>
</linearGradient>
<linearGradient id="paint94_linear_1069_1708" x1="45.1572" y1="418.77" x2="314.514" y2="399.935" gradientUnits="userSpaceOnUse">
<stop stop-color="#FF1CF7"/>
<stop offset="1" stop-color="#00F0FF"/>
</linearGradient>
<linearGradient id="paint95_linear_1069_1708" x1="42.2989" y1="417.448" x2="311.35" y2="403.347" gradientUnits="userSpaceOnUse">
<stop stop-color="#FF1CF7"/>
<stop offset="1" stop-color="#00F0FF"/>
</linearGradient>
<linearGradient id="paint96_linear_1069_1708" x1="39.4815" y1="416.131" x2="308.143" y2="406.749" gradientUnits="userSpaceOnUse">
<stop stop-color="#FF1CF7"/>
<stop offset="1" stop-color="#00F0FF"/>
</linearGradient>
<linearGradient id="paint97_linear_1069_1708" x1="36.705" y1="414.825" x2="304.895" y2="410.144" gradientUnits="userSpaceOnUse">
<stop stop-color="#FF1CF7"/>
<stop offset="1" stop-color="#00F0FF"/>
</linearGradient>
<linearGradient id="paint98_linear_1069_1708" x1="33.9687" y1="413.528" x2="301.605" y2="413.528" gradientUnits="userSpaceOnUse">
<stop stop-color="#FF1CF7"/>
<stop offset="1" stop-color="#00F0FF"/>
</linearGradient>
</defs>
</svg>