<svg width="131" height="32" viewBox="0 0 131 32" fill="none" xmlns="http://www.w3.org/2000/svg">
<g clip-path="url(#clip0_1069_1675)">
<path d="M38.4375 22.2438H47.7659V19.434H41.753V8.85059H38.4375V22.2438Z" fill="white"/>
<path d="M53.293 20.3706C51.963 20.3706 51.2699 19.2092 51.2699 17.4672C51.2699 15.7251 51.963 14.545 53.293 14.545C54.6229 14.545 55.3347 15.7251 55.3347 17.4672C55.3347 19.2092 54.6229 20.3706 53.293 20.3706ZM53.3117 22.5435C56.4024 22.5435 58.4254 20.3518 58.4254 17.4672C58.4254 14.5825 56.4024 12.3909 53.3117 12.3909C50.2397 12.3909 48.1792 14.5825 48.1792 17.4672C48.1792 20.3518 50.2397 22.5435 53.3117 22.5435Z" fill="white"/>
<path d="M63.7752 25.5592C65.1988 25.5592 66.4538 25.2408 67.2968 24.4915C68.0648 23.7984 68.5705 22.7494 68.5705 21.3071V12.653H65.6484V13.6833H65.6109C65.049 12.8778 64.1873 12.3721 62.9136 12.3721C60.5346 12.3721 58.8862 14.3576 58.8862 17.1674C58.8862 20.1083 60.8905 21.7192 63.0447 21.7192C64.206 21.7192 64.9366 21.2509 65.4985 20.614H65.5735V21.5693C65.5735 22.7307 65.0302 23.405 63.7377 23.405C62.7262 23.405 62.2205 22.9742 62.0519 22.4685H59.0923C59.392 24.4728 61.134 25.5592 63.7752 25.5592ZM63.7565 19.4527C62.6138 19.4527 61.8646 18.5161 61.8646 17.0737C61.8646 15.6127 62.6138 14.6761 63.7565 14.6761C65.0302 14.6761 65.7046 15.7625 65.7046 17.055C65.7046 18.4037 65.0864 19.4527 63.7565 19.4527Z" fill="white"/>
<path d="M74.5786 20.3706C73.2487 20.3706 72.5556 19.2092 72.5556 17.4672C72.5556 15.7251 73.2487 14.545 74.5786 14.545C75.9086 14.545 76.6204 15.7251 76.6204 17.4672C76.6204 19.2092 75.9086 20.3706 74.5786 20.3706ZM74.5973 22.5435C77.6881 22.5435 79.7113 20.3518 79.7113 17.4672C79.7113 14.5825 77.6881 12.3909 74.5973 12.3909C71.5253 12.3909 69.4648 14.5825 69.4648 17.4672C69.4648 20.3518 71.5253 22.5435 74.5973 22.5435Z" fill="white"/>
<path d="M80.603 22.2438H83.6563V12.6531H80.603V22.2438ZM80.603 11.3232H83.6563V8.85059H80.603V11.3232Z" fill="white"/>
<path d="M84.9805 25.4093H88.0337V21.2509H88.0712C88.6706 22.0564 89.551 22.5434 90.7873 22.5434C93.2973 22.5434 94.9645 20.5578 94.9645 17.4484C94.9645 14.5637 93.4097 12.3721 90.8622 12.3721C89.551 12.3721 88.6144 12.9528 87.9588 13.8144H87.9026V12.653H84.9805V25.4093ZM90.0006 20.1832C88.6893 20.1832 87.9401 19.1155 87.9401 17.5608C87.9401 16.006 88.6144 14.8259 89.9444 14.8259C91.2556 14.8259 91.8737 15.9124 91.8737 17.5608C91.8737 19.1904 91.1619 20.1832 90.0006 20.1832Z" fill="white"/>
<path d="M99.9362 22.5434C102.446 22.5434 104.301 21.4569 104.301 19.359C104.301 16.9051 102.315 16.4743 100.629 16.1933C99.4117 15.9686 98.3252 15.8749 98.3252 15.2006C98.3252 14.6011 98.9059 14.3202 99.6552 14.3202C100.498 14.3202 101.079 14.5824 101.191 15.4441H104.001C103.851 13.5522 102.39 12.3721 99.6739 12.3721C97.4074 12.3721 95.5342 13.421 95.5342 15.4441C95.5342 17.6919 97.3137 18.1414 98.9809 18.4224C100.255 18.6472 101.416 18.7409 101.416 19.6025C101.416 20.2207 100.835 20.5578 99.9174 20.5578C98.9059 20.5578 98.2691 20.0895 98.1567 19.1342H95.272C95.3656 21.2509 97.1264 22.5434 99.9362 22.5434Z" fill="white"/>
<path d="M108.447 22.5247C109.777 22.5247 110.62 22.0002 111.313 21.0636H111.37V22.2437H114.292V12.6531H111.238V18.0103C111.238 19.153 110.602 19.9397 109.553 19.9397C108.579 19.9397 108.11 19.359 108.11 18.3101V12.6531H105.076V18.9469C105.076 21.0823 106.237 22.5247 108.447 22.5247Z" fill="white"/>
<path d="M115.62 22.2437H118.673V16.8677C118.673 15.725 119.235 14.9196 120.191 14.9196C121.109 14.9196 121.539 15.519 121.539 16.5492V22.2437H124.593V16.8677C124.593 15.725 125.136 14.9196 126.11 14.9196C127.028 14.9196 127.459 15.519 127.459 16.5492V22.2437H130.512V16.006C130.512 13.8519 129.425 12.3721 127.253 12.3721C126.016 12.3721 124.986 12.8966 124.237 14.0579H124.199C123.712 13.0277 122.757 12.3721 121.502 12.3721C120.116 12.3721 119.198 13.0277 118.598 14.0205H118.542V12.653H115.62V22.2437Z" fill="white"/>
<path fill-rule="evenodd" clip-rule="evenodd" d="M7.23634 2.80809C6.11972 3.58886 5.11001 4.51198 4.23348 5.55114C7.81537 5.2186 12.366 5.7616 17.6493 8.40326C23.2911 11.2241 27.8342 11.3195 30.996 10.7096C30.7091 9.841 30.3479 9.00619 29.9201 8.21259C26.3007 8.59432 21.6607 8.08904 16.2532 5.38535C12.8193 3.66843 9.79246 2.96117 7.23634 2.80809ZM27.8058 5.20324C24.9476 2.00975 20.7939 0 16.1708 0C14.8131 0 13.4958 0.173352 12.24 0.499106C13.9408 0.963188 15.7477 1.64213 17.6493 2.59299C21.6084 4.57251 25.0265 5.20988 27.8058 5.20324ZM31.6719 13.7585C27.8522 14.5128 22.5776 14.3578 16.2532 11.1956C10.3405 8.23928 5.63454 8.27651 2.46066 8.98184C2.29684 9.01821 2.13687 9.05645 1.98077 9.09625C1.56523 9.99998 1.23353 10.9503 0.995534 11.9372C1.24973 11.8692 1.5124 11.8047 1.7834 11.7444C5.63387 10.8888 11.0743 10.926 17.6493 14.2135C23.5621 17.1699 28.268 17.1326 31.4419 16.4273C31.5507 16.4032 31.6578 16.3782 31.7632 16.3524C31.7747 16.1064 31.7805 15.8587 31.7805 15.6097C31.7805 14.9834 31.7437 14.3656 31.6719 13.7585ZM31.2535 19.6467C27.4709 20.308 22.3499 20.0541 16.2532 17.0059C10.3405 14.0495 5.63454 14.0868 2.46066 14.7921C1.75616 14.9486 1.12239 15.1393 0.563322 15.3405C0.561798 15.4301 0.561035 15.5198 0.561035 15.6097C0.561035 24.2308 7.54975 31.2195 16.1708 31.2195C23.3958 31.2195 29.4744 26.3109 31.2535 19.6467Z" fill="#7F57F1"/>
</g>
<defs>
<clipPath id="clip0_1069_1675">
<rect width="130.341" height="32" fill="white"/>
</clipPath>
</defs>
</svg>
