<svg width="188" height="32" viewBox="0 0 188 32" fill="none" xmlns="http://www.w3.org/2000/svg">
<g clip-path="url(#clip0_1069_1645)">
<path d="M30.4963 25.2977L30.4987 25.3004L25.4488 29.7312C24.4134 30.6622 23.0747 31.1896 21.6791 31.2155L21.6674 31.2158H4.36207C3.72146 31.2427 3.0831 31.1228 2.49639 30.8653C1.89931 30.6033 1.37182 30.2059 0.956426 29.7046C0.541002 29.2034 0.249335 28.6127 0.104378 27.9796C-0.037883 27.3574 -0.0347958 26.7103 0.114079 26.0892L1.44643 19.3052C1.56496 18.7147 1.8782 18.1801 2.33669 17.7867L2.40202 17.7307C2.26019 17.5166 2.15645 17.2794 2.09562 17.0295C2.01492 16.698 2.01211 16.3531 2.08643 16.0214L3.42143 9.22475L3.42349 9.21508C3.6833 7.99549 4.33771 6.89439 5.28657 6.08036L9.91002 2.02365C10.124 1.77929 10.3588 1.55167 10.6128 1.34358C11.6249 0.514565 12.8843 0.0424867 14.1943 0.000696229L14.2161 0L31.5424 0.0495969C32.1823 0.0229947 32.8199 0.142974 33.406 0.400169C34.0031 0.662233 34.5306 1.05962 34.946 1.5608C35.3613 2.06191 35.6531 2.65271 35.798 3.28604C35.9405 3.90849 35.9371 4.55509 35.7885 5.17579L32.479 22.0699L32.4742 22.0904C32.1836 23.3458 31.4888 24.4718 30.4963 25.2977Z" fill="#0B280D"/>
<path d="M31.2722 1.61067C31.7274 1.5877 32.1816 1.6716 32.5986 1.85551C33.0157 2.03942 33.3839 2.31826 33.6739 2.66987C33.9639 3.02147 34.1676 3.436 34.2688 3.88039C34.37 4.32477 34.3658 4.78671 34.2566 5.22919L30.9613 22.134C30.7298 23.1384 30.1726 24.0381 29.3763 24.6926C28.5801 25.3471 27.5896 25.7198 26.5593 25.7525H9.3181C8.86284 25.7752 8.40852 25.6913 7.99135 25.5074C7.57418 25.3235 7.20573 25.0448 6.9153 24.6934C6.62487 24.3419 6.42049 23.9276 6.31844 23.4833C6.2164 23.039 6.21951 22.5769 6.32751 22.134L7.65807 15.295C7.73608 14.9612 7.92228 14.6626 8.18764 14.4456C8.45301 14.2285 8.78269 14.1053 9.1254 14.0951C12.2715 14.207 15.2932 14.4432 18.1097 15.4566L18.7315 19.3673C18.7467 19.4618 18.7965 19.5472 18.8712 19.6069C18.9459 19.6667 19.0401 19.6965 19.1356 19.6907C19.2453 19.6887 19.3526 19.6579 19.4465 19.6011C19.5404 19.5443 19.6177 19.4636 19.6703 19.3673L21.7967 15.4566L26.0495 14.1137C26.1524 14.0808 26.2449 14.0217 26.318 13.9421C26.391 13.8625 26.4421 13.7652 26.466 13.6599C26.4904 13.5667 26.4789 13.4679 26.434 13.3827C26.3892 13.2976 26.3142 13.2324 26.2235 13.1998L22.493 11.863L21.8713 7.95247C21.8562 7.85748 21.8065 7.77139 21.7321 7.71067C21.6575 7.64987 21.5633 7.61865 21.4672 7.62294C21.3568 7.62544 21.2491 7.65729 21.1551 7.7152C21.0612 7.77311 20.9843 7.85498 20.9325 7.95247L18.8061 11.863C15.7226 12.7475 12.5321 13.2037 9.32434 13.2185C9.17035 13.2316 9.01551 13.2079 8.87244 13.1494C8.72938 13.091 8.60224 12.9996 8.50148 12.8824C8.40072 12.7653 8.32922 12.6258 8.29285 12.4756C8.25648 12.3255 8.25625 12.1687 8.29223 12.0184L9.6228 5.17941C9.85297 4.17549 10.4091 3.27604 11.2043 2.62144C11.9995 1.96684 12.9891 1.59404 14.0186 1.56104L31.2722 1.61067Z" fill="#6C8CFF"/>
<path d="M137.33 24.1975C134.133 24.1975 131.865 22.8938 131.15 20.4342L135.331 18.5403C135.627 19.5487 136.494 20.0161 138.067 20.0161C139.291 20.0161 140.281 19.6471 140.419 18.86C140.593 17.8762 139.619 17.7286 138.135 17.5073C135.677 17.1383 132.15 16.179 132.849 12.2191C133.386 9.16917 136.571 6.83252 140.317 6.83252C143.264 6.83252 145.532 8.13611 146.247 10.5957L142.067 12.4897C141.735 11.678 140.953 11.0139 139.38 11.0139C138.281 11.0139 137.621 11.3582 137.5 12.0469C137.335 12.9815 138.382 13.2767 139.986 13.5226C142.419 13.8917 145.751 14.8263 145.049 18.8108C144.511 21.8608 141.077 24.1975 137.33 24.1975Z" fill="white"/>
<path d="M162.73 23.8039H167.426L171.118 12.0715L172.053 21.787C172.18 23.189 173.307 23.8777 174.681 23.8777C176.079 23.8777 177.379 23.1644 178.064 21.6886L182.428 12.0961L181.712 23.8039H186.382L186.83 9.93163C186.887 7.91477 185.728 6.83252 183.755 6.83252C181.957 6.83252 180.291 7.64417 179.491 9.48893L175.678 18.2206L174.933 9.4151C174.784 7.57042 173.44 6.83252 171.692 6.83252C169.669 6.83252 168.084 7.89018 167.413 9.85787L162.73 23.8039Z" fill="white"/>
<path d="M147.067 16.302C146.2 21.2212 148.065 24.099 153.36 24.099C158.63 24.099 161.56 21.2212 162.427 16.302L164.032 7.20142H159.411L157.828 16.179C157.377 18.737 156.192 19.7947 154.119 19.7947C152.071 19.7947 151.258 18.737 151.709 16.179L153.292 7.20142H148.672L147.067 16.302Z" fill="white"/>
<path fill-rule="evenodd" clip-rule="evenodd" d="M115.629 23.8038L120.254 23.7792L120.965 19.7455H123.063C127.958 19.7455 131.147 17.3842 131.85 13.3997C132.53 9.53804 130.02 7.20142 125.025 7.20142H118.557L115.629 23.8038ZM122.439 11.3827H124.413C126.411 11.3827 127.334 12.096 127.104 13.3997C126.857 14.8017 125.749 15.5641 123.676 15.5641H121.703L122.439 11.3827Z" fill="white"/>
<path d="M110.946 7.20142H115.567L112.639 23.8038H108.019L110.946 7.20142Z" fill="white"/>
<path fill-rule="evenodd" clip-rule="evenodd" d="M89.9378 15.5148C89.066 20.4586 92.2074 24.1726 97.3024 24.1726C102.397 24.1726 106.849 20.4586 107.72 15.5148C108.592 10.571 105.451 6.85693 100.356 6.85693C95.2607 6.85693 90.8096 10.571 89.9378 15.5148ZM102.975 15.5148C102.541 17.9744 100.409 19.8683 98.0611 19.8683C95.7134 19.8683 94.2492 17.9744 94.6831 15.5148C95.1171 13.0552 97.2486 11.1613 99.5963 11.1613C101.944 11.1613 103.409 13.0552 102.975 15.5148Z" fill="white"/>
<path d="M80.2766 24.1726C75.2317 24.1726 72.0576 20.3603 72.912 15.5148C73.7664 10.6693 78.2348 6.85693 83.3298 6.85693C86.3269 6.85693 89.0055 8.38187 89.7392 11.1613L85.6034 13.2274C85.125 11.9729 84.3234 11.1367 82.3753 11.1367C80.0026 11.1367 78.1045 12.9814 77.6444 15.5886C77.163 18.3187 78.4533 20.0651 81.0009 20.0651C82.3495 20.0651 83.2206 19.9421 84.0572 19.3026L84.4444 17.015L80.1212 15.1047H89.2498L89.1211 15.8837H89.1312L88.9884 16.692L88.9798 16.7453L88.979 16.7457L88.2633 20.8029C86.618 22.7706 83.6733 24.1726 80.2766 24.1726Z" fill="white"/>
<path fill-rule="evenodd" clip-rule="evenodd" d="M54.6184 15.5148C53.7467 20.4586 56.8881 24.1726 61.9831 24.1726C67.0781 24.1726 71.5293 20.4586 72.401 15.5148C73.2728 10.571 70.1314 6.85693 65.0364 6.85693C59.9413 6.85693 55.4901 10.571 54.6184 15.5148ZM67.6557 15.5148C67.222 17.9744 65.0898 19.8683 62.7421 19.8683C60.3944 19.8683 58.9301 17.9744 59.3638 15.5148C59.7975 13.0552 61.9297 11.1613 64.2774 11.1613C66.6251 11.1613 68.0894 13.0552 67.6557 15.5148Z" fill="white"/>
<path d="M48.6357 7.20142L46.4455 19.6225H53.8882L53.151 23.8038H45.0838C42.2366 23.8038 41.348 22.328 41.76 19.9914L44.0152 7.20142H48.6357Z" fill="white"/>
</g>
<defs>
<clipPath id="clip0_1069_1645">
<rect width="187.317" height="32" fill="white"/>
</clipPath>
</defs>
</svg>