<svg width="133" height="44" viewBox="0 0 133 44" fill="none" xmlns="http://www.w3.org/2000/svg">
<rect width="132.846" height="44" rx="6.76923" fill="white" fill-opacity="0.1"/>
<path d="M66.8037 23.6298C64.6145 23.6298 62.8303 25.295 62.8303 27.5884C62.8303 29.8678 64.6145 31.5469 66.8037 31.5469C68.9938 31.5469 70.7781 29.8678 70.7781 27.5884C70.7772 25.295 68.9929 23.6298 66.8037 23.6298ZM66.8037 29.9888C65.604 29.9888 64.5699 28.9994 64.5699 27.5893C64.5699 26.1643 65.6049 25.1898 66.8037 25.1898C68.0035 25.1898 69.0376 26.1643 69.0376 27.5893C69.0376 28.9985 68.0035 29.9888 66.8037 29.9888ZM58.1345 23.6298C55.9454 23.6298 54.1611 25.295 54.1611 27.5884C54.1611 29.8678 55.9454 31.5469 58.1345 31.5469C60.3246 31.5469 62.1089 29.8678 62.1089 27.5884C62.1089 25.295 60.3246 23.6298 58.1345 23.6298ZM58.1345 29.9888C56.9348 29.9888 55.9007 28.9994 55.9007 27.5893C55.9007 26.1643 56.9357 25.1898 58.1345 25.1898C59.3343 25.1898 60.3684 26.1643 60.3684 27.5893C60.3693 28.9985 59.3343 29.9888 58.1345 29.9888ZM47.8235 24.8454V26.5245H51.8425C51.7225 27.4692 51.4079 28.1589 50.9276 28.6383C50.3431 29.2228 49.4281 29.8678 47.8235 29.8678C45.3495 29.8678 43.4153 27.8732 43.4153 25.3992C43.4153 22.9252 45.3495 20.9306 47.8235 20.9306C49.1582 20.9306 50.1327 21.4555 50.8522 22.1303L52.0371 20.9455C51.0318 19.9858 49.698 19.2515 47.8235 19.2515C44.4345 19.2515 41.5854 22.0103 41.5854 25.3992C41.5854 28.7881 44.4345 31.5469 47.8235 31.5469C49.6524 31.5469 51.0328 30.9466 52.1115 29.8222C53.221 28.7127 53.5663 27.1528 53.5663 25.8934C53.5663 25.5044 53.5365 25.1442 53.476 24.8445H47.8235V24.8454ZM89.9948 26.1494C89.6653 25.2652 88.66 23.6298 86.6058 23.6298C84.5665 23.6298 82.8716 25.2345 82.8716 27.5884C82.8716 29.8073 84.5516 31.5469 86.8004 31.5469C88.6144 31.5469 89.6643 30.4375 90.0999 29.7924L88.7503 28.8924C88.3008 29.5523 87.6855 29.987 86.8004 29.987C85.9161 29.987 85.286 29.5821 84.8811 28.7872L90.1744 26.598L89.9948 26.1494ZM84.5963 27.4692C84.5516 25.939 85.7812 25.16 86.6663 25.16C87.356 25.16 87.9405 25.5053 88.136 25.9995L84.5963 27.4692ZM80.2933 31.3077H82.032V19.6722H80.2933V31.3077ZM77.4433 24.515H77.3838C76.9938 24.0496 76.2436 23.6298 75.2998 23.6298C73.32 23.6298 71.506 25.3694 71.506 27.6042C71.506 29.8231 73.32 31.5479 75.2998 31.5479C76.2445 31.5479 76.9938 31.1281 77.3838 30.6487H77.4433V31.2184C77.4433 32.7327 76.6336 33.5425 75.3296 33.5425C74.2648 33.5425 73.6048 32.7783 73.3349 32.1333L71.8206 32.7634C72.2552 33.8124 73.4094 35.1025 75.3296 35.1025C77.3689 35.1025 79.0936 33.9027 79.0936 30.9782V23.8709H77.4443V24.515H77.4433ZM75.4496 29.9888C74.2499 29.9888 73.2456 28.9836 73.2456 27.6042C73.2456 26.209 74.2499 25.1898 75.4496 25.1898C76.6336 25.1898 77.5634 26.209 77.5634 27.6042C77.5634 28.9836 76.6336 29.9888 75.4496 29.9888ZM98.1427 19.6722H93.9812V31.3077H95.7171V26.8996H98.1418C100.067 26.8996 101.96 25.5062 101.96 23.2863C101.96 21.0665 100.068 19.6722 98.1427 19.6722ZM98.1874 25.2801H95.7171V21.2917H98.1874C99.4858 21.2917 100.223 22.3667 100.223 23.2863C100.223 24.1873 99.4858 25.2801 98.1874 25.2801ZM108.921 23.6093C107.664 23.6093 106.361 24.1631 105.822 25.3908L107.364 26.034C107.693 25.3908 108.308 25.1805 108.951 25.1805C109.849 25.1805 110.762 25.7194 110.777 26.6771V26.7972C110.462 26.6176 109.788 26.3486 108.966 26.3486C107.304 26.3486 105.612 27.2617 105.612 28.9678C105.612 30.5249 106.975 31.5274 108.501 31.5274C109.668 31.5274 110.313 31.0034 110.716 30.3891H110.776V31.2872H112.453V26.8261C112.454 24.7616 110.911 23.6093 108.921 23.6093ZM108.711 29.986C108.143 29.986 107.349 29.7012 107.349 28.9976C107.349 28.0994 108.337 27.755 109.191 27.755C109.953 27.755 110.313 27.9197 110.777 28.144C110.642 29.2228 109.714 29.986 108.711 29.986ZM118.561 23.8634L116.57 28.9082H116.511L114.444 23.8634H112.573L115.672 30.914L113.905 34.8363H115.717L120.492 23.8634H118.561ZM102.918 31.3077H104.654V19.6722H102.918V31.3077Z" fill="white"/>
<path d="M47.5201 12.9185C47.5201 13.6985 47.2892 14.3193 46.8266 14.7828C46.3017 15.3339 45.6166 15.6094 44.7752 15.6094C43.9692 15.6094 43.2832 15.3301 42.7201 14.7717C42.156 14.2123 41.874 13.5198 41.874 12.6933C41.874 11.8658 42.156 11.1733 42.7201 10.6149C43.2832 10.0555 43.9692 9.77623 44.7752 9.77623C45.1755 9.77623 45.558 9.85442 45.921 10.0099C46.2849 10.1662 46.5763 10.3738 46.7941 10.6335L46.3036 11.1249C45.934 10.6828 45.4249 10.4622 44.7743 10.4622C44.1861 10.4622 43.6779 10.6688 43.2488 11.0821C42.8197 11.4954 42.6056 12.0324 42.6056 12.6923C42.6056 13.3522 42.8197 13.8893 43.2488 14.3026C43.6779 14.7158 44.1861 14.9225 44.7743 14.9225C45.3979 14.9225 45.9182 14.7149 46.3343 14.2988C46.6042 14.028 46.7606 13.651 46.8024 13.168H44.7743V12.4969H47.48C47.508 12.643 47.5201 12.7835 47.5201 12.9185Z" fill="white"/>
<path d="M51.811 10.5861H49.2681V12.3564H51.5616V13.0275H49.2681V14.7978H51.811V15.4847H48.5505V9.90008H51.811V10.5861Z" fill="white"/>
<path d="M54.8368 15.4847H54.1192V10.5861H52.5592V9.90008H56.3968V10.5861H54.8368V15.4847Z" fill="white"/>
<path d="M59.1732 15.4847V9.90008H59.8909V15.4847H59.1732Z" fill="white"/>
<path d="M63.0733 15.4847H62.3557V10.5861H60.7957V9.90008H64.6333V10.5861H63.0733V15.4847Z" fill="white"/>
<path d="M71.8977 14.7633C71.3486 15.3274 70.6663 15.6094 69.85 15.6094C69.0337 15.6094 68.3515 15.3274 67.8033 14.7633C67.2541 14.1993 66.9805 13.5087 66.9805 12.6924C66.9805 11.8761 67.2541 11.1855 67.8033 10.6214C68.3515 10.0574 69.0337 9.77441 69.85 9.77441C70.6617 9.77441 71.343 10.0583 71.894 10.6251C72.445 11.192 72.7205 11.8807 72.7205 12.6924C72.7205 13.5087 72.446 14.1993 71.8977 14.7633ZM68.3329 14.2952C68.7461 14.714 69.2515 14.9225 69.85 14.9225C70.4485 14.9225 70.9549 14.7131 71.3672 14.2952C71.7805 13.8763 71.988 13.3421 71.988 12.6924C71.988 12.0427 71.7805 11.5084 71.3672 11.0896C70.9549 10.6707 70.4485 10.4623 69.85 10.4623C69.2515 10.4623 68.7461 10.6717 68.3329 11.0896C67.9206 11.5084 67.713 12.0427 67.713 12.6924C67.713 13.3421 67.9206 13.8763 68.3329 14.2952Z" fill="white"/>
<path d="M73.7276 15.4847V9.90008H74.6007L77.3148 14.244H77.3455L77.3148 13.168V9.90008H78.0324V15.4847H77.2832L74.4434 10.9295H74.4127L74.4434 12.0055V15.4847H73.7276Z" fill="white"/>
<path d="M47.5201 12.9185C47.5201 13.6985 47.2892 14.3193 46.8266 14.7828C46.3017 15.3339 45.6166 15.6094 44.7752 15.6094C43.9692 15.6094 43.2832 15.3301 42.7201 14.7717C42.156 14.2123 41.874 13.5198 41.874 12.6933C41.874 11.8658 42.156 11.1733 42.7201 10.6149C43.2832 10.0555 43.9692 9.77623 44.7752 9.77623C45.1755 9.77623 45.558 9.85442 45.921 10.0099C46.2849 10.1662 46.5763 10.3738 46.7941 10.6335L46.3036 11.1249C45.934 10.6828 45.4249 10.4622 44.7743 10.4622C44.1861 10.4622 43.6779 10.6688 43.2488 11.0821C42.8197 11.4954 42.6056 12.0324 42.6056 12.6923C42.6056 13.3522 42.8197 13.8893 43.2488 14.3026C43.6779 14.7158 44.1861 14.9225 44.7743 14.9225C45.3979 14.9225 45.9182 14.7149 46.3343 14.2988C46.6042 14.028 46.7606 13.651 46.8024 13.168H44.7743V12.4969H47.48C47.508 12.643 47.5201 12.7835 47.5201 12.9185Z" stroke="white" stroke-width="0.169231" stroke-miterlimit="10"/>
<path d="M51.811 10.5861H49.2681V12.3564H51.5616V13.0275H49.2681V14.7978H51.811V15.4847H48.5505V9.90008H51.811V10.5861Z" stroke="white" stroke-width="0.169231" stroke-miterlimit="10"/>
<path d="M54.8368 15.4847H54.1192V10.5861H52.5592V9.90008H56.3968V10.5861H54.8368V15.4847Z" stroke="white" stroke-width="0.169231" stroke-miterlimit="10"/>
<path d="M59.1732 15.4847V9.90008H59.8909V15.4847H59.1732Z" stroke="white" stroke-width="0.169231" stroke-miterlimit="10"/>
<path d="M63.0733 15.4847H62.3557V10.5861H60.7957V9.90008H64.6333V10.5861H63.0733V15.4847Z" stroke="white" stroke-width="0.169231" stroke-miterlimit="10"/>
<path d="M71.8977 14.7633C71.3486 15.3274 70.6663 15.6094 69.85 15.6094C69.0337 15.6094 68.3515 15.3274 67.8033 14.7633C67.2541 14.1993 66.9805 13.5087 66.9805 12.6924C66.9805 11.8761 67.2541 11.1855 67.8033 10.6214C68.3515 10.0574 69.0337 9.77441 69.85 9.77441C70.6617 9.77441 71.343 10.0583 71.894 10.6251C72.445 11.192 72.7205 11.8807 72.7205 12.6924C72.7205 13.5087 72.446 14.1993 71.8977 14.7633ZM68.3329 14.2952C68.7461 14.714 69.2515 14.9225 69.85 14.9225C70.4485 14.9225 70.9549 14.7131 71.3672 14.2952C71.7805 13.8763 71.988 13.3421 71.988 12.6924C71.988 12.0427 71.7805 11.5084 71.3672 11.0896C70.9549 10.6707 70.4485 10.4623 69.85 10.4623C69.2515 10.4623 68.7461 10.6717 68.3329 11.0896C67.9206 11.5084 67.713 12.0427 67.713 12.6924C67.713 13.3421 67.9206 13.8763 68.3329 14.2952Z" stroke="white" stroke-width="0.169231" stroke-miterlimit="10"/>
<path d="M73.7276 15.4847V9.90008H74.6007L77.3148 14.244H77.3455L77.3148 13.168V9.90008H78.0324V15.4847H77.2832L74.4434 10.9295H74.4127L74.4434 12.0055V15.4847H73.7276Z" stroke="white" stroke-width="0.169231" stroke-miterlimit="10"/>
<g filter="url(#filter0_ii_1069_2348)">
<path d="M13.0984 10.401C12.8276 10.6876 12.6675 11.1325 12.6675 11.7087V32.2936C12.6675 32.8707 12.8276 33.3146 13.0984 33.6013L13.1673 33.6683L24.6986 22.137V22.0011V21.8652L13.1673 10.333L13.0984 10.401Z" fill="url(#paint0_linear_1069_2348)"/>
<path d="M28.5419 25.9819L24.6987 22.1369V22.001V21.8651L28.5428 18.021L28.6294 18.0703L33.1836 20.6579C34.4839 21.3969 34.4839 22.606 33.1836 23.3459L28.6294 25.9335L28.5419 25.9819Z" fill="url(#paint1_linear_1069_2348)"/>
<g filter="url(#filter1_i_1069_2348)">
<path d="M28.6295 25.9325L24.6979 22.001L13.0986 33.6012C13.5268 34.0554 14.2351 34.1112 15.0328 33.6589L28.6295 25.9325Z" fill="url(#paint2_linear_1069_2348)"/>
</g>
<path d="M28.6295 18.0694L15.0328 10.3441C14.2351 9.89077 13.5268 9.94755 13.0986 10.4018L24.6988 22.0019L28.6295 18.0694Z" fill="url(#paint3_linear_1069_2348)"/>
</g>
<defs>
<filter id="filter0_ii_1069_2348" x="12.6675" y="10.0312" width="21.4912" height="23.9399" filterUnits="userSpaceOnUse" color-interpolation-filters="sRGB">
<feFlood flood-opacity="0" result="BackgroundImageFix"/>
<feBlend mode="normal" in="SourceGraphic" in2="BackgroundImageFix" result="shape"/>
<feColorMatrix in="SourceAlpha" type="matrix" values="0 0 0 0 0 0 0 0 0 0 0 0 0 0 0 0 0 0 127 0" result="hardAlpha"/>
<feOffset dy="-0.126923"/>
<feComposite in2="hardAlpha" operator="arithmetic" k2="-1" k3="1"/>
<feColorMatrix type="matrix" values="0 0 0 0 0 0 0 0 0 0 0 0 0 0 0 0 0 0 0.12 0"/>
<feBlend mode="normal" in2="shape" result="effect1_innerShadow_1069_2348"/>
<feColorMatrix in="SourceAlpha" type="matrix" values="0 0 0 0 0 0 0 0 0 0 0 0 0 0 0 0 0 0 127 0" result="hardAlpha"/>
<feOffset dy="0.126923"/>
<feComposite in2="hardAlpha" operator="arithmetic" k2="-1" k3="1"/>
<feColorMatrix type="matrix" values="0 0 0 0 1 0 0 0 0 1 0 0 0 0 1 0 0 0 0.25 0"/>
<feBlend mode="normal" in2="effect1_innerShadow_1069_2348" result="effect2_innerShadow_1069_2348"/>
</filter>
<filter id="filter1_i_1069_2348" x="13.0986" y="22.001" width="15.5308" height="11.9702" filterUnits="userSpaceOnUse" color-interpolation-filters="sRGB">
<feFlood flood-opacity="0" result="BackgroundImageFix"/>
<feBlend mode="normal" in="SourceGraphic" in2="BackgroundImageFix" result="shape"/>
<feColorMatrix in="SourceAlpha" type="matrix" values="0 0 0 0 0 0 0 0 0 0 0 0 0 0 0 0 0 0 127 0" result="hardAlpha"/>
<feOffset dy="-0.126923"/>
<feComposite in2="hardAlpha" operator="arithmetic" k2="-1" k3="1"/>
<feColorMatrix type="matrix" values="0 0 0 0 0 0 0 0 0 0 0 0 0 0 0 0 0 0 0.08 0"/>
<feBlend mode="normal" in2="shape" result="effect1_innerShadow_1069_2348"/>
</filter>
<linearGradient id="paint0_linear_1069_2348" x1="23.6764" y1="11.4909" x2="8.05627" y2="27.1111" gradientUnits="userSpaceOnUse">
<stop stop-color="#00A0FF"/>
<stop offset="0.0066" stop-color="#00A1FF"/>
<stop offset="0.2601" stop-color="#00BEFF"/>
<stop offset="0.5122" stop-color="#00D2FF"/>
<stop offset="0.7604" stop-color="#00DFFF"/>
<stop offset="1" stop-color="#00E3FF"/>
</linearGradient>
<linearGradient id="paint1_linear_1069_2348" x1="34.8762" y1="22.001" x2="12.3554" y2="22.001" gradientUnits="userSpaceOnUse">
<stop stop-color="#FFE000"/>
<stop offset="0.4087" stop-color="#FFBD00"/>
<stop offset="0.7754" stop-color="#FFA500"/>
<stop offset="1" stop-color="#FF9C00"/>
</linearGradient>
<linearGradient id="paint2_linear_1069_2348" x1="26.4944" y1="24.1361" x2="5.31145" y2="45.319" gradientUnits="userSpaceOnUse">
<stop stop-color="#FF3A44"/>
<stop offset="1" stop-color="#C31162"/>
</linearGradient>
<linearGradient id="paint3_linear_1069_2348" x1="10.1773" y1="3.54926" x2="19.6361" y2="13.008" gradientUnits="userSpaceOnUse">
<stop stop-color="#32A071"/>
<stop offset="0.0685" stop-color="#2DA771"/>
<stop offset="0.4762" stop-color="#15CF74"/>
<stop offset="0.8009" stop-color="#06E775"/>
<stop offset="1" stop-color="#00F076"/>
</linearGradient>
</defs>
</svg>