<svg width="32" height="32" viewBox="0 0 32 32" fill="none" xmlns="http://www.w3.org/2000/svg">
<path d="M16 32C24.8366 32 32 24.8366 32 16C32 7.16344 24.8366 0 16 0C7.16344 0 0 7.16344 0 16C0 24.8366 7.16344 32 16 32Z" fill="#F49B33"/>
<path d="M21.8938 12.7325C21.7373 10.726 20.0162 10.0234 17.8378 9.7933L17.8869 7.01362L16.1964 6.98601L16.1473 9.69205C15.7024 9.68285 15.2484 9.68592 14.7943 9.68592L14.8434 6.96147L13.1529 6.93079L13.1038 9.71046C12.7387 9.71046 12.3767 9.71353 12.0269 9.70432V9.69512L9.69209 9.65524L9.66141 11.4623C9.66141 11.4623 10.9132 11.4593 10.8917 11.4838C11.5759 11.4961 11.7937 11.898 11.852 12.2416L11.7968 15.4079C11.8428 15.4079 11.9042 15.4109 11.9747 15.4232L11.7968 15.4201L11.7201 19.8566C11.6863 20.0713 11.5544 20.4119 11.0727 20.4058C11.0942 20.4242 9.84243 20.3843 9.84243 20.3843L9.47119 22.3969L11.6741 22.4368C12.0821 22.446 12.4871 22.4583 12.8829 22.4675L12.8338 25.2779L14.5243 25.3055L14.5734 22.5258C15.0367 22.5411 15.4877 22.5534 15.9264 22.5626L15.8773 25.33L17.5678 25.3576L17.6169 22.5534C20.4641 22.4399 22.4675 21.7588 22.7621 19.0896C22.9983 16.9419 22.0043 15.9632 20.3966 15.549C21.3845 15.0704 22.0135 14.2021 21.8938 12.7325ZM19.421 18.703C19.3872 20.8046 15.7914 20.5009 14.644 20.4825L14.7115 16.7578C15.8589 16.7762 19.4608 16.5093 19.421 18.703ZM18.7276 13.432C18.6938 15.3434 15.6963 15.0673 14.7421 15.052L14.8004 11.674C15.7546 11.6894 18.7613 11.4378 18.7276 13.432Z" fill="white"/>
</svg>