<svg width="32" height="32" viewBox="0 0 32 32" fill="none" xmlns="http://www.w3.org/2000/svg">
<path d="M25.2506 10.6823C25.1771 10.7606 25.0851 10.8215 24.984 10.8564C24.8828 10.8999 24.7725 10.9173 24.6622 10.9173H3.83548C3.09988 10.9173 2.72288 10.0468 3.2378 9.5245L6.65835 6.08603C6.73191 6.00768 6.82386 5.94675 6.9342 5.90322C7.03534 5.8597 7.14568 5.84229 7.25602 5.84229H28.1655C28.9102 5.84229 29.2781 6.72149 28.7539 7.24379L25.2506 10.6823ZM25.2506 26.0553C25.0943 26.2033 24.8828 26.2903 24.6622 26.2903H3.83548C3.09988 26.2903 2.72288 25.4372 3.2378 24.9323L6.65835 21.5722C6.73191 21.4939 6.83305 21.4329 6.9342 21.3981C7.03534 21.3546 7.14568 21.3372 7.25602 21.3372H28.1655C28.9102 21.3372 29.2781 22.199 28.7539 22.7039L25.2506 26.0553ZM25.2506 13.8248C25.0943 13.6768 24.8828 13.5897 24.6622 13.5897H3.83548C3.09988 13.5897 2.72288 14.4428 3.2378 14.9477L6.65835 18.3078C6.73191 18.3862 6.83305 18.4471 6.9342 18.4819C7.03534 18.5255 7.14568 18.5429 7.25602 18.5429H28.1655C28.9102 18.5429 29.2781 17.6811 28.7539 17.1762L25.2506 13.8248Z" fill="url(#paint0_linear_1148_124)"/>
<defs>
<linearGradient id="paint0_linear_1148_124" x1="4.58985" y1="26.5455" x2="26.1283" y2="4.39566" gradientUnits="userSpaceOnUse">
<stop stop-color="#CF41E8"/>
<stop offset="1" stop-color="#10F2B0"/>
</linearGradient>
</defs>
</svg>
