<svg width="32" height="32" viewBox="0 0 32 32" fill="none" xmlns="http://www.w3.org/2000/svg">
<path d="M8.77667 9.65065C12.7861 10.3575 15.1757 11.8361 16 12.6849C16.8243 11.8361 19.2139 10.3575 23.2233 9.65065C25.2545 9.29255 26.2701 9.11351 27.1351 9.79977C28 10.486 28 11.6004 28 13.8292V21.839C28 23.877 28 24.8959 27.4449 25.532C26.8897 26.1682 25.6676 26.3836 23.2233 26.8146C21.0444 27.1987 19.3439 27.8107 18.1129 28.4258C16.902 29.031 16.2964 29.3335 16 29.3335C15.7036 29.3335 15.098 29.031 13.8871 28.4258C12.6561 27.8107 10.9556 27.1987 8.77667 26.8146C6.33239 26.3836 5.11024 26.1682 4.55512 25.532C4 24.8959 4 23.877 4 21.839V13.8292C4 11.6004 4 10.486 4.86493 9.79977C5.72988 9.11351 6.74548 9.29255 8.77667 9.65065Z" stroke="#6C8CFF" stroke-width="2" stroke-linecap="round" stroke-linejoin="round"/>
<path d="M16 12V29.3333" stroke="#6C8CFF" stroke-width="2" stroke-linejoin="round"/>
<path d="M11.3335 4.07793C12.682 3.1838 14.2787 2.6665 15.9903 2.6665C17.7102 2.6665 19.3142 3.18886 20.6668 4.09105M18.1631 7.33317C17.523 6.94684 16.7811 6.72596 15.9903 6.72596C15.2079 6.72596 14.4735 6.94216 13.838 7.32088" stroke="#6C8CFF" stroke-width="2" stroke-linecap="round"/>
</svg>
