<svg width="130" height="48" viewBox="0 0 130 48" fill="none" xmlns="http://www.w3.org/2000/svg">
<rect width="129.231" height="48" rx="7.38462" fill="white" fill-opacity="0.1"/>
<path d="M86.4721 23.1886V25.5149H85.0139V27.0405H86.4721V32.224C86.4721 33.994 87.2728 34.7019 89.2872 34.7019C89.6412 34.7019 89.9783 34.6598 90.2733 34.6092V33.1005C90.0205 33.1258 89.8603 33.1427 89.5822 33.1427C88.6803 33.1427 88.2842 32.7212 88.2842 31.7604V27.0405H90.2733V25.5149H88.2842V23.1886H86.4721Z" fill="white"/>
<path d="M95.4049 34.8284C98.0852 34.8284 99.7287 33.0331 99.7287 30.0578C99.7287 27.0995 98.0767 25.2958 95.4049 25.2958C92.7247 25.2958 91.0727 27.0995 91.0727 30.0578C91.0727 33.0331 92.7162 34.8284 95.4049 34.8284ZM95.4049 33.2185C93.8288 33.2185 92.9438 32.0638 92.9438 30.0578C92.9438 28.0687 93.8288 26.9056 95.4049 26.9056C96.9726 26.9056 97.866 28.0687 97.866 30.0578C97.866 32.0554 96.9726 33.2185 95.4049 33.2185Z" fill="white"/>
<path d="M101.135 34.6514H102.947V29.2319C102.947 27.9423 103.916 27.0742 105.29 27.0742C105.61 27.0742 106.15 27.1332 106.302 27.1837V25.3969C106.108 25.3463 105.762 25.321 105.492 25.321C104.296 25.321 103.276 25.9785 103.014 26.8803H102.88V25.4728H101.135V34.6514Z" fill="white"/>
<path d="M110.801 26.8382C112.141 26.8382 113.018 27.7737 113.06 29.215H108.424C108.525 27.7822 109.461 26.8382 110.801 26.8382ZM113.051 32.1734C112.714 32.8898 111.964 33.286 110.868 33.286C109.419 33.286 108.483 32.2661 108.424 30.6563V30.5551H114.906V29.923C114.906 27.0405 113.363 25.2958 110.809 25.2958C108.222 25.2958 106.578 27.1584 106.578 30.0916C106.578 33.0247 108.188 34.8284 110.818 34.8284C112.917 34.8284 114.383 33.817 114.796 32.1734H113.051Z" fill="white"/>
<path d="M74.5884 31.2619C74.7282 33.5157 76.6064 34.9571 79.4019 34.9571C82.3896 34.9571 84.259 33.4458 84.259 31.0347C84.259 29.139 83.1933 28.0907 80.6074 27.488L79.2184 27.1473C77.5761 26.7629 76.9122 26.2475 76.9122 25.3477C76.9122 24.212 77.943 23.4694 79.4893 23.4694C80.9569 23.4694 81.9702 24.1945 82.1537 25.3564H84.0581C83.9445 23.2336 82.0751 21.7397 79.5155 21.7397C76.7637 21.7397 74.9291 23.2336 74.9291 25.4787C74.9291 27.3307 75.9687 28.4314 78.2488 28.9643L79.8736 29.3574C81.5422 29.7505 82.276 30.3271 82.276 31.2881C82.276 32.4063 81.1229 33.2187 79.5504 33.2187C77.8644 33.2187 76.6938 32.4587 76.5278 31.2619H74.5884Z" fill="white"/>
<path d="M55.8167 25.321C54.5693 25.321 53.4904 25.9447 52.9341 26.9899H52.7993V25.4728H51.0546V37.7025H52.8667V33.2607H53.01C53.4904 34.2299 54.5271 34.8031 55.8335 34.8031C58.1514 34.8031 59.6263 32.9741 59.6263 30.0578C59.6263 27.1416 58.1514 25.321 55.8167 25.321ZM55.3025 33.1764C53.7854 33.1764 52.833 31.9795 52.833 30.0663C52.833 28.1446 53.7854 26.9477 55.311 26.9477C56.8449 26.9477 57.7636 28.1193 57.7636 30.0578C57.7636 32.0048 56.8449 33.1764 55.3025 33.1764Z" fill="white"/>
<path d="M65.9673 25.321C64.7198 25.321 63.641 25.9447 63.0847 26.9899H62.9499V25.4728H61.2052V37.7025H63.0173V33.2607H63.1606C63.641 34.2299 64.6777 34.8031 65.9841 34.8031C68.302 34.8031 69.7769 32.9741 69.7769 30.0578C69.7769 27.1416 68.302 25.321 65.9673 25.321ZM65.4531 33.1764C63.936 33.1764 62.9836 31.9795 62.9836 30.0663C62.9836 28.1446 63.936 26.9477 65.4616 26.9477C66.9955 26.9477 67.9142 28.1193 67.9142 30.0578C67.9142 32.0048 66.9955 33.1764 65.4531 33.1764Z" fill="white"/>
<path d="M47.8033 34.6514H49.8824L45.3311 22.0455H43.2257L38.6743 34.6514H40.6836L41.8454 31.3055H46.6502L47.8033 34.6514ZM44.1779 24.3343H44.3264L46.1522 29.6632H42.3434L44.1779 24.3343Z" fill="white"/>
<path d="M39.8916 12.5375V18.6186H42.0872C43.8993 18.6186 44.9487 17.5019 44.9487 15.5591C44.9487 13.6458 43.8909 12.5375 42.0872 12.5375H39.8916ZM40.8356 13.3972H41.9819C43.2419 13.3972 43.9878 14.1979 43.9878 15.5717C43.9878 16.9667 43.2546 17.7589 41.9819 17.7589H40.8356V13.3972Z" fill="white"/>
<path d="M48.1625 18.7071C49.5026 18.7071 50.3244 17.8095 50.3244 16.3219C50.3244 14.8427 49.4984 13.9408 48.1625 13.9408C46.8223 13.9408 45.9964 14.8427 45.9964 16.3219C45.9964 17.8095 46.8181 18.7071 48.1625 18.7071ZM48.1625 17.9022C47.3744 17.9022 46.9319 17.3249 46.9319 16.3219C46.9319 15.3273 47.3744 14.7458 48.1625 14.7458C48.9463 14.7458 49.393 15.3273 49.393 16.3219C49.393 17.3207 48.9463 17.9022 48.1625 17.9022Z" fill="white"/>
<path d="M57.3226 14.0293H56.4165L55.5989 17.5314H55.5273L54.5833 14.0293H53.7152L52.7712 17.5314H52.7037L51.882 14.0293H50.9633L52.2275 18.6186H53.1589L54.1029 15.2388H54.1745L55.1227 18.6186H56.0625L57.3226 14.0293Z" fill="white"/>
<path d="M58.366 18.6186H59.2721V15.9342C59.2721 15.2178 59.6977 14.771 60.3678 14.771C61.0378 14.771 61.3581 15.1377 61.3581 15.8752V18.6186H62.2642V15.6476C62.2642 14.5561 61.6995 13.9408 60.6754 13.9408C59.9843 13.9408 59.5291 14.2485 59.3058 14.7584H59.2383V14.0293H58.366V18.6186Z" fill="white"/>
<path d="M63.6911 18.6186H64.5972V12.2383H63.6911V18.6186Z" fill="white"/>
<path d="M68.0048 18.7071C69.3449 18.7071 70.1667 17.8095 70.1667 16.3219C70.1667 14.8427 69.3407 13.9408 68.0048 13.9408C66.6647 13.9408 65.8387 14.8427 65.8387 16.3219C65.8387 17.8095 66.6605 18.7071 68.0048 18.7071ZM68.0048 17.9022C67.2168 17.9022 66.7743 17.3249 66.7743 16.3219C66.7743 15.3273 67.2168 14.7458 68.0048 14.7458C68.7887 14.7458 69.2354 15.3273 69.2354 16.3219C69.2354 17.3207 68.7887 17.9022 68.0048 17.9022Z" fill="white"/>
<path d="M72.8664 17.9317C72.3733 17.9317 72.0151 17.6915 72.0151 17.2785C72.0151 16.8739 72.3017 16.659 72.9338 16.6169L74.0548 16.5452V16.9287C74.0548 17.4977 73.5491 17.9317 72.8664 17.9317ZM72.6346 18.6945C73.2372 18.6945 73.7387 18.4332 74.0126 17.9739H74.0843V18.6186H74.9566V15.4832C74.9566 14.514 74.3076 13.9408 73.1571 13.9408C72.1162 13.9408 71.3745 14.4465 71.2818 15.2346H72.1584C72.2595 14.9101 72.6093 14.7247 73.115 14.7247C73.7345 14.7247 74.0548 14.9986 74.0548 15.4832V15.8794L72.8116 15.951C71.7201 16.0185 71.1048 16.4947 71.1048 17.3207C71.1048 18.1593 71.7496 18.6945 72.6346 18.6945Z" fill="white"/>
<path d="M78.0313 18.6945C78.6635 18.6945 79.1987 18.3953 79.4726 17.8938H79.5443V18.6186H80.4124V12.2383H79.5063V14.7584H79.4389C79.1903 14.2527 78.6593 13.9535 78.0313 13.9535C76.8724 13.9535 76.1265 14.8722 76.1265 16.3219C76.1265 17.7758 76.864 18.6945 78.0313 18.6945ZM78.2884 14.7668C79.047 14.7668 79.5232 15.3695 79.5232 16.3261C79.5232 17.2869 79.0512 17.8812 78.2884 17.8812C77.5214 17.8812 77.0621 17.2954 77.0621 16.3219C77.0621 15.3568 77.5256 14.7668 78.2884 14.7668Z" fill="white"/>
<path d="M86.2879 18.7071C87.628 18.7071 88.4498 17.8095 88.4498 16.3219C88.4498 14.8427 87.6238 13.9408 86.2879 13.9408C84.9478 13.9408 84.1218 14.8427 84.1218 16.3219C84.1218 17.8095 84.9435 18.7071 86.2879 18.7071ZM86.2879 17.9022C85.4998 17.9022 85.0573 17.3249 85.0573 16.3219C85.0573 15.3273 85.4998 14.7458 86.2879 14.7458C87.0717 14.7458 87.5184 15.3273 87.5184 16.3219C87.5184 17.3207 87.0717 17.9022 86.2879 17.9022Z" fill="white"/>
<path d="M89.6492 18.6186H90.5552V15.9342C90.5552 15.2178 90.9809 14.771 91.6509 14.771C92.321 14.771 92.6413 15.1377 92.6413 15.8752V18.6186H93.5473V15.6476C93.5473 14.5561 92.9826 13.9408 91.9586 13.9408C91.2674 13.9408 90.8123 14.2485 90.5889 14.7584H90.5215V14.0293H89.6492V18.6186Z" fill="white"/>
<path d="M97.7203 12.8873V14.0504H96.9912V14.8132H97.7203V17.4049C97.7203 18.2899 98.1206 18.6439 99.1278 18.6439C99.3048 18.6439 99.4734 18.6229 99.6209 18.5976V17.8432C99.4945 17.8559 99.4144 17.8643 99.2753 17.8643C98.8244 17.8643 98.6263 17.6536 98.6263 17.1732V14.8132H99.6209V14.0504H98.6263V12.8873H97.7203Z" fill="white"/>
<path d="M100.837 18.6186H101.743V15.9384C101.743 15.243 102.156 14.7753 102.898 14.7753C103.538 14.7753 103.88 15.1461 103.88 15.8794V18.6186H104.786V15.656C104.786 14.5645 104.183 13.945 103.206 13.945C102.514 13.945 102.03 14.2527 101.806 14.7668H101.735V12.2383H100.837V18.6186Z" fill="white"/>
<path d="M108.054 14.712C108.725 14.712 109.163 15.1798 109.184 15.9005H106.866C106.917 15.184 107.384 14.712 108.054 14.712ZM109.18 17.3797C109.011 17.7379 108.636 17.9359 108.088 17.9359C107.363 17.9359 106.896 17.426 106.866 16.6211V16.5705H110.107V16.2545C110.107 14.8132 109.336 13.9408 108.059 13.9408C106.765 13.9408 105.943 14.8722 105.943 16.3387C105.943 17.8053 106.748 18.7071 108.063 18.7071C109.112 18.7071 109.846 18.2014 110.052 17.3797H109.18Z" fill="white"/>
<path d="M28.8419 24.3054C28.8638 22.5985 29.7805 20.9835 31.2347 20.0895C30.3173 18.7793 28.7807 17.9486 27.1821 17.8986C25.477 17.7196 23.824 18.9189 22.9552 18.9189C22.0695 18.9189 20.7317 17.9163 19.2911 17.946C17.4134 18.0067 15.663 19.0742 14.7494 20.7158C12.7857 24.1158 14.2504 29.1125 16.1316 31.8608C17.0727 33.2065 18.1727 34.7097 19.6119 34.6564C21.0203 34.598 21.5463 33.7583 23.2464 33.7583C24.9307 33.7583 25.4242 34.6564 26.8926 34.6225C28.4039 34.598 29.3561 33.2708 30.2642 31.9123C30.9405 30.9534 31.4608 29.8937 31.806 28.7722C30.03 28.0211 28.8439 26.2337 28.8419 24.3054Z" fill="white"/>
<path d="M26.0682 16.0912C26.8922 15.102 27.2981 13.8306 27.1998 12.5469C25.9409 12.6791 24.778 13.2808 23.9429 14.232C23.1262 15.1614 22.7013 16.4105 22.7816 17.6451C24.041 17.6581 25.279 17.0727 26.0682 16.0912Z" fill="white"/>
</svg>
