<svg width="24" height="24" viewBox="0 0 24 24" fill="none" xmlns="http://www.w3.org/2000/svg">
<path d="M10.125 14.5V8.5M12 8.5V7M12 16V14.5M10.125 11.5H13.875M13.875 11.5C14.4963 11.5 15 12.0037 15 12.625V13.375C15 13.9963 14.4963 14.5 13.875 14.5H9M13.875 11.5C14.4963 11.5 15 10.9963 15 10.375V9.625C15 9.00368 14.4963 8.5 13.875 8.5H9" stroke="#6C8CFF" stroke-width="1.5" stroke-linecap="round" stroke-linejoin="round"/>
<path d="M21 11.1836V8.28053C21 6.64053 21 5.82053 20.5959 5.28553C20.1918 4.75054 19.2781 4.49081 17.4507 3.97134C16.2022 3.61644 15.1016 3.18887 14.2223 2.79853C13.0234 2.26634 12.424 2.00024 12 2.00024C11.576 2.00024 10.9766 2.26634 9.77771 2.79853C8.89839 3.18887 7.79784 3.61644 6.54933 3.97134C4.72193 4.49081 3.80822 4.75054 3.40411 5.28553C3 5.82053 3 6.64053 3 8.28053V11.1836C3 16.8088 8.06277 20.1838 10.594 21.5197C11.2011 21.8401 11.5046 22.0003 12 22.0003C12.4954 22.0003 12.7989 21.8401 13.406 21.5197C15.9372 20.1838 21 16.8088 21 11.1836Z" stroke="#6C8CFF" stroke-width="1.5" stroke-linecap="round"/>
</svg>