<svg width="32" height="32" viewBox="0 0 32 32" fill="none" xmlns="http://www.w3.org/2000/svg">
<path d="M27.6987 24C28.6977 24 29.4924 23.3713 30.2059 22.4921C31.6665 20.6925 29.2684 19.2544 28.3537 18.5501C27.424 17.8341 26.3859 17.4285 25.3333 17.3333M24 14.6667C25.8409 14.6667 27.3333 13.1743 27.3333 11.3333C27.3333 9.49239 25.8409 8 24 8" stroke="#6C8CFF" stroke-width="2" stroke-linecap="round"/>
<path d="M4.30096 24C3.30188 24 2.50724 23.3713 1.79373 22.4921C0.333129 20.6925 2.73124 19.2544 3.64587 18.5501C4.57564 17.8341 5.61379 17.4285 6.66635 17.3333M7.33301 14.6667C5.49207 14.6667 3.99968 13.1743 3.99968 11.3333C3.99968 9.49239 5.49207 8 7.33301 8" stroke="#6C8CFF" stroke-width="2" stroke-linecap="round"/>
<path d="M10.7781 20.1481C9.41571 20.9905 5.84365 22.7106 8.01928 24.863C9.08205 25.9145 10.2657 26.6665 11.7538 26.6665H20.2456C21.7337 26.6665 22.9173 25.9145 23.9801 24.863C26.1557 22.7106 22.5837 20.9905 21.2213 20.1481C18.0265 18.1726 13.9728 18.1726 10.7781 20.1481Z" stroke="#6C8CFF" stroke-width="2" stroke-linecap="round" stroke-linejoin="round"/>
<path d="M20.6664 10.0002C20.6664 12.5775 18.577 14.6668 15.9997 14.6668C13.4224 14.6668 11.333 12.5775 11.333 10.0002C11.333 7.42283 13.4224 5.3335 15.9997 5.3335C18.577 5.3335 20.6664 7.42283 20.6664 10.0002Z" stroke="#6C8CFF" stroke-width="2"/>
</svg>
