<svg width="440" height="232" viewBox="0 0 440 232" fill="none" xmlns="http://www.w3.org/2000/svg">
<g opacity="0.05">
<path d="M120.748 6.32147C138.873 -24.3507 163.667 -50.9677 193.42 -71.6938C223.173 -92.4199 257.177 -106.762 293.087 -113.73C328.996 -120.699 365.956 -120.128 401.418 -112.057C436.879 -103.987 469.999 -88.6084 498.491 -66.9829L426.851 19.4319C411.254 7.59411 393.124 -0.824039 373.712 -5.24189C354.301 -9.65975 334.069 -9.97218 314.412 -6.15762C294.755 -2.34307 276.142 5.50769 259.855 16.8531C243.568 28.1986 229.996 42.7688 220.074 59.5587L120.748 6.32147Z" fill="white"/>
<path d="M541.637 222.01C522.358 252.036 496.573 277.773 466.06 297.445C435.547 317.118 401.033 330.258 364.897 335.958C328.762 341.659 291.866 339.785 256.753 330.466C221.641 321.146 189.148 304.603 161.515 281.978L236.384 198.108C251.51 210.493 269.297 219.549 288.517 224.65C307.738 229.752 327.935 230.777 347.715 227.657C367.496 224.536 386.389 217.344 403.092 206.575C419.795 195.806 433.909 181.718 444.463 165.281L541.637 222.01Z" fill="white"/>
<path d="M276.731 123.395L155.515 251.613L123.591 35.7511L276.731 123.395Z" fill="white"/>
<path d="M208.138 133.539L86.9227 261.757L54.9986 45.8954L208.138 133.539Z" fill="white"/>
</g>
</svg>
