<svg width="1200" height="199" viewBox="0 0 1200 199" fill="none" xmlns="http://www.w3.org/2000/svg">
<path d="M19.2002 62.4143H6.68093H-6.97656V196.843H1203.99V75.5048L1124.89 35.7298L1079.37 42.2751L1049.77 35.7298L1017.34 42.2751L976.246 9.48568L922.872 42.2751L847.186 50.3308L810.196 35.7298L757.274 46.8064H723.698L670.207 30.6951L638.871 26.9247L620.699 12.0663L601.351 0.989746L552.98 35.7298H530.218L511.439 43.2821H484.124L454.533 55.3656L409.008 50.3308L370.312 58.3864L279.262 43.2821L224.751 11.7215L194.472 39.7577L131.874 55.3656H89.7635L36.8412 64.9317L19.2002 62.4143Z" fill="url(#paint0_linear_0_1)"/>
<path d="M18.2247 63.9356H5.6951H-7.97363V201.897H1203.99V77.37L1124.83 36.5499L1079.26 43.2672L1049.64 36.5499L1017.18 43.2672L974.252 10.0751L922.64 43.2672L846.892 51.5345L809.872 36.5499L756.906 47.9175H723.303L669.767 31.3829L638.87 27.0545L620.218 12.2646L600.854 0.896973L552.444 36.5499H529.663L510.869 44.3006H483.531L453.916 56.7016L408.353 51.5345L369.625 59.8018L278.5 44.3006L223.754 10.9929L193.64 40.6836L130.991 56.7016H88.8461L35.8802 66.5191L18.2247 63.9356Z" stroke="#6C8CFF" stroke-width="1.5"/>
<defs>
<linearGradient id="paint0_linear_0_1" x1="598.505" y1="-876.71" x2="598.505" y2="169.731" gradientUnits="userSpaceOnUse">
<stop stop-color="#99E39E"/>
<stop offset="1" stop-color="#99E39E" stop-opacity="0"/>
</linearGradient>
</defs>
</svg>
