<svg width="20" height="20" viewBox="0 0 20 20" fill="none" xmlns="http://www.w3.org/2000/svg">
<path d="M7.19028 10.5613H6.80781C5.57137 10.5613 4.95314 10.5613 4.68963 10.1537C4.42611 9.74608 4.67719 9.17817 5.17936 8.04236L6.68906 4.62769C7.14564 3.595 7.37393 3.07865 7.8168 2.78932C8.25968 2.5 8.82175 2.5 9.946 2.5H11.6872C13.0528 2.5 13.7357 2.5 13.9932 2.94613C14.2507 3.39225 13.912 3.98823 13.2344 5.18019L12.3412 6.75157C12.0043 7.34412 11.8359 7.64041 11.8382 7.88293C11.8413 8.19813 12.0089 8.4885 12.2797 8.6475C12.488 8.76992 12.8274 8.76992 13.5063 8.76992C14.3646 8.76992 14.7937 8.76992 15.0172 8.9185C15.3076 9.1115 15.4596 9.45683 15.4063 9.80267C15.3653 10.0688 15.0767 10.388 14.4993 11.0264L9.88674 16.1269C8.98074 17.1288 8.52774 17.6297 8.22355 17.4712C7.91935 17.3126 8.06544 16.6518 8.35758 15.3302L8.92991 12.7413C9.15233 11.735 9.26358 11.2318 8.99608 10.8966C8.72858 10.5613 8.2158 10.5613 7.19028 10.5613Z" stroke="#6C8CFF" stroke-width="1.25" stroke-linejoin="round"/>
</svg>