<svg width="140" height="33" viewBox="0 0 140 33" fill="none" xmlns="http://www.w3.org/2000/svg">
<path d="M14.6919 2.06583C16.8996 2.0659 18.9697 2.58301 20.8638 3.6293C22.7044 4.64616 24.2443 6.0083 25.4614 7.7045L26.8325 9.61661L24.7593 10.7299L22.2974 12.0522L20.7427 12.8861L19.6753 11.4828C19.1008 10.7277 18.3732 10.1217 17.4634 9.66251L17.4526 9.65762L17.4419 9.65176C16.5645 9.19659 15.6565 8.97508 14.6919 8.97501C13.7781 8.97501 12.9514 9.15757 12.188 9.51114C11.4004 9.88093 10.7112 10.3854 10.1108 11.0365C9.57723 11.6152 9.1423 12.278 8.80615 13.0356C8.94053 13.1399 9.07192 13.2458 9.1958 13.3539C9.67524 13.7723 10.6753 14.7237 10.6753 16.1322C10.6753 17.5408 9.67524 18.4922 9.1958 18.9106C9.07121 19.0193 8.93841 19.125 8.80322 19.2299C9.14885 19.9936 9.5905 20.6612 10.1274 21.2436C10.7354 21.8913 11.4249 22.3936 12.2046 22.7621L12.4966 22.8852C13.1833 23.1532 13.9104 23.2895 14.6919 23.2895C15.7123 23.2894 16.6244 23.0622 17.4614 22.6195C18.3707 22.1335 19.105 21.5158 19.689 20.765L20.7651 19.3803L22.3062 20.2182L24.769 21.557L26.8257 22.6742L25.4614 24.5766C24.2443 26.2728 22.7044 27.6349 20.8638 28.6518L20.854 28.6566C18.9615 29.6889 16.895 30.1986 14.6919 30.1986C12.847 30.1986 11.086 29.8327 9.43311 29.0922L9.42139 29.0863C7.80663 28.35 6.3788 27.3386 5.15088 26.059L5.14404 26.0512L5.13623 26.0434C3.92048 24.75 2.97067 23.2549 2.28369 21.5756L2.27783 21.5629C1.60876 19.8958 2.76346 18.6262 3.19775 18.2035C3.46848 17.94 3.78572 17.6874 4.10303 17.4565C4.05649 17.0207 4.03076 16.5794 4.03076 16.1322C4.03076 15.6852 4.05785 15.244 4.10498 14.808C3.78725 14.5768 3.46884 14.3248 3.19775 14.0609C2.76346 13.6382 1.60875 12.3687 2.27783 10.7016L2.28369 10.6889C2.97139 9.00785 3.92293 7.51494 5.14307 6.22989H5.14404C6.37495 4.93421 7.80829 3.91684 9.43311 3.18887V3.18985C11.0854 2.43847 12.846 2.06583 14.6919 2.06583Z" stroke="#646FC6" stroke-width="4.13223"/>
<path d="M40.9982 24.9442C39.8622 24.9442 38.7942 24.7202 37.7942 24.2722C36.7942 23.8162 35.9142 23.1922 35.1542 22.4002C34.4022 21.6002 33.8102 20.6722 33.3782 19.6162C32.9542 18.5602 32.7422 17.4322 32.7422 16.2322C32.7422 15.0322 32.9542 13.9042 33.3782 12.8482C33.8102 11.7922 34.4022 10.8682 35.1542 10.0762C35.9142 9.27623 36.7942 8.65223 37.7942 8.20423C38.7942 7.74823 39.8622 7.52023 40.9982 7.52023C42.3582 7.52023 43.6102 7.83623 44.7542 8.46823C45.8982 9.10023 46.8462 9.94023 47.5982 10.9882L45.3782 12.1762C44.8582 11.5202 44.2142 10.9962 43.4462 10.6042C42.6782 10.2122 41.8622 10.0162 40.9982 10.0162C40.1982 10.0162 39.4502 10.1802 38.7542 10.5082C38.0582 10.8362 37.4462 11.2842 36.9182 11.8522C36.3902 12.4202 35.9782 13.0802 35.6822 13.8322C35.3862 14.5842 35.2382 15.3842 35.2382 16.2322C35.2382 17.0882 35.3862 17.8922 35.6822 18.6442C35.9782 19.3882 36.3902 20.0482 36.9182 20.6242C37.4542 21.1922 38.0702 21.6402 38.7662 21.9682C39.4622 22.2882 40.2062 22.4482 40.9982 22.4482C41.8782 22.4482 42.6982 22.2522 43.4582 21.8602C44.2262 21.4602 44.8662 20.9322 45.3782 20.2762L47.5982 21.4882C46.8462 22.5362 45.8982 23.3762 44.7542 24.0082C43.6102 24.6322 42.3582 24.9442 40.9982 24.9442ZM54.1004 24.9442C52.9964 24.9442 51.9884 24.6602 51.0764 24.0922C50.1724 23.5242 49.4484 22.7642 48.9044 21.8122C48.3684 20.8522 48.1004 19.7922 48.1004 18.6322C48.1004 17.7522 48.2564 16.9322 48.5684 16.1722C48.8804 15.4042 49.3084 14.7322 49.8524 14.1562C50.4044 13.5722 51.0444 13.1162 51.7724 12.7882C52.5004 12.4602 53.2764 12.2962 54.1004 12.2962C55.2044 12.2962 56.2084 12.5802 57.1124 13.1482C58.0244 13.7162 58.7484 14.4802 59.2844 15.4402C59.8284 16.4002 60.1004 17.4642 60.1004 18.6322C60.1004 19.5042 59.9444 20.3202 59.6324 21.0802C59.3204 21.8402 58.8884 22.5122 58.3364 23.0962C57.7924 23.6722 57.1564 24.1242 56.4284 24.4522C55.7084 24.7802 54.9324 24.9442 54.1004 24.9442ZM54.1004 22.4482C54.7644 22.4482 55.3604 22.2722 55.8884 21.9202C56.4164 21.5682 56.8324 21.1042 57.1364 20.5282C57.4484 19.9442 57.6044 19.3122 57.6044 18.6322C57.6044 17.9362 57.4444 17.2962 57.1244 16.7122C56.8124 16.1282 56.3924 15.6642 55.8644 15.3202C55.3364 14.9682 54.7484 14.7922 54.1004 14.7922C53.4444 14.7922 52.8484 14.9682 52.3124 15.3202C51.7844 15.6722 51.3644 16.1402 51.0524 16.7242C50.7484 17.3082 50.5964 17.9442 50.5964 18.6322C50.5964 19.3442 50.7564 19.9882 51.0764 20.5642C51.3964 21.1402 51.8204 21.6002 52.3484 21.9442C52.8844 22.2802 53.4684 22.4482 54.1004 22.4482ZM61.3247 12.6322H63.8207V24.6322H61.3247V12.6322ZM62.5967 10.8922C62.2127 10.8922 61.8927 10.7682 61.6367 10.5202C61.3807 10.2722 61.2527 9.96023 61.2527 9.58423C61.2527 9.21623 61.3807 8.90823 61.6367 8.66023C61.8927 8.40423 62.2087 8.27623 62.5847 8.27623C62.9527 8.27623 63.2647 8.40423 63.5207 8.66023C63.7767 8.90823 63.9047 9.21623 63.9047 9.58423C63.9047 9.96023 63.7767 10.2722 63.5207 10.5202C63.2727 10.7682 62.9647 10.8922 62.5967 10.8922ZM76.9182 17.1082V24.6322H74.4222V17.7202C74.4222 17.1842 74.2902 16.6962 74.0262 16.2562C73.7702 15.8162 73.4222 15.4682 72.9822 15.2122C72.5502 14.9482 72.0622 14.8162 71.5182 14.8162C70.9902 14.8162 70.5062 14.9482 70.0662 15.2122C69.6262 15.4682 69.2742 15.8162 69.0102 16.2562C68.7462 16.6962 68.6142 17.1842 68.6142 17.7202V24.6322H66.1182V12.6322H68.6142V13.9042C69.0302 13.4082 69.5422 13.0162 70.1502 12.7282C70.7582 12.4402 71.4142 12.2962 72.1182 12.2962C73.0062 12.2962 73.8142 12.5122 74.5422 12.9442C75.2702 13.3762 75.8462 13.9562 76.2702 14.6842C76.7022 15.4122 76.9182 16.2202 76.9182 17.1082Z" fill="white"/>
<path d="M83.7201 24.6322L77.6241 7.83223H80.2641L85.2801 21.6682L90.3201 7.83223H92.9601L86.8641 24.6322H83.7201ZM98.2819 24.9442C97.1779 24.9442 96.1699 24.6602 95.2579 24.0922C94.3539 23.5242 93.6299 22.7642 93.0859 21.8122C92.5499 20.8522 92.2819 19.7922 92.2819 18.6322C92.2819 17.7522 92.4379 16.9322 92.7499 16.1722C93.0619 15.4042 93.4899 14.7322 94.0339 14.1562C94.5859 13.5722 95.2259 13.1162 95.9539 12.7882C96.6819 12.4602 97.4579 12.2962 98.2819 12.2962C99.2019 12.2962 100.046 12.4882 100.814 12.8722C101.582 13.2482 102.238 13.7722 102.782 14.4442C103.326 15.1082 103.726 15.8762 103.982 16.7482C104.238 17.6122 104.314 18.5322 104.21 19.5082H94.9579C95.0619 20.0602 95.2619 20.5602 95.5579 21.0082C95.8619 21.4482 96.2459 21.7962 96.7099 22.0522C97.1819 22.3082 97.7059 22.4402 98.2819 22.4482C98.8899 22.4482 99.4419 22.2962 99.9379 21.9922C100.442 21.6882 100.854 21.2682 101.174 20.7322L103.706 21.3202C103.226 22.3842 102.502 23.2562 101.534 23.9362C100.566 24.6082 99.4819 24.9442 98.2819 24.9442ZM94.8739 17.6002H101.69C101.61 17.0242 101.406 16.5042 101.078 16.0402C100.758 15.5682 100.354 15.1962 99.8659 14.9242C99.3859 14.6442 98.8579 14.5042 98.2819 14.5042C97.7139 14.5042 97.1859 14.6402 96.6979 14.9122C96.2179 15.1842 95.8179 15.5562 95.4979 16.0282C95.1859 16.4922 94.9779 17.0162 94.8739 17.6002ZM105.717 24.6322V12.6322H108.213V13.9042C108.629 13.4082 109.141 13.0162 109.749 12.7282C110.357 12.4402 111.013 12.2962 111.717 12.2962C112.165 12.2962 112.609 12.3562 113.049 12.4762L112.053 14.9962C111.741 14.8762 111.429 14.8162 111.117 14.8162C110.589 14.8162 110.105 14.9482 109.665 15.2122C109.225 15.4682 108.873 15.8162 108.609 16.2562C108.345 16.6962 108.213 17.1842 108.213 17.7202V24.6322H105.717ZM122.525 12.6322H125.021V24.9442C125.021 25.7682 124.845 26.5282 124.493 27.2242C124.149 27.9202 123.681 28.5202 123.089 29.0242C122.497 29.5362 121.817 29.9322 121.049 30.2122C120.289 30.4922 119.493 30.6322 118.661 30.6322C117.821 30.6322 117.013 30.4522 116.237 30.0922C115.461 29.7402 114.777 29.2602 114.185 28.6522C113.601 28.0442 113.165 27.3562 112.877 26.5882L115.169 25.5562C115.329 26.0522 115.585 26.4922 115.937 26.8762C116.297 27.2602 116.713 27.5642 117.185 27.7882C117.665 28.0122 118.157 28.1242 118.661 28.1242C119.157 28.1242 119.633 28.0442 120.089 27.8842C120.553 27.7322 120.965 27.5162 121.325 27.2362C121.693 26.9562 121.985 26.6202 122.201 26.2282C122.417 25.8362 122.525 25.4082 122.525 24.9442V22.9162C122.133 23.5242 121.629 24.0162 121.013 24.3922C120.397 24.7602 119.681 24.9442 118.865 24.9442C118.017 24.9442 117.217 24.7802 116.465 24.4522C115.713 24.1242 115.053 23.6722 114.485 23.0962C113.917 22.5122 113.473 21.8402 113.153 21.0802C112.833 20.3202 112.673 19.5042 112.673 18.6322C112.673 17.7602 112.833 16.9442 113.153 16.1842C113.473 15.4162 113.917 14.7442 114.485 14.1682C115.053 13.5842 115.713 13.1282 116.465 12.8002C117.217 12.4722 118.017 12.3082 118.865 12.3082C119.681 12.3082 120.397 12.4962 121.013 12.8722C121.629 13.2402 122.133 13.7322 122.525 14.3482V12.6322ZM118.889 22.5322C119.585 22.5322 120.193 22.3562 120.713 22.0042C121.233 21.6442 121.637 21.1682 121.925 20.5762C122.213 19.9842 122.357 19.3362 122.357 18.6322C122.357 17.9122 122.209 17.2602 121.913 16.6762C121.625 16.0842 121.221 15.6122 120.701 15.2602C120.181 14.9002 119.577 14.7202 118.889 14.7202C118.217 14.7202 117.601 14.8962 117.041 15.2482C116.489 15.6002 116.049 16.0722 115.721 16.6642C115.393 17.2562 115.229 17.9122 115.229 18.6322C115.229 19.3522 115.393 20.0082 115.721 20.6002C116.057 21.1922 116.501 21.6642 117.053 22.0162C117.613 22.3602 118.225 22.5322 118.889 22.5322ZM132.49 24.9442C131.386 24.9442 130.378 24.6602 129.466 24.0922C128.562 23.5242 127.838 22.7642 127.294 21.8122C126.758 20.8522 126.49 19.7922 126.49 18.6322C126.49 17.7522 126.646 16.9322 126.958 16.1722C127.27 15.4042 127.698 14.7322 128.242 14.1562C128.794 13.5722 129.434 13.1162 130.162 12.7882C130.89 12.4602 131.666 12.2962 132.49 12.2962C133.41 12.2962 134.254 12.4882 135.022 12.8722C135.79 13.2482 136.446 13.7722 136.99 14.4442C137.534 15.1082 137.934 15.8762 138.19 16.7482C138.446 17.6122 138.522 18.5322 138.418 19.5082H129.166C129.27 20.0602 129.47 20.5602 129.766 21.0082C130.07 21.4482 130.454 21.7962 130.918 22.0522C131.39 22.3082 131.914 22.4402 132.49 22.4482C133.098 22.4482 133.65 22.2962 134.146 21.9922C134.65 21.6882 135.062 21.2682 135.382 20.7322L137.914 21.3202C137.434 22.3842 136.71 23.2562 135.742 23.9362C134.774 24.6082 133.69 24.9442 132.49 24.9442ZM129.082 17.6002H135.898C135.818 17.0242 135.614 16.5042 135.286 16.0402C134.966 15.5682 134.562 15.1962 134.074 14.9242C133.594 14.6442 133.066 14.5042 132.49 14.5042C131.922 14.5042 131.394 14.6402 130.906 14.9122C130.426 15.1842 130.026 15.5562 129.706 16.0282C129.394 16.4922 129.186 17.0162 129.082 17.6002Z" fill="#646FC6"/>
</svg>