<svg width="132" height="32" viewBox="0 0 132 32" fill="none" xmlns="http://www.w3.org/2000/svg">
<g clip-path="url(#clip0_1069_1658)">
<path d="M38.896 21.8766H48.2244V19.0668H42.2115V8.4834H38.896V21.8766Z" fill="white"/>
<path d="M53.751 20.0034C52.421 20.0034 51.7279 18.842 51.7279 17.1C51.7279 15.3579 52.421 14.1778 53.751 14.1778C55.0809 14.1778 55.7927 15.3579 55.7927 17.1C55.7927 18.842 55.0809 20.0034 53.751 20.0034ZM53.7697 22.1763C56.8604 22.1763 58.8835 19.9847 58.8835 17.1C58.8835 14.2153 56.8604 12.0237 53.7697 12.0237C50.6977 12.0237 48.6372 14.2153 48.6372 17.1C48.6372 19.9847 50.6977 22.1763 53.7697 22.1763Z" fill="white"/>
<path d="M64.2332 25.192C65.6568 25.192 66.9118 24.8736 67.7548 24.1243C68.5228 23.4312 69.0285 22.3822 69.0285 20.9399V12.2859H66.1064V13.3161H66.0689C65.507 12.5106 64.6453 12.0049 63.3716 12.0049C60.9926 12.0049 59.3442 13.9904 59.3442 16.8002C59.3442 19.7411 61.3485 21.352 63.5027 21.352C64.664 21.352 65.3946 20.8837 65.9565 20.2468H66.0315V21.2022C66.0315 22.3635 65.4882 23.0379 64.1958 23.0379C63.1842 23.0379 62.6785 22.607 62.5099 22.1013H59.5503C59.85 24.1056 61.592 25.192 64.2332 25.192ZM64.2145 19.0855C63.0719 19.0855 62.3226 18.1489 62.3226 16.7065C62.3226 15.2455 63.0719 14.3089 64.2145 14.3089C65.4882 14.3089 66.1626 15.3953 66.1626 16.6878C66.1626 18.0365 65.5444 19.0855 64.2145 19.0855Z" fill="white"/>
<path d="M75.0371 20.0034C73.7071 20.0034 73.0141 18.842 73.0141 17.1C73.0141 15.3579 73.7071 14.1778 75.0371 14.1778C76.367 14.1778 77.0789 15.3579 77.0789 17.1C77.0789 18.842 76.367 20.0034 75.0371 20.0034ZM75.0558 22.1763C78.1466 22.1763 80.1692 19.9847 80.1692 17.1C80.1692 14.2153 78.1466 12.0237 75.0558 12.0237C71.9838 12.0237 69.9233 14.2153 69.9233 17.1C69.9233 19.9847 71.9838 22.1763 75.0558 22.1763Z" fill="white"/>
<path d="M81.061 21.8766H84.1143V12.2859H81.061V21.8766ZM81.061 10.956H84.1143V8.4834H81.061V10.956Z" fill="white"/>
<path d="M85.439 25.0422H88.4922V20.8837H88.5297C89.1291 21.6892 90.0095 22.1762 91.2458 22.1762C93.7558 22.1762 95.423 20.1906 95.423 17.0812C95.423 14.1965 93.8682 12.0049 91.3207 12.0049C90.0095 12.0049 89.0729 12.5856 88.4173 13.4472H88.3611V12.2859H85.439V25.0422ZM90.4591 19.816C89.1478 19.816 88.3986 18.7483 88.3986 17.1936C88.3986 15.6388 89.0729 14.4587 90.4029 14.4587C91.7141 14.4587 92.3322 15.5452 92.3322 17.1936C92.3322 18.8232 91.6204 19.816 90.4591 19.816Z" fill="white"/>
<path d="M100.394 22.1762C102.904 22.1762 104.759 21.0898 104.759 18.9918C104.759 16.538 102.773 16.1071 101.087 15.8262C99.8697 15.6014 98.7833 15.5077 98.7833 14.8334C98.7833 14.234 99.3639 13.953 100.113 13.953C100.956 13.953 101.537 14.2152 101.649 15.0769H104.459C104.309 13.185 102.848 12.0049 100.132 12.0049C97.8654 12.0049 95.9922 13.0539 95.9922 15.0769C95.9922 17.3247 97.7717 17.7742 99.4389 18.0552C100.713 18.28 101.874 18.3737 101.874 19.2353C101.874 19.8535 101.293 20.1906 100.375 20.1906C99.3639 20.1906 98.7271 19.7223 98.6147 18.767H95.73C95.8236 20.8837 97.5844 22.1762 100.394 22.1762Z" fill="white"/>
<path d="M108.906 22.1575C110.236 22.1575 111.079 21.633 111.772 20.6964H111.828V21.8765H114.75V12.2859H111.697V17.6432C111.697 18.7858 111.06 19.5725 110.011 19.5725C109.037 19.5725 108.569 18.9918 108.569 17.9429V12.2859H105.534V18.5797C105.534 20.7152 106.696 22.1575 108.906 22.1575Z" fill="white"/>
<path d="M116.079 21.8765H119.132V16.5005C119.132 15.3579 119.694 14.5524 120.649 14.5524C121.567 14.5524 121.998 15.1518 121.998 16.1821V21.8765H125.051V16.5005C125.051 15.3579 125.594 14.5524 126.568 14.5524C127.486 14.5524 127.917 15.1518 127.917 16.1821V21.8765H130.97V15.6388C130.97 13.4847 129.884 12.0049 127.711 12.0049C126.475 12.0049 125.444 12.5294 124.695 13.6907H124.658C124.171 12.6605 123.215 12.0049 121.96 12.0049C120.574 12.0049 119.656 12.6605 119.057 13.6533H119.001V12.2859H116.079V21.8765Z" fill="white"/>
<path d="M20.2675 0.822524L17.1978 0L14.611 9.6543L12.2755 0.938333L9.20581 1.76086L11.7291 11.1778L5.44414 4.89286L3.19697 7.14004L10.0908 14.0339L1.50563 11.7335L0.683105 14.8032L10.0635 17.3167C9.95609 16.8534 9.89927 16.3708 9.89927 15.8749C9.89927 12.3645 12.7449 9.51888 16.2553 9.51888C19.7656 9.51888 22.6112 12.3645 22.6112 15.8749C22.6112 16.3676 22.5551 16.8473 22.449 17.3078L30.9741 19.592L31.7966 16.5224L22.3789 13.9989L30.9646 11.6983L30.1421 8.62866L20.7248 11.152L27.0098 4.86706L24.7626 2.61989L17.9644 9.41812L20.2675 0.822524Z" fill="#F97316"/>
<path d="M22.4406 17.3433C22.1774 18.4559 21.6218 19.4555 20.8594 20.2564L27.0354 26.4324L29.2826 24.1853L22.4406 17.3433Z" fill="#F97316"/>
<path d="M20.7971 20.3213C20.0256 21.1093 19.0505 21.6974 17.957 22.0005L20.2044 30.3876L23.274 29.5651L20.7971 20.3213Z" fill="#F97316"/>
<path d="M17.8423 22.0311C17.3349 22.1615 16.8032 22.2308 16.2552 22.2308C15.6681 22.2308 15.0996 22.1512 14.5599 22.0022L12.3105 30.397L15.3802 31.2194L17.8423 22.0311Z" fill="#F97316"/>
<path d="M14.4517 21.9711C13.375 21.653 12.4172 21.0574 11.6614 20.2671L5.47021 26.4583L7.71739 28.7055L14.4517 21.9711Z" fill="#F97316"/>
<path d="M11.6095 20.2125C10.8667 19.4172 10.3256 18.4309 10.068 17.3354L1.51514 19.6272L2.33765 22.6969L11.6095 20.2125Z" fill="#F97316"/>
</g>
<defs>
<clipPath id="clip0_1069_1658">
<rect width="131.122" height="32" fill="white"/>
</clipPath>
</defs>
</svg>
