<svg width="124" height="32" viewBox="0 0 124 32" fill="none" xmlns="http://www.w3.org/2000/svg">
<path d="M36.6187 9.64123H39.6187V21.7712H36.6187V9.64123ZM40.8087 17.1912C40.8087 14.1912 42.6487 12.4012 45.4887 12.4012C48.3287 12.4012 50.1687 14.1912 50.1687 17.1912C50.1687 20.1912 48.3687 21.9912 45.4887 21.9912C42.6087 21.9912 40.8087 20.2412 40.8087 17.1912ZM47.1587 17.1912C47.1587 15.5412 46.5087 14.5712 45.4887 14.5712C44.4687 14.5712 43.8287 15.5712 43.8287 17.1912C43.8287 18.8112 44.4587 19.7912 45.4887 19.7912C46.5187 19.7912 47.1587 18.8712 47.1587 17.2012V17.1912ZM51.2987 22.3612H54.1787C54.3158 22.6657 54.5475 22.9178 54.8394 23.08C55.1313 23.2421 55.4678 23.3057 55.7987 23.2612C56.9387 23.2612 57.5387 22.6412 57.5387 21.7412V20.0612H57.4787C57.2397 20.5761 56.8518 21.0075 56.3652 21.2999C55.8786 21.5922 55.3155 21.732 54.7487 21.7012C52.5587 21.7012 51.1087 20.0312 51.1087 17.1612C51.1087 14.2912 52.4887 12.4812 54.7887 12.4812C55.3733 12.4583 55.9509 12.6146 56.4442 12.9291C56.9375 13.2437 57.3229 13.7015 57.5487 14.2412V12.5712H60.5487V21.6712C60.5487 23.8612 58.6187 25.2212 55.7687 25.2212C53.1187 25.2212 51.4687 24.0312 51.2987 22.3712V22.3612ZM57.5487 17.1812C57.5487 15.7212 56.8787 14.8012 55.8187 14.8012C54.7587 14.8012 54.1087 15.7112 54.1087 17.1812C54.1087 18.6512 54.7487 19.4812 55.8187 19.4812C56.8887 19.4812 57.5487 18.6712 57.5487 17.1912V17.1812ZM61.6787 17.1812C61.6787 14.1812 63.5187 12.3912 66.3587 12.3912C69.1987 12.3912 71.0487 14.1812 71.0487 17.1812C71.0487 20.1812 69.2487 21.9812 66.3587 21.9812C63.4687 21.9812 61.6787 20.2412 61.6787 17.1912V17.1812ZM68.0287 17.1812C68.0287 15.5312 67.3787 14.5612 66.3587 14.5612C65.3387 14.5612 64.7487 15.5712 64.7487 17.2012C64.7487 18.8312 65.3787 19.8012 66.3987 19.8012C67.4187 19.8012 68.0287 18.8712 68.0287 17.2012V17.1812ZM72.1887 10.3912C72.1808 10.0883 72.2631 9.78993 72.425 9.53384C72.587 9.27774 72.8213 9.0755 73.0983 8.95274C73.3753 8.82998 73.6825 8.79223 73.981 8.84428C74.2795 8.89634 74.5558 9.03585 74.7749 9.24512C74.9941 9.4544 75.1461 9.72403 75.2118 10.0198C75.2775 10.3156 75.2539 10.6242 75.1439 10.9066C75.034 11.1889 74.8427 11.4323 74.5943 11.6058C74.346 11.7793 74.0516 11.8752 73.7487 11.8812C73.5479 11.895 73.3464 11.8671 73.1569 11.7993C72.9673 11.7315 72.7939 11.6253 72.6474 11.4872C72.5009 11.3492 72.3845 11.1823 72.3056 10.9971C72.2266 10.812 72.1868 10.6125 72.1887 10.4112V10.3912ZM72.1887 12.5912H75.1887V21.7712H72.1887V12.5912ZM86.0787 17.1812C86.0787 20.1812 84.7487 21.8912 82.4687 21.8912C81.8841 21.9287 81.302 21.7858 80.8012 21.4818C80.3004 21.1777 79.9051 20.7272 79.6687 20.1912H79.6087V24.7112H76.6087V12.5712H79.6087V14.2112H79.6687C79.8941 13.6663 80.2819 13.2041 80.7793 12.8874C81.2767 12.5707 81.8596 12.4149 82.4487 12.4412C84.7487 12.4812 86.1187 14.2012 86.1187 17.2012L86.0787 17.1812ZM83.0787 17.1812C83.0787 15.7212 82.4087 14.7912 81.3587 14.7912C80.3087 14.7912 79.6387 15.7312 79.6287 17.1812C79.6187 18.6312 80.3087 19.5612 81.3587 19.5612C82.4087 19.5612 83.0787 18.6512 83.0787 17.2012V17.1812ZM91.2287 12.3812C93.7187 12.3812 95.2287 13.5612 95.2987 15.4512H92.5687C92.5687 14.8012 92.0287 14.3912 91.1987 14.3912C90.3687 14.3912 89.9987 14.7112 89.9987 15.1812C89.9987 15.6512 90.3287 15.8012 90.9987 15.9412L92.9187 16.3312C94.7487 16.7212 95.5287 17.4612 95.5287 18.8512C95.5287 20.7512 93.7987 21.9712 91.2487 21.9712C88.6987 21.9712 87.0287 20.7512 86.8987 18.8812H89.7887C89.8787 19.5612 90.4187 19.9612 91.2987 19.9612C92.1787 19.9612 92.5787 19.6712 92.5787 19.1912C92.5787 18.7112 92.2987 18.6112 91.5787 18.4612L89.8487 18.0912C88.0587 17.7212 87.1187 16.7712 87.1187 15.3712C87.1387 13.5712 88.7487 12.4012 91.2287 12.4012V12.3812ZM105.539 21.7512H102.649V20.0412H102.589C102.43 20.6153 102.08 21.1178 101.596 21.4653C101.112 21.8127 100.524 21.9842 99.9287 21.9512C99.4729 21.9771 99.0169 21.9049 98.5914 21.7394C98.1659 21.5739 97.7809 21.3191 97.4624 20.992C97.1439 20.665 96.8992 20.2733 96.7451 19.8436C96.5909 19.4139 96.5308 18.9561 96.5687 18.5012V12.5712H99.5687V17.8112C99.5687 18.9012 100.129 19.4812 101.059 19.4812C101.277 19.4816 101.493 19.4355 101.692 19.3458C101.89 19.2561 102.068 19.1249 102.212 18.9611C102.355 18.7972 102.463 18.6045 102.526 18.3959C102.589 18.1872 102.608 17.9674 102.579 17.7512V12.5712H105.579L105.539 21.7512ZM106.989 12.5712H109.889V14.3412H109.949C110.108 13.7747 110.451 13.2769 110.923 12.9259C111.395 12.5749 111.971 12.3903 112.559 12.4012C113.158 12.3533 113.752 12.5324 114.225 12.903C114.697 13.2736 115.013 13.8084 115.109 14.4012H115.169C115.35 13.8021 115.726 13.2805 116.237 12.9184C116.747 12.5563 117.364 12.3743 117.989 12.4012C118.397 12.3875 118.803 12.4598 119.181 12.6134C119.56 12.7669 119.901 12.9984 120.184 13.2926C120.467 13.5869 120.685 13.9374 120.824 14.3213C120.962 14.7052 121.019 15.1141 120.989 15.5212V21.7712H117.989V16.3212C117.989 15.3212 117.539 14.8612 116.699 14.8612C116.512 14.8596 116.326 14.8982 116.155 14.9744C115.984 15.0506 115.831 15.1626 115.707 15.3029C115.583 15.4432 115.49 15.6084 115.435 15.7875C115.38 15.9667 115.365 16.1555 115.389 16.3412V21.7712H112.539V16.2812C112.539 15.3612 112.089 14.8612 111.269 14.8612C111.08 14.8613 110.892 14.9015 110.72 14.9792C110.547 15.057 110.392 15.1705 110.267 15.3122C110.141 15.4539 110.047 15.6207 109.99 15.8016C109.934 15.9824 109.916 16.1731 109.939 16.3612V21.7712H106.939L106.989 12.5712Z" fill="white"/>
<path d="M28.2286 10.1912C27.7197 9.02754 27.0462 7.94311 26.2286 6.97118C25.0201 5.49152 23.5119 4.28457 21.8033 3.42978C20.0947 2.575 18.2244 2.09175 16.3156 2.01184C14.4068 1.93193 12.5027 2.25717 10.7286 2.96617C8.9546 3.67516 7.3508 4.75183 6.02283 6.12531C4.69485 7.49878 3.6728 9.13793 3.02395 10.9349C2.3751 12.7318 2.11415 14.6458 2.25829 16.5508C2.40244 18.4559 2.94839 20.3088 3.86023 21.9876C4.77207 23.6665 6.02912 25.1332 7.54864 26.2912C8.52364 27.0491 9.60099 27.6652 10.7486 28.1212C12.3576 28.7806 14.0797 29.1202 15.8186 29.1212C19.408 29.1133 22.8478 27.6825 25.3841 25.1425C27.9203 22.6025 29.346 19.1606 29.3486 15.5712C29.3512 13.7197 28.9699 11.8878 28.2286 10.1912ZM15.8086 4.76117C17.3702 4.76101 18.9129 5.10231 20.3286 5.76117C19.9834 5.91034 19.6204 6.01453 19.2486 6.07118C18.0252 6.24827 16.8919 6.81625 16.0178 7.69035C15.1437 8.56444 14.5757 9.69778 14.3986 10.9212C14.3209 11.6073 14.0088 12.2456 13.5151 12.7284C13.0214 13.2112 12.3763 13.5088 11.6886 13.5712C10.4652 13.7483 9.3319 14.3163 8.45781 15.1904C7.58372 16.0645 7.01573 17.1978 6.83864 18.4212C6.77868 19.0736 6.50033 19.6867 6.04864 20.1612C5.26929 18.5145 4.91919 16.6973 5.03091 14.8789C5.14263 13.0605 5.71254 11.2999 6.68761 9.76088C7.66267 8.22197 9.01121 6.95469 10.6077 6.07702C12.2042 5.19935 13.9968 4.73982 15.8186 4.74117L15.8086 4.76117ZM7.53864 22.5712C7.65864 22.4612 7.77864 22.3612 7.89864 22.2412C8.78829 21.3787 9.35935 20.2401 9.51864 19.0112C9.58322 18.3204 9.89163 17.6752 10.3886 17.1912C10.8669 16.6934 11.5106 16.3875 12.1986 16.3312C13.422 16.1541 14.5553 15.5861 15.4294 14.712C16.3035 13.8379 16.8715 12.7046 17.0486 11.4812C17.0919 10.7587 17.4019 10.078 17.9186 9.57118C18.4087 9.08303 19.0585 8.78828 19.7486 8.74117C20.8725 8.58654 21.9207 8.08689 22.7486 7.31118C23.6913 8.09325 24.4899 9.03407 25.1086 10.0912C25.0706 10.1425 25.027 10.1895 24.9786 10.2312C24.5013 10.7334 23.8584 11.046 23.1686 11.1112C21.9439 11.2852 20.8089 11.8522 19.9342 12.7268C19.0596 13.6015 18.4926 14.7365 18.3186 15.9612C18.2481 16.6496 17.9418 17.2925 17.4516 17.7809C16.9613 18.2694 16.3173 18.5733 15.6286 18.6412C14.4016 18.8169 13.2641 19.3838 12.3849 20.2575C11.5058 21.1313 10.9319 22.2653 10.7486 23.4912C10.6948 23.9799 10.5269 24.4492 10.2586 24.8612C9.23263 24.252 8.31373 23.4784 7.53864 22.5712ZM15.8086 26.4312C14.7939 26.4323 13.784 26.2909 12.8086 26.0112C13.1423 25.3892 13.3592 24.7113 13.4486 24.0112C13.5187 23.3243 13.8236 22.6826 14.3118 22.1944C14.8 21.7062 15.4417 21.4013 16.1286 21.3312C17.3538 21.1561 18.4894 20.589 19.3655 19.7147C20.2415 18.8405 20.811 17.706 20.9886 16.4812C21.0587 15.7943 21.3636 15.1526 21.8518 14.6644C22.34 14.1762 22.9817 13.8713 23.6686 13.8012C24.5906 13.6813 25.4694 13.338 26.2286 12.8012C26.6502 14.3991 26.7001 16.0723 26.3746 17.6925C26.0491 19.3127 25.3567 20.8369 24.3507 22.148C23.3447 23.459 22.0518 24.5223 20.571 25.2561C19.0903 25.9899 17.4612 26.3748 15.8086 26.3812V26.4312Z" fill="white"/>
</svg>
