<svg width="118" height="32" viewBox="0 0 118 32" fill="none" xmlns="http://www.w3.org/2000/svg">
<path d="M39.1802 21.6362H41.7394V9.59253H39.1802V21.6362Z" fill="white"/>
<path d="M46.9892 21.9041C49.6656 21.9041 51.422 20.1811 51.422 17.1368C51.422 14.1928 49.7158 12.3528 46.9892 12.3528C44.3129 12.3528 42.5732 14.0757 42.5732 17.1368C42.5732 20.0975 44.2627 21.9041 46.9892 21.9041ZM46.9892 19.8299C45.8351 19.8299 45.1994 18.8764 45.1994 17.1368C45.1994 15.3804 45.8183 14.427 46.9892 14.427C48.1602 14.427 48.7958 15.3971 48.7958 17.1368C48.7958 18.8931 48.1769 19.8299 46.9892 19.8299Z" fill="white"/>
<path d="M55.5859 21.6531C56.5561 21.6531 57.359 21.2517 57.9277 20.4655V21.971C57.9277 23.2255 57.3088 23.6437 56.3888 23.6437C55.5023 23.6437 54.8164 23.2088 54.7161 22.4059H52.1568C52.4746 24.5971 54.1306 25.6008 56.4223 25.6008C58.7808 25.6008 60.487 24.3462 60.487 21.9375V12.6371H57.9277V13.4735C57.3757 12.7375 56.5895 12.3528 55.5859 12.3528C53.3444 12.3528 51.8892 14.0255 51.8892 17.0197C51.8892 19.8801 53.311 21.6531 55.5859 21.6531ZM56.2048 19.579C55.1008 19.579 54.5153 18.659 54.5153 17.0197C54.5153 15.3302 55.1008 14.427 56.2048 14.427C57.3255 14.427 57.9277 15.347 57.9277 17.003C57.9277 18.6757 57.3422 19.579 56.2048 19.579Z" fill="white"/>
<path d="M65.7514 21.9041C68.4278 21.9041 70.1842 20.1811 70.1842 17.1368C70.1842 14.1928 68.478 12.3528 65.7514 12.3528C63.0751 12.3528 61.3354 14.0757 61.3354 17.1368C61.3354 20.0975 63.0249 21.9041 65.7514 21.9041ZM65.7514 19.8299C64.5973 19.8299 63.9616 18.8764 63.9616 17.1368C63.9616 15.3804 64.5805 14.427 65.7514 14.427C66.9224 14.427 67.558 15.3971 67.558 17.1368C67.558 18.8931 66.9391 19.8299 65.7514 19.8299Z" fill="white"/>
<path d="M71.0361 11.7336H73.5957V9.59253H71.0361V11.7336ZM71.0361 21.6362H73.5957V12.6369H71.0361V21.6362Z" fill="white"/>
<path d="M77.3727 25.3331V20.7331C77.908 21.5026 78.6775 21.9041 79.6309 21.9041C81.9226 21.9041 83.4113 20.1811 83.4113 17.1201C83.4113 14.1761 81.956 12.3528 79.6309 12.3528C78.6942 12.3528 77.9247 12.7877 77.3727 13.5739V12.6371H74.8135V25.3331H77.3727ZM79.0957 14.427C80.1829 14.427 80.7851 15.3804 80.7851 17.1201C80.7851 18.8764 80.1997 19.8299 79.0957 19.8299C77.9749 19.8299 77.3727 18.8597 77.3727 17.1201C77.3727 15.3804 77.9582 14.427 79.0957 14.427Z" fill="white"/>
<path d="M86.4848 15.1295C86.4848 14.6444 86.9197 14.3099 87.5888 14.3099C88.4921 14.3099 89.0274 14.6946 89.1779 15.6146H91.7205C91.4696 13.3397 89.8303 12.3528 87.6725 12.3528C85.2637 12.3528 84.0427 13.7579 84.0427 15.2633C84.0427 18.8764 89.4957 17.3208 89.4957 19.0604C89.4957 19.6124 89.0441 19.9637 88.1408 19.9637C87.1874 19.9637 86.5016 19.5121 86.3845 18.6757H83.8252C84.1597 20.9004 85.799 21.9041 88.0739 21.9041C90.4157 21.9041 92.055 20.683 92.055 18.9099C92.055 15.347 86.4848 16.9026 86.4848 15.1295Z" fill="white"/>
<path d="M98.3608 17.8057C98.3608 18.9599 97.7252 19.8297 96.7383 19.8297C95.835 19.8297 95.4001 19.261 95.4001 18.1068V12.637H92.8408V18.6253C92.8408 20.8668 94.0954 21.9039 95.8016 21.9039C96.8888 21.9039 97.7754 21.4355 98.3608 20.4319V21.6362H100.92V12.637H98.3608V17.8057Z" fill="white"/>
<path d="M102.156 21.6364H104.716V16.4677C104.716 15.3135 105.301 14.427 106.188 14.427C107.007 14.427 107.409 15.0124 107.409 16.1499V21.6364H109.951V16.4677C109.951 15.3135 110.553 14.427 111.44 14.427C112.26 14.427 112.644 15.0124 112.644 16.1499V21.6364H115.204V15.6313C115.204 13.4066 113.966 12.3528 112.293 12.3528C111.172 12.3528 110.219 12.8211 109.6 13.8415C109.148 12.8379 108.245 12.3528 107.174 12.3528C106.137 12.3528 105.284 12.8044 104.716 13.7746V12.6371H102.156V21.6364Z" fill="white"/>
<path opacity="0.4" d="M29.4746 25.311C32.2469 22.8353 33.947 19.4944 33.947 15.8182C33.947 8.18662 26.6207 2 17.5834 2C8.54598 2 1.21973 8.18662 1.21973 15.8182C1.21973 23.4497 8.54598 29.6364 17.5834 29.6364C20.1472 29.6364 22.5734 29.1385 24.7336 28.2508C27.2712 29.8172 30.3802 30.9431 33.8138 30.7056C31.9999 30.2445 30.4396 28.3767 29.4746 25.311Z" fill="#6C8CFF"/>
<path opacity="0.6" d="M29.583 15.818C29.583 21.4413 24.2104 25.9999 17.583 25.9999C10.9556 25.9999 5.58301 21.4413 5.58301 15.818C5.58301 10.1948 10.9556 5.63623 17.583 5.63623C24.2104 5.63623 29.583 10.1948 29.583 15.818Z" fill="#6C8CFF"/>
<path d="M25.2195 15.8182C25.2195 19.4331 21.8006 22.3636 17.5831 22.3636C13.3657 22.3636 9.94678 19.4331 9.94678 15.8182C9.94678 12.2032 13.3657 9.27271 17.5831 9.27271C21.8006 9.27271 25.2195 12.2032 25.2195 15.8182Z" fill="#6C8CFF"/>
</svg>
