<svg width="32" height="32" viewBox="0 0 32 32" fill="none" xmlns="http://www.w3.org/2000/svg">
<path d="M22.6665 14.406C22.6665 13.9451 22.6665 13.7147 22.7358 13.5093C22.9374 12.9126 23.4689 12.681 24.0013 12.4385C24.5998 12.1659 24.899 12.0296 25.1956 12.0056C25.5322 11.9784 25.8694 12.0509 26.1572 12.2124C26.5386 12.4265 26.8046 12.8332 27.077 13.164C28.3349 14.6917 28.9637 15.4557 29.1938 16.2981C29.3796 16.9779 29.3796 17.6888 29.1938 18.3685C28.8582 19.5972 27.7978 20.6272 27.0129 21.5805C26.6114 22.0681 26.4106 22.312 26.1572 22.4543C25.8694 22.6157 25.5322 22.6883 25.1956 22.6611C24.899 22.6371 24.5998 22.5008 24.0013 22.2281C23.4689 21.9856 22.9374 21.7541 22.7358 21.1573C22.6665 20.952 22.6665 20.7216 22.6665 20.2607V14.406Z" stroke="#6C8CFF" stroke-width="2"/>
<path d="M9.33317 14.4061C9.33317 13.8259 9.31688 13.3043 8.84772 12.8963C8.67708 12.7479 8.45084 12.6448 7.99838 12.4387C7.39985 12.1661 7.10058 12.0298 6.80405 12.0058C5.91438 11.9339 5.43573 12.5411 4.92268 13.1642C3.66484 14.692 3.03592 15.4559 2.80578 16.2983C2.62008 16.9781 2.62008 17.6891 2.80578 18.3688C3.14144 19.5975 4.20186 20.6273 4.98678 21.5808C5.48156 22.1817 5.9542 22.73 6.80405 22.6613C7.10058 22.6373 7.39985 22.5009 7.99838 22.2284C8.45084 22.0223 8.67708 21.9192 8.84772 21.7708C9.31688 21.3628 9.33317 20.8413 9.33317 20.2609V14.4061Z" stroke="#6C8CFF" stroke-width="2"/>
<path d="M6.6665 12C6.6665 7.58172 10.8452 4 15.9998 4C21.1545 4 25.3332 7.58172 25.3332 12" stroke="#6C8CFF" stroke-width="2" stroke-linecap="square" stroke-linejoin="round"/>
<path d="M25.3335 22.6665V23.7332C25.3335 26.0896 22.9456 27.9998 20.0002 27.9998H17.3335" stroke="#6C8CFF" stroke-width="2" stroke-linecap="round" stroke-linejoin="round"/>
</svg>
